G04*
G04 #@! TF.GenerationSoftware,Altium Limited,Altium Designer,22.1.2 (22)*
G04*
G04 Layer_Color=128*
%FSLAX25Y25*%
%MOIN*%
G70*
G04*
G04 #@! TF.SameCoordinates,38FC0847-7AA4-42F0-B2C1-92E1326FFF72*
G04*
G04*
G04 #@! TF.FilePolarity,Positive*
G04*
G01*
G75*
%ADD10C,0.01000*%
%ADD103C,0.00200*%
D10*
X102362Y169291D02*
Y192913D01*
X78740Y169291D02*
Y192913D01*
X0Y271654D02*
X78740Y192913D01*
X0Y271654D02*
Y362205D01*
Y90551D02*
X78740Y169291D01*
X102362Y192913D02*
X181102Y271654D01*
X102362Y169291D02*
X181102Y90551D01*
X0Y362205D02*
X181102D01*
X0Y0D02*
X181102D01*
Y90551D01*
Y271654D02*
Y362205D01*
X0Y0D02*
Y90551D01*
D103*
X80093Y148706D02*
X83693D01*
X81893Y146906D02*
Y150506D01*
X73022Y141635D02*
X76622D01*
X74822Y139835D02*
Y143435D01*
X65951Y134564D02*
X69551D01*
X67751Y132764D02*
Y136364D01*
X58880Y127493D02*
X62480D01*
X60680Y125693D02*
Y129293D01*
X51809Y120422D02*
X55409D01*
X53609Y118622D02*
Y122222D01*
X44738Y113351D02*
X48338D01*
X46538Y111551D02*
Y115151D01*
X37667Y106280D02*
X41267D01*
X39467Y104480D02*
Y108080D01*
X30596Y99209D02*
X34196D01*
X32396Y97409D02*
Y101009D01*
X97409Y32396D02*
X101009D01*
X99209Y30596D02*
Y34196D01*
X146907Y81893D02*
X150507D01*
X148707Y80093D02*
Y83693D01*
X139836Y74822D02*
X143436D01*
X141636Y73022D02*
Y76622D01*
X132764Y67751D02*
X136364D01*
X134564Y65951D02*
Y69551D01*
X125693Y60680D02*
X129293D01*
X127493Y58880D02*
Y62480D01*
X118622Y53609D02*
X122222D01*
X120422Y51809D02*
Y55409D01*
X111551Y46538D02*
X115151D01*
X113351Y44738D02*
Y48338D01*
X104480Y39467D02*
X108080D01*
X106280Y37667D02*
Y41267D01*
X80093Y329809D02*
X83693D01*
X81893Y328009D02*
Y331609D01*
X73022Y322738D02*
X76622D01*
X74822Y320938D02*
Y324538D01*
X65951Y315667D02*
X69551D01*
X67751Y313867D02*
Y317467D01*
X58880Y308596D02*
X62480D01*
X60680Y306796D02*
Y310396D01*
X51809Y301525D02*
X55409D01*
X53609Y299725D02*
Y303325D01*
X44738Y294454D02*
X48338D01*
X46538Y292653D02*
Y296253D01*
X37667Y287382D02*
X41267D01*
X39467Y285582D02*
Y289182D01*
X30596Y280311D02*
X34196D01*
X32396Y278511D02*
Y282111D01*
X97409Y213498D02*
X101009D01*
X99209Y211698D02*
Y215298D01*
X146907Y262996D02*
X150507D01*
X148707Y261196D02*
Y264796D01*
X139836Y255925D02*
X143436D01*
X141636Y254124D02*
Y257724D01*
X132764Y248853D02*
X136364D01*
X134564Y247054D02*
Y250654D01*
X125693Y241782D02*
X129293D01*
X127493Y239982D02*
Y243582D01*
X118622Y234711D02*
X122222D01*
X120422Y232911D02*
Y236511D01*
X111551Y227640D02*
X115151D01*
X113351Y225840D02*
Y229440D01*
X104480Y220569D02*
X108080D01*
X106280Y218769D02*
Y222369D01*
X155167Y342520D02*
X167667D01*
X161417Y336270D02*
Y348770D01*
X170017Y342520D02*
X174017D01*
X172017Y340520D02*
Y344520D01*
X164717Y333340D02*
X168717D01*
X166717Y331340D02*
Y335340D01*
X154117Y333340D02*
X158117D01*
X156117Y331340D02*
Y335340D01*
X148817Y342520D02*
X152817D01*
X150817Y340520D02*
Y344520D01*
X154117Y351700D02*
X158117D01*
X156117Y349700D02*
Y353700D01*
X164717Y351700D02*
X168717D01*
X166717Y349700D02*
Y353700D01*
X13435Y342520D02*
X25935D01*
X19685Y336270D02*
Y348770D01*
X28285Y342520D02*
X32285D01*
X30285Y340520D02*
Y344520D01*
X22985Y333340D02*
X26985D01*
X24985Y331340D02*
Y335340D01*
X12385Y333340D02*
X16385D01*
X14385Y331340D02*
Y335340D01*
X7085Y342520D02*
X11085D01*
X9085Y340520D02*
Y344520D01*
X12385Y351700D02*
X16385D01*
X14385Y349700D02*
Y353700D01*
X22985Y351700D02*
X26985D01*
X24985Y349700D02*
Y353700D01*
X155167Y19685D02*
X167667D01*
X161417Y13435D02*
Y25935D01*
X170017Y19685D02*
X174017D01*
X172017Y17685D02*
Y21685D01*
X164717Y10505D02*
X168717D01*
X166717Y8505D02*
Y12505D01*
X154117Y10505D02*
X158117D01*
X156117Y8505D02*
Y12505D01*
X148817Y19685D02*
X152817D01*
X150817Y17685D02*
Y21685D01*
X154117Y28865D02*
X158117D01*
X156117Y26865D02*
Y30865D01*
X164717Y28865D02*
X168717D01*
X166717Y26865D02*
Y30865D01*
X13435Y19685D02*
X25935D01*
X19685Y13435D02*
Y25935D01*
X28285Y19685D02*
X32285D01*
X30285Y17685D02*
Y21685D01*
X22985Y10505D02*
X26985D01*
X24985Y8505D02*
Y12505D01*
X12385Y10505D02*
X16385D01*
X14385Y8505D02*
Y12505D01*
X7085Y19685D02*
X11085D01*
X9085Y17685D02*
Y21685D01*
X12385Y28865D02*
X16385D01*
X14385Y26865D02*
Y30865D01*
X22985Y28865D02*
X26985D01*
X24985Y26865D02*
Y30865D01*
X154646Y279213D02*
X158189D01*
X156417Y277441D02*
Y280984D01*
X164646Y279213D02*
X168189D01*
X166417Y277441D02*
Y280984D01*
X154646Y289213D02*
X158189D01*
X156417Y287441D02*
Y290984D01*
X164646Y289213D02*
X168189D01*
X166417Y287441D02*
Y290984D01*
X154646Y299213D02*
X158189D01*
X156417Y297441D02*
Y300984D01*
X164646Y299213D02*
X168189D01*
X166417Y297441D02*
Y300984D01*
X154646Y309213D02*
X158189D01*
X156417Y307441D02*
Y310984D01*
X164646Y309213D02*
X168189D01*
X166417Y307441D02*
Y310984D01*
X154646Y319213D02*
X158189D01*
X156417Y317441D02*
Y320984D01*
X164646Y319213D02*
X168189D01*
X166417Y317441D02*
Y320984D01*
X23326Y41339D02*
X26082D01*
X24704Y39961D02*
Y42717D01*
X23326Y76772D02*
X26082D01*
X24704Y75394D02*
Y78150D01*
X6791Y76772D02*
X9940D01*
X8365Y75197D02*
Y78347D01*
X6791Y41339D02*
X9940D01*
X8365Y39764D02*
Y42913D01*
X21259Y70434D02*
X24212D01*
X22736Y68957D02*
Y71910D01*
X21259Y47678D02*
X24212D01*
X22736Y46201D02*
Y49154D01*
X171457Y50118D02*
X175000D01*
X173228Y48346D02*
Y51890D01*
X171457Y60118D02*
X175000D01*
X173228Y58346D02*
Y61890D01*
X46378Y15748D02*
X49921D01*
X48150Y13976D02*
Y17520D01*
X56378Y15748D02*
X59921D01*
X58150Y13976D02*
Y17520D01*
X88400Y211000D02*
X89600D01*
X89000Y210400D02*
Y211600D01*
X63900Y229000D02*
X65100D01*
X64500Y228400D02*
Y229600D01*
X53900Y239000D02*
X55100D01*
X54500Y238400D02*
Y239600D01*
X116900Y130000D02*
X118100D01*
X117500Y129400D02*
Y130600D01*
X104900Y125000D02*
X106100D01*
X105500Y124400D02*
Y125600D01*
X114900Y26000D02*
X116100D01*
X115500Y25400D02*
Y26600D01*
X114900Y16500D02*
X116100D01*
X115500Y15900D02*
Y17100D01*
X105900Y21500D02*
X107100D01*
X106500Y20900D02*
Y22100D01*
X107900Y259500D02*
X109100D01*
X108500Y258900D02*
Y260100D01*
X36900Y249500D02*
X38100D01*
X37500Y248900D02*
Y250100D01*
X88900Y197000D02*
X90100D01*
X89500Y196400D02*
Y197600D01*
X85900Y281500D02*
X87100D01*
X86500Y280900D02*
Y282100D01*
X77400Y292500D02*
X78600D01*
X78000Y291900D02*
Y293100D01*
X129900Y272500D02*
X131100D01*
X130500Y271900D02*
Y273100D01*
X49900Y266500D02*
X51100D01*
X50500Y265900D02*
Y267100D01*
X47400Y247000D02*
X48600D01*
X48000Y246400D02*
Y247600D01*
X68400Y286000D02*
X69600D01*
X69000Y285400D02*
Y286600D01*
X54400Y294000D02*
X55600D01*
X55000Y293400D02*
Y294600D01*
X104900Y234000D02*
X106100D01*
X105500Y233400D02*
Y234600D01*
X36900Y275500D02*
X38100D01*
X37500Y274900D02*
Y276100D01*
X98400Y121500D02*
X99600D01*
X99000Y120900D02*
Y122100D01*
X86400Y114000D02*
X87600D01*
X87000Y113400D02*
Y114600D01*
X67900Y118000D02*
X69100D01*
X68500Y117400D02*
Y118600D01*
X63400Y112842D02*
X64600D01*
X64000Y112242D02*
Y113442D01*
X106400Y131500D02*
X107600D01*
X107000Y130900D02*
Y132100D01*
X52400Y345000D02*
X53600D01*
X53000Y344400D02*
Y345600D01*
X56900Y339000D02*
X58100D01*
X57500Y338400D02*
Y339600D01*
X116900Y343500D02*
X118100D01*
X117500Y342900D02*
Y344100D01*
X124900Y339500D02*
X126100D01*
X125500Y338900D02*
Y340100D01*
X73400Y351500D02*
X74600D01*
X74000Y350900D02*
Y352100D01*
X135953Y327053D02*
X137153D01*
X136553Y326453D02*
Y327653D01*
X122400Y311000D02*
X123600D01*
X123000Y310400D02*
Y311600D01*
X118400Y314500D02*
X119600D01*
X119000Y313900D02*
Y315100D01*
X112900Y314500D02*
X114100D01*
X113500Y313900D02*
Y315100D01*
X144400Y313500D02*
X145600D01*
X145000Y312900D02*
Y314100D01*
X34503Y49930D02*
X35703D01*
X35103Y49330D02*
Y50530D01*
X34400Y68500D02*
X35600D01*
X35000Y67900D02*
Y69100D01*
X124900Y253000D02*
X126100D01*
X125500Y252400D02*
Y253600D01*
X88900Y248500D02*
X90100D01*
X89500Y247900D02*
Y249100D01*
X105400Y269500D02*
X106600D01*
X106000Y268900D02*
Y270100D01*
X112900Y257000D02*
X114100D01*
X113500Y256400D02*
Y257600D01*
X100400Y313000D02*
X101600D01*
X101000Y312400D02*
Y313600D01*
X85044Y307405D02*
X86244D01*
X85644Y306805D02*
Y308005D01*
X85400Y314000D02*
X86600D01*
X86000Y313400D02*
Y314600D01*
X92900Y215929D02*
X94100D01*
X93500Y215329D02*
Y216529D01*
X73400Y267500D02*
X74600D01*
X74000Y266900D02*
Y268100D01*
X100400Y284500D02*
X101600D01*
X101000Y283900D02*
Y285100D01*
X123900Y272500D02*
X125100D01*
X124500Y271900D02*
Y273100D01*
X116400Y252500D02*
X117600D01*
X117000Y251900D02*
Y253100D01*
X68900Y231500D02*
X70100D01*
X69500Y230900D02*
Y232100D01*
X100400Y307000D02*
X101600D01*
X101000Y306400D02*
Y307600D01*
X105900Y308000D02*
X107100D01*
X106500Y307400D02*
Y308600D01*
X109900Y304000D02*
X111100D01*
X110500Y303400D02*
Y304600D01*
X108900Y299000D02*
X110100D01*
X109500Y298400D02*
Y299600D01*
X111400Y309500D02*
X112600D01*
X112000Y308900D02*
Y310100D01*
X111900Y286322D02*
X113100D01*
X112500Y285722D02*
Y286922D01*
X86400Y289000D02*
X87600D01*
X87000Y288400D02*
Y289600D01*
X63900Y253500D02*
X65100D01*
X64500Y252900D02*
Y254100D01*
X59400Y249500D02*
X60600D01*
X60000Y248900D02*
Y250100D01*
X62400Y276000D02*
X63600D01*
X63000Y275400D02*
Y276600D01*
X94400Y330500D02*
X95600D01*
X95000Y329900D02*
Y331100D01*
X74900Y340500D02*
X76100D01*
X75500Y339900D02*
Y341100D01*
X109400Y335500D02*
X110600D01*
X110000Y334900D02*
Y336100D01*
X78900Y242500D02*
X80100D01*
X79500Y241900D02*
Y243100D01*
X82900Y270000D02*
X84100D01*
X83500Y269400D02*
Y270600D01*
X104400Y319000D02*
X105600D01*
X105000Y318400D02*
Y319600D01*
X138400Y305750D02*
X139600D01*
X139000Y305150D02*
Y306350D01*
X137900Y283500D02*
X139100D01*
X138500Y282900D02*
Y284100D01*
X133400Y310500D02*
X134600D01*
X134000Y309900D02*
Y311100D01*
X130400Y299000D02*
X131600D01*
X131000Y298400D02*
Y299600D01*
X133400Y280500D02*
X134600D01*
X134000Y279900D02*
Y281100D01*
X138400Y10500D02*
X139600D01*
X139000Y9900D02*
Y11100D01*
X12900Y277000D02*
X14100D01*
X13500Y276400D02*
Y277600D01*
X128400Y279000D02*
X129600D01*
X129000Y278400D02*
Y279600D01*
X19138Y297268D02*
X20338D01*
X19738Y296668D02*
Y297868D01*
X25650Y299250D02*
X26850D01*
X26250Y298650D02*
Y299850D01*
X43400Y259000D02*
X44600D01*
X44000Y258400D02*
Y259600D01*
X82400Y138000D02*
X83600D01*
X83000Y137400D02*
Y138600D01*
X84400Y156500D02*
X85600D01*
X85000Y155900D02*
Y157100D01*
X101878Y153522D02*
X103078D01*
X102478Y152922D02*
Y154122D01*
X88400Y97500D02*
X89600D01*
X89000Y96900D02*
Y98100D01*
X113400Y111500D02*
X114600D01*
X114000Y110900D02*
Y112100D01*
X96400Y95500D02*
X97600D01*
X97000Y94900D02*
Y96100D01*
X73900Y237000D02*
X75100D01*
X74500Y236400D02*
Y237600D01*
X65900Y71500D02*
X67100D01*
X66500Y70900D02*
Y72100D01*
X105400Y50500D02*
X106600D01*
X106000Y49900D02*
Y51100D01*
X113400Y62104D02*
X114600D01*
X114000Y61504D02*
Y62704D01*
X79400Y25000D02*
X80600D01*
X80000Y24400D02*
Y25600D01*
X87900Y32500D02*
X89100D01*
X88500Y31900D02*
Y33100D01*
X90900Y38500D02*
X92100D01*
X91500Y37900D02*
Y39100D01*
X63967Y19933D02*
X65167D01*
X64567Y19333D02*
Y20533D01*
X65400Y60500D02*
X66600D01*
X66000Y59900D02*
Y61100D01*
X65900Y66000D02*
X67100D01*
X66500Y65400D02*
Y66600D01*
M02*
