G04*
G04 #@! TF.GenerationSoftware,Altium Limited,Altium Designer,22.1.2 (22)*
G04*
G04 Layer_Physical_Order=3*
G04 Layer_Color=128*
%FSLAX25Y25*%
%MOIN*%
G70*
G04*
G04 #@! TF.SameCoordinates,E0E6910C-23B6-4069-82F0-4F5F9D2AEDD2*
G04*
G04*
G04 #@! TF.FilePolarity,Negative*
G04*
G01*
G75*
%ADD10C,0.01000*%
%ADD35C,0.04000*%
%ADD36C,0.07600*%
%ADD37C,0.16500*%
%ADD38C,0.08000*%
%ADD39C,0.07543*%
G04:AMPARAMS|DCode=40|XSize=95.433mil|YSize=95.433mil|CornerRadius=0mil|HoleSize=0mil|Usage=FLASHONLY|Rotation=0.000|XOffset=0mil|YOffset=0mil|HoleType=Round|Shape=Relief|Width=10mil|Gap=10mil|Entries=4|*
%AMTHD40*
7,0,0,0.09543,0.07543,0.01000,45*
%
%ADD40THD40*%
%ADD43C,0.06953*%
%ADD44C,0.05200*%
G04:AMPARAMS|DCode=45|XSize=72mil|YSize=72mil|CornerRadius=0mil|HoleSize=0mil|Usage=FLASHONLY|Rotation=0.000|XOffset=0mil|YOffset=0mil|HoleType=Round|Shape=Relief|Width=10mil|Gap=10mil|Entries=4|*
%AMTHD45*
7,0,0,0.07200,0.05200,0.01000,45*
%
%ADD45THD45*%
%AMTHOVALD46*
21,1,0.04331,0.08756,0,0,360.0*
1,1,0.08756,-0.02165,0.00000*
1,1,0.08756,0.02165,0.00000*
21,0,0.04331,0.06756,0,0,360.0*
1,0,0.06756,-0.02165,0.00000*
1,0,0.06756,0.02165,0.00000*
4,0,4,-0.01812,-0.00354,-0.04908,-0.03449,-0.05615,-0.02742,-0.02519,0.00354,-0.01812,-0.00354,0.0*
4,0,4,0.02519,-0.00354,0.05615,0.02742,0.04908,0.03449,0.01812,0.00354,0.02519,-0.00354,0.0*
4,0,4,-0.02519,-0.00354,-0.05615,0.02742,-0.04908,0.03449,-0.01812,0.00354,-0.02519,-0.00354,0.0*
4,0,4,0.01812,-0.00354,0.04908,-0.03449,0.05615,-0.02742,0.02519,0.00354,0.01812,-0.00354,0.0*
%
%ADD46THOVALD46*%

%AMTHOVALD47*
21,1,0.03150,0.09150,0,0,360.0*
1,1,0.09150,-0.01575,0.00000*
1,1,0.09150,0.01575,0.00000*
21,0,0.03150,0.07150,0,0,360.0*
1,0,0.07150,-0.01575,0.00000*
1,0,0.07150,0.01575,0.00000*
4,0,4,-0.01221,-0.00354,-0.04456,-0.03588,-0.05163,-0.02881,-0.01928,0.00354,-0.01221,-0.00354,0.0*
4,0,4,0.01928,-0.00354,0.05163,0.02881,0.04456,0.03588,0.01221,0.00354,0.01928,-0.00354,0.0*
4,0,4,-0.01928,-0.00354,-0.05163,0.02881,-0.04456,0.03588,-0.01221,0.00354,-0.01928,-0.00354,0.0*
4,0,4,0.01221,-0.00354,0.04456,-0.03588,0.05163,-0.02881,0.01928,0.00354,0.01221,-0.00354,0.0*
%
%ADD47THOVALD47*%

D10*
X102362Y169291D02*
Y192913D01*
X78740Y169291D02*
Y192913D01*
X0Y271654D02*
X78740Y192913D01*
X0Y271654D02*
Y362205D01*
Y90551D02*
X78740Y169291D01*
X102362Y192913D02*
X181102Y271654D01*
X102362Y169291D02*
X181102Y90551D01*
X0Y362205D02*
X181102D01*
X0Y0D02*
X181102D01*
Y90551D01*
Y271654D02*
Y362205D01*
X0Y0D02*
Y90551D01*
X102362Y169291D02*
Y192913D01*
X78740Y169291D02*
Y192913D01*
X0Y271654D02*
X78740Y192913D01*
X0Y271654D02*
Y362205D01*
Y90551D02*
X78740Y169291D01*
X102362Y192913D02*
X181102Y271654D01*
X102362Y169291D02*
X181102Y90551D01*
X0Y362205D02*
X181102D01*
X0Y0D02*
X181102D01*
Y90551D01*
Y271654D02*
Y362205D01*
X0Y0D02*
Y90551D01*
D35*
Y0D02*
X181102D01*
Y90551D01*
X102362Y169291D02*
X181102Y90551D01*
X102362Y169291D02*
Y192913D01*
X181102Y271654D01*
Y362205D01*
X0D02*
X181102D01*
X0Y271654D02*
Y362205D01*
Y271654D02*
X78740Y192913D01*
Y169291D02*
Y192913D01*
X0Y90551D02*
X78740Y169291D01*
X0Y0D02*
Y90551D01*
D36*
X106280Y39467D02*
D03*
X113351Y46538D02*
D03*
X120422Y53609D02*
D03*
X127493Y60680D02*
D03*
X134564Y67751D02*
D03*
X141636Y74822D02*
D03*
X148707Y81893D02*
D03*
X99209Y32396D02*
D03*
X32396Y99209D02*
D03*
X39467Y106280D02*
D03*
X46538Y113351D02*
D03*
X53609Y120422D02*
D03*
X60680Y127493D02*
D03*
X67751Y134564D02*
D03*
X74822Y141635D02*
D03*
X81893Y148706D02*
D03*
Y329809D02*
D03*
X74822Y322738D02*
D03*
X67751Y315667D02*
D03*
X60680Y308596D02*
D03*
X53609Y301525D02*
D03*
X46538Y294454D02*
D03*
X39467Y287382D02*
D03*
X32396Y280311D02*
D03*
X99209Y213498D02*
D03*
X148707Y262996D02*
D03*
X141636Y255925D02*
D03*
X134564Y248853D02*
D03*
X127493Y241782D02*
D03*
X120422Y234711D02*
D03*
X113351Y227640D02*
D03*
X106280Y220569D02*
D03*
D37*
X161417Y342520D02*
D03*
X19685D02*
D03*
X161417Y19685D02*
D03*
X19685D02*
D03*
D38*
X172017Y342520D02*
D03*
X166717Y333340D02*
D03*
X156117D02*
D03*
X150817Y342520D02*
D03*
X156117Y351700D02*
D03*
X166717D02*
D03*
X30285Y342520D02*
D03*
X24985Y333340D02*
D03*
X14385D02*
D03*
X9085Y342520D02*
D03*
X14385Y351700D02*
D03*
X24985D02*
D03*
X172017Y19685D02*
D03*
X166717Y10505D02*
D03*
X156117D02*
D03*
X150817Y19685D02*
D03*
X156117Y28865D02*
D03*
X166717D02*
D03*
X30285Y19685D02*
D03*
X24985Y10505D02*
D03*
X14385D02*
D03*
X9085Y19685D02*
D03*
X14385Y28865D02*
D03*
X24985D02*
D03*
D39*
X156417Y279213D02*
D03*
X166417D02*
D03*
Y289213D02*
D03*
X156417Y299213D02*
D03*
X166417D02*
D03*
X156417Y309213D02*
D03*
X166417D02*
D03*
X156417Y319213D02*
D03*
X166417D02*
D03*
X173228Y50118D02*
D03*
Y60118D02*
D03*
X58150Y15748D02*
D03*
D40*
X156417Y289213D02*
D03*
X48150Y15748D02*
D03*
D43*
X20373Y70434D02*
D03*
Y47678D02*
D03*
D44*
X125000Y341000D02*
D03*
X89000Y211000D02*
D03*
X54500Y239000D02*
D03*
X117500Y130000D02*
D03*
X105500Y125000D02*
D03*
X115500Y26000D02*
D03*
Y16500D02*
D03*
X108500Y259500D02*
D03*
X37500Y249500D02*
D03*
X89500Y197000D02*
D03*
X86500Y281500D02*
D03*
X78000Y292500D02*
D03*
X130500Y272500D02*
D03*
X50500Y266500D02*
D03*
X48000Y247000D02*
D03*
X69000Y286000D02*
D03*
X55000Y294000D02*
D03*
X37500Y275500D02*
D03*
X99000Y121500D02*
D03*
X87000Y114000D02*
D03*
X68500Y118000D02*
D03*
X64000Y112842D02*
D03*
X107000Y131500D02*
D03*
X53000Y345000D02*
D03*
X57500Y339000D02*
D03*
X123000Y311000D02*
D03*
X119000Y314500D02*
D03*
X113500D02*
D03*
X145000Y313500D02*
D03*
X35103Y49930D02*
D03*
X35000Y68500D02*
D03*
X125500Y253000D02*
D03*
X89500Y248500D02*
D03*
X106000Y269500D02*
D03*
X113500Y257000D02*
D03*
X85644Y307405D02*
D03*
X93500Y215929D02*
D03*
X74000Y267500D02*
D03*
X101000Y284500D02*
D03*
X124500Y272500D02*
D03*
X117000Y252500D02*
D03*
X69500Y231500D02*
D03*
X101000Y307000D02*
D03*
X106500Y308000D02*
D03*
X110500Y304000D02*
D03*
X109500Y299000D02*
D03*
X112000Y309500D02*
D03*
X112500Y286322D02*
D03*
X87000Y289000D02*
D03*
X60000Y249500D02*
D03*
X63000Y276000D02*
D03*
X75500Y340500D02*
D03*
X110000Y335500D02*
D03*
X105000Y319000D02*
D03*
X139000Y305750D02*
D03*
X138500Y283500D02*
D03*
X134000Y310500D02*
D03*
X131000Y299000D02*
D03*
X134000Y280500D02*
D03*
X13500Y277000D02*
D03*
X129000Y279000D02*
D03*
X26250Y299250D02*
D03*
X44000Y259000D02*
D03*
X83000Y138000D02*
D03*
X85000Y156500D02*
D03*
X89000Y97500D02*
D03*
X74500Y237000D02*
D03*
X66500Y71500D02*
D03*
X106000Y50500D02*
D03*
X80000Y25000D02*
D03*
X88500Y32500D02*
D03*
X64567Y19933D02*
D03*
X66000Y60500D02*
D03*
X66500Y66000D02*
D03*
D45*
X109000Y353000D02*
D03*
X137500Y10500D02*
D03*
X64500Y229000D02*
D03*
X106500Y21500D02*
D03*
X105500Y234000D02*
D03*
X74000Y351500D02*
D03*
X136553Y327053D02*
D03*
X101000Y313000D02*
D03*
X86000Y314000D02*
D03*
X64500Y253500D02*
D03*
X95000Y330500D02*
D03*
X79500Y242500D02*
D03*
X83500Y270000D02*
D03*
X19738Y297268D02*
D03*
X102478Y153522D02*
D03*
X114000Y111500D02*
D03*
X97000Y95500D02*
D03*
X114000Y62104D02*
D03*
X91500Y38500D02*
D03*
D46*
X22342Y41339D02*
D03*
Y76772D02*
D03*
D47*
X6003D02*
D03*
Y41339D02*
D03*
M02*
