G04*
G04 #@! TF.GenerationSoftware,Altium Limited,Altium Designer,23.4.1 (23)*
G04*
G04 Layer_Color=65535*
%FSLAX25Y25*%
%MOIN*%
G70*
G04*
G04 #@! TF.SameCoordinates,3896D8D6-2970-4D3B-BD07-924AED3B3DE0*
G04*
G04*
G04 #@! TF.FilePolarity,Positive*
G04*
G01*
G75*
%ADD10C,0.01000*%
%ADD11C,0.01200*%
G36*
X135728Y50875D02*
X137843Y48761D01*
X132341Y43260D01*
X130227Y45374D01*
X135728Y50875D01*
D01*
D02*
G37*
G36*
Y231978D02*
X137843Y229864D01*
X132341Y224362D01*
X130227Y226477D01*
X135728Y231978D01*
D01*
D02*
G37*
D10*
X93051Y9941D02*
G03*
X93051Y9941I-2500J0D01*
G01*
Y191043D02*
G03*
X93051Y191043I-2500J0D01*
G01*
X1467Y90551D02*
X90551Y1467D01*
X90551Y1467D02*
X179635Y90551D01*
X1467D02*
X90551Y179635D01*
X90551Y179635D02*
X179635Y90551D01*
X135728Y50875D02*
X137843Y48761D01*
X130227Y45374D02*
X135728Y50875D01*
X130227Y45374D02*
X132341Y43260D01*
X130227Y226477D02*
X132341Y224362D01*
X130227Y226477D02*
X135728Y231978D01*
X137843Y229864D01*
X90551Y360737D02*
X179635Y271654D01*
X1467Y271654D02*
X90551Y360738D01*
X90551Y182570D02*
X179635Y271654D01*
X1467Y271654D02*
X90551Y182570D01*
X102362Y169291D02*
Y192913D01*
X78740Y169291D02*
Y192913D01*
X0Y271654D02*
X78740Y192913D01*
X0Y271654D02*
Y362205D01*
Y90551D02*
X78740Y169291D01*
X102362Y192913D02*
X181102Y271654D01*
X102362Y169291D02*
X181102Y90551D01*
X0Y362205D02*
X181102D01*
X0Y0D02*
X181102D01*
Y90551D01*
Y271654D02*
Y362205D01*
X0Y0D02*
Y90551D01*
D11*
X21244Y312784D02*
X25486Y308542D01*
X21244Y312784D02*
X27102Y310158D01*
X24476Y316016D02*
X27102Y310158D01*
X24476Y316016D02*
X28718Y311774D01*
X29526Y318238D02*
X32354Y315410D01*
X30132Y317632D02*
X29324D01*
X28718Y317430D01*
X28112Y316824D01*
X27910Y316218D01*
Y315410D01*
X28314Y314602D01*
X28718Y314198D01*
X29526Y313794D01*
X30334D01*
X30940Y313996D01*
X31546Y314602D01*
X31748Y315208D01*
Y316016D01*
X30657Y319369D02*
X35707Y318763D01*
X32879Y321591D02*
X33485Y316541D01*
X32354Y323893D02*
X36595Y319652D01*
X32354Y323893D02*
X33768Y325307D01*
X34576Y325711D01*
X35383Y325711D01*
X35989Y325509D01*
X36797Y325105D01*
X37807Y324095D01*
X38211Y323287D01*
X38413Y322681D01*
Y321873D01*
X38009Y321066D01*
X36595Y319652D01*
X36131Y327671D02*
X39767Y327267D01*
X41988Y325045D01*
X39363Y330902D02*
X39767Y327267D01*
X40312Y331852D02*
X40716D01*
Y332256D01*
X40312Y332256D01*
X40312Y331852D01*
X41928Y330640D02*
X44756Y327812D01*
M02*
