G04*
G04 #@! TF.GenerationSoftware,Altium Limited,Altium Designer,22.1.2 (22)*
G04*
G04 Layer_Color=16711935*
%FSLAX25Y25*%
%MOIN*%
G70*
G04*
G04 #@! TF.SameCoordinates,5FD4367D-7DE5-4249-9820-C709AC44DA9B*
G04*
G04*
G04 #@! TF.FilePolarity,Negative*
G04*
G01*
G75*
%ADD10C,0.01000*%
%ADD12C,0.06800*%
%ADD13C,0.30800*%
%ADD14C,0.04800*%
%ADD15R,0.07099X0.07099*%
%ADD16C,0.07099*%
%ADD17O,0.09855X0.05524*%
%ADD18O,0.08674X0.05524*%
%ADD19C,0.03753*%
%ADD20R,0.07493X0.07493*%
%ADD21C,0.07493*%
G04:AMPARAMS|DCode=71|XSize=43.43mil|YSize=41.47mil|CornerRadius=0mil|HoleSize=0mil|Usage=FLASHONLY|Rotation=135.000|XOffset=0mil|YOffset=0mil|HoleType=Round|Shape=Rectangle|*
%AMROTATEDRECTD71*
4,1,4,0.03002,-0.00070,0.00070,-0.03002,-0.03002,0.00070,-0.00070,0.03002,0.03002,-0.00070,0.0*
%
%ADD71ROTATEDRECTD71*%

%ADD72R,0.05328X0.01981*%
%ADD73R,0.05320X0.01980*%
G04:AMPARAMS|DCode=74|XSize=43.43mil|YSize=41.47mil|CornerRadius=0mil|HoleSize=0mil|Usage=FLASHONLY|Rotation=225.000|XOffset=0mil|YOffset=0mil|HoleType=Round|Shape=Rectangle|*
%AMROTATEDRECTD74*
4,1,4,0.00070,0.03002,0.03002,0.00070,-0.00070,-0.03002,-0.03002,-0.00070,0.00070,0.03002,0.0*
%
%ADD74ROTATEDRECTD74*%

%ADD75R,0.04343X0.04147*%
%ADD76R,0.03800X0.03800*%
G04:AMPARAMS|DCode=77|XSize=86.74mil|YSize=67.06mil|CornerRadius=0mil|HoleSize=0mil|Usage=FLASHONLY|Rotation=135.000|XOffset=0mil|YOffset=0mil|HoleType=Round|Shape=Rectangle|*
%AMROTATEDRECTD77*
4,1,4,0.05438,-0.00696,0.00696,-0.05438,-0.05438,0.00696,-0.00696,0.05438,0.05438,-0.00696,0.0*
%
%ADD77ROTATEDRECTD77*%

G04:AMPARAMS|DCode=78|XSize=102.49mil|YSize=94.61mil|CornerRadius=0mil|HoleSize=0mil|Usage=FLASHONLY|Rotation=135.000|XOffset=0mil|YOffset=0mil|HoleType=Round|Shape=Rectangle|*
%AMROTATEDRECTD78*
4,1,4,0.06969,-0.00278,0.00278,-0.06969,-0.06969,0.00278,-0.00278,0.06969,0.06969,-0.00278,0.0*
%
%ADD78ROTATEDRECTD78*%

G04:AMPARAMS|DCode=79|XSize=19.81mil|YSize=78.87mil|CornerRadius=0mil|HoleSize=0mil|Usage=FLASHONLY|Rotation=225.000|XOffset=0mil|YOffset=0mil|HoleType=Round|Shape=Round|*
%AMOVALD79*
21,1,0.05906,0.01981,0.00000,0.00000,315.0*
1,1,0.01981,-0.02088,0.02088*
1,1,0.01981,0.02088,-0.02088*
%
%ADD79OVALD79*%

G04:AMPARAMS|DCode=80|XSize=19.81mil|YSize=78.87mil|CornerRadius=0mil|HoleSize=0mil|Usage=FLASHONLY|Rotation=315.000|XOffset=0mil|YOffset=0mil|HoleType=Round|Shape=Round|*
%AMOVALD80*
21,1,0.05906,0.01981,0.00000,0.00000,45.0*
1,1,0.01981,-0.02088,-0.02088*
1,1,0.01981,0.02088,0.02088*
%
%ADD80OVALD80*%

%ADD81R,0.04202X0.05800*%
%ADD82R,0.04200X0.10800*%
%ADD83O,0.08800X0.15800*%
G04:AMPARAMS|DCode=84|XSize=88mil|YSize=32mil|CornerRadius=0mil|HoleSize=0mil|Usage=FLASHONLY|Rotation=135.000|XOffset=0mil|YOffset=0mil|HoleType=Round|Shape=Round|*
%AMOVALD84*
21,1,0.05600,0.03200,0.00000,0.00000,135.0*
1,1,0.03200,0.01980,-0.01980*
1,1,0.03200,-0.01980,0.01980*
%
%ADD84OVALD84*%

%ADD85R,0.04147X0.04343*%
%ADD86P,0.15051X4X180.0*%
G04:AMPARAMS|DCode=87|XSize=19.81mil|YSize=47.37mil|CornerRadius=0mil|HoleSize=0mil|Usage=FLASHONLY|Rotation=135.000|XOffset=0mil|YOffset=0mil|HoleType=Round|Shape=Rectangle|*
%AMROTATEDRECTD87*
4,1,4,0.02375,0.00974,-0.00974,-0.02375,-0.02375,-0.00974,0.00974,0.02375,0.02375,0.00974,0.0*
%
%ADD87ROTATEDRECTD87*%

G04:AMPARAMS|DCode=88|XSize=19.81mil|YSize=47.37mil|CornerRadius=0mil|HoleSize=0mil|Usage=FLASHONLY|Rotation=45.000|XOffset=0mil|YOffset=0mil|HoleType=Round|Shape=Rectangle|*
%AMROTATEDRECTD88*
4,1,4,0.00974,-0.02375,-0.02375,0.00974,-0.00974,0.02375,0.02375,-0.00974,0.00974,-0.02375,0.0*
%
%ADD88ROTATEDRECTD88*%

%ADD89R,0.05918X0.03162*%
%ADD90R,0.04737X0.03950*%
G04:AMPARAMS|DCode=91|XSize=47.37mil|YSize=39.5mil|CornerRadius=0mil|HoleSize=0mil|Usage=FLASHONLY|Rotation=0.000|XOffset=0mil|YOffset=0mil|HoleType=Round|Shape=Octagon|*
%AMOCTAGOND91*
4,1,8,0.02368,-0.00987,0.02368,0.00987,0.01381,0.01975,-0.01381,0.01975,-0.02368,0.00987,-0.02368,-0.00987,-0.01381,-0.01975,0.01381,-0.01975,0.02368,-0.00987,0.0*
%
%ADD91OCTAGOND91*%

%ADD92R,0.10300X0.12800*%
%ADD93O,0.07887X0.03200*%
D10*
X102362Y169291D02*
Y192913D01*
X78740Y169291D02*
Y192913D01*
X0Y271654D02*
X78740Y192913D01*
X0Y271654D02*
Y362205D01*
Y90551D02*
X78740Y169291D01*
X102362Y192913D02*
X181102Y271654D01*
X102362Y169291D02*
X181102Y90551D01*
X0Y362205D02*
X181102D01*
X0Y0D02*
X181102D01*
Y90551D01*
Y271654D02*
Y362205D01*
X0Y0D02*
Y90551D01*
X102362Y169291D02*
Y192913D01*
X78740Y169291D02*
Y192913D01*
X0Y271654D02*
X78740Y192913D01*
X0Y271654D02*
Y362205D01*
Y90551D02*
X78740Y169291D01*
X102362Y192913D02*
X181102Y271654D01*
X102362Y169291D02*
X181102Y90551D01*
X0Y362205D02*
X181102D01*
X0Y0D02*
X181102D01*
Y90551D01*
Y271654D02*
Y362205D01*
X0Y0D02*
Y90551D01*
D12*
X106280Y39467D02*
D03*
X113351Y46538D02*
D03*
X120422Y53609D02*
D03*
X127493Y60680D02*
D03*
X134564Y67751D02*
D03*
X141635Y74822D02*
D03*
X148706Y81893D02*
D03*
X99209Y32396D02*
D03*
X32396Y99209D02*
D03*
X39467Y106280D02*
D03*
X46538Y113351D02*
D03*
X53609Y120422D02*
D03*
X60680Y127493D02*
D03*
X67751Y134564D02*
D03*
X74822Y141635D02*
D03*
X81893Y148706D02*
D03*
Y329809D02*
D03*
X74822Y322738D02*
D03*
X67751Y315667D02*
D03*
X60680Y308596D02*
D03*
X53609Y301525D02*
D03*
X46538Y294454D02*
D03*
X39467Y287382D02*
D03*
X32396Y280311D02*
D03*
X99209Y213498D02*
D03*
X148706Y262996D02*
D03*
X141635Y255925D02*
D03*
X134564Y248854D02*
D03*
X127493Y241782D02*
D03*
X120422Y234712D02*
D03*
X113351Y227640D02*
D03*
X106280Y220569D02*
D03*
D13*
X161417Y342520D02*
D03*
X19685D02*
D03*
X161417Y19685D02*
D03*
X19685D02*
D03*
D14*
X172017Y342520D02*
D03*
X166717Y333340D02*
D03*
X156117D02*
D03*
X150817Y342520D02*
D03*
X156117Y351700D02*
D03*
X166717D02*
D03*
X30285Y342520D02*
D03*
X24985Y333340D02*
D03*
X14385D02*
D03*
X9085Y342520D02*
D03*
X14385Y351700D02*
D03*
X24985D02*
D03*
X172017Y19685D02*
D03*
X166717Y10505D02*
D03*
X156117D02*
D03*
X150817Y19685D02*
D03*
X156117Y28865D02*
D03*
X166717D02*
D03*
X30285Y19685D02*
D03*
X24985Y10505D02*
D03*
X14385D02*
D03*
X9085Y19685D02*
D03*
X14385Y28865D02*
D03*
X24985D02*
D03*
D15*
X156417Y279213D02*
D03*
D16*
X166417D02*
D03*
X156417Y289213D02*
D03*
X166417D02*
D03*
X156417Y299213D02*
D03*
X166417D02*
D03*
X156417Y309213D02*
D03*
X166417D02*
D03*
X156417Y319213D02*
D03*
X166417D02*
D03*
D17*
X22342Y41338D02*
D03*
X22342Y76771D02*
D03*
D18*
X6003Y76772D02*
D03*
X6003Y41339D02*
D03*
D19*
X20373Y70434D02*
D03*
Y47678D02*
D03*
D20*
X173228Y50118D02*
D03*
X58150Y15748D02*
D03*
D21*
X173228Y60118D02*
D03*
X48150Y15748D02*
D03*
D71*
X116343Y342157D02*
D03*
X120658Y337842D02*
D03*
X108157Y252343D02*
D03*
X103842Y256658D02*
D03*
X130157Y328343D02*
D03*
X125842Y332658D02*
D03*
X139657Y318843D02*
D03*
X135342Y323158D02*
D03*
X67315Y348685D02*
D03*
X63000Y353000D02*
D03*
X93157Y292843D02*
D03*
X88842Y297158D02*
D03*
X79843Y306157D02*
D03*
X84158Y301842D02*
D03*
X82657Y212343D02*
D03*
X78342Y216658D02*
D03*
X23433Y275779D02*
D03*
X27748Y271464D02*
D03*
X103657Y247843D02*
D03*
X99342Y252158D02*
D03*
X73657Y221343D02*
D03*
X69342Y225658D02*
D03*
D72*
X25491Y72244D02*
D03*
Y71063D02*
D03*
X25491Y69095D02*
D03*
Y67913D02*
D03*
X25491Y65945D02*
D03*
Y62008D02*
D03*
X25485Y60039D02*
D03*
X25491Y58071D02*
D03*
X25484Y56102D02*
D03*
X25493Y54134D02*
D03*
X25475Y50197D02*
D03*
Y49016D02*
D03*
X25485Y47047D02*
D03*
Y45866D02*
D03*
D73*
X25491Y63976D02*
D03*
X25491Y52166D02*
D03*
D74*
X111500Y239500D02*
D03*
X115815Y243815D02*
D03*
X115343Y280843D02*
D03*
X119658Y285158D02*
D03*
X112657Y348657D02*
D03*
X108342Y344342D02*
D03*
X103657Y339657D02*
D03*
X99342Y335342D02*
D03*
X80843Y348343D02*
D03*
X85158Y352658D02*
D03*
X87157Y322657D02*
D03*
X82842Y318342D02*
D03*
X17118Y290347D02*
D03*
X12803Y286032D02*
D03*
X21843Y285622D02*
D03*
X17528Y281307D02*
D03*
X78929Y133653D02*
D03*
X74614Y129338D02*
D03*
D75*
X131595Y33858D02*
D03*
X137697D02*
D03*
X40256Y62205D02*
D03*
X46359D02*
D03*
X40256Y55905D02*
D03*
X46359D02*
D03*
X75689Y31496D02*
D03*
X81792D02*
D03*
X75689Y37795D02*
D03*
X81792D02*
D03*
X46358Y49606D02*
D03*
X40256D02*
D03*
X46358Y68504D02*
D03*
X40256D02*
D03*
X75689Y44094D02*
D03*
X81792D02*
D03*
X97539D02*
D03*
X91437D02*
D03*
X118996Y33858D02*
D03*
X125099D02*
D03*
X90650Y159843D02*
D03*
X96752D02*
D03*
X90650Y153543D02*
D03*
X96752D02*
D03*
D76*
X137646Y40157D02*
D03*
X131646D02*
D03*
X92500Y5905D02*
D03*
X86500D02*
D03*
X72500Y5906D02*
D03*
X78500D02*
D03*
D77*
X45540Y352960D02*
D03*
X67568Y330821D02*
D03*
D78*
X99360Y351328D02*
D03*
X89616Y341585D02*
D03*
D79*
X91306Y314643D02*
D03*
X92698Y316035D02*
D03*
X94090Y317427D02*
D03*
X95482Y318818D02*
D03*
X96874Y320210D02*
D03*
X98265Y321602D02*
D03*
X99657Y322994D02*
D03*
X101049Y324386D02*
D03*
X102441Y325778D02*
D03*
X103833Y327170D02*
D03*
X105225Y328562D02*
D03*
X106617Y329954D02*
D03*
X129167Y307405D02*
D03*
X127775Y306013D02*
D03*
X126383Y304621D02*
D03*
X124991Y303229D02*
D03*
X123599Y301837D02*
D03*
X122207Y300445D02*
D03*
X120815Y299053D02*
D03*
X119423Y297661D02*
D03*
X118031Y296269D02*
D03*
X116639Y294877D02*
D03*
X115247Y293485D02*
D03*
X113855Y292093D02*
D03*
D80*
Y329954D02*
D03*
X115247Y328562D02*
D03*
X116639Y327170D02*
D03*
X118031Y325778D02*
D03*
X119423Y324386D02*
D03*
X120815Y322994D02*
D03*
X122207Y321602D02*
D03*
X123599Y320210D02*
D03*
X124991Y318818D02*
D03*
X126383Y317426D02*
D03*
X127775Y316035D02*
D03*
X129167Y314643D02*
D03*
X106617Y292093D02*
D03*
X105225Y293485D02*
D03*
X103833Y294877D02*
D03*
X102441Y296269D02*
D03*
X101049Y297661D02*
D03*
X99657Y299053D02*
D03*
X98265Y300445D02*
D03*
X96874Y301837D02*
D03*
X95482Y303229D02*
D03*
X94090Y304621D02*
D03*
X92698Y306013D02*
D03*
X91306Y307405D02*
D03*
D81*
X131984Y10301D02*
D03*
X119984D02*
D03*
D82*
X125984Y12801D02*
D03*
D83*
Y21195D02*
D03*
D84*
X72939Y300597D02*
D03*
X69404Y297061D02*
D03*
X65869Y293526D02*
D03*
X62333Y289990D02*
D03*
X58797Y286455D02*
D03*
X55262Y282919D02*
D03*
X51726Y279384D02*
D03*
X48191Y275848D02*
D03*
X44655Y272313D02*
D03*
X41120Y268777D02*
D03*
X37584Y265242D02*
D03*
X34049Y261706D02*
D03*
X60919Y234836D02*
D03*
X64454Y238372D02*
D03*
X67990Y241907D02*
D03*
X71525Y245443D02*
D03*
X75061Y248978D02*
D03*
X78596Y252514D02*
D03*
X82132Y256049D02*
D03*
X85668Y259585D02*
D03*
X89203Y263120D02*
D03*
X92738Y266656D02*
D03*
X96274Y270191D02*
D03*
X99810Y273727D02*
D03*
X131306Y116247D02*
D03*
X127770Y112711D02*
D03*
X124235Y109176D02*
D03*
X120699Y105640D02*
D03*
X117164Y102104D02*
D03*
X113628Y98569D02*
D03*
X110092Y95033D02*
D03*
X106557Y91498D02*
D03*
X103021Y87962D02*
D03*
X99486Y84427D02*
D03*
X95950Y80891D02*
D03*
X92415Y77356D02*
D03*
X65545Y104226D02*
D03*
X69080Y107761D02*
D03*
X72616Y111297D02*
D03*
X76151Y114832D02*
D03*
X79687Y118368D02*
D03*
X83222Y121904D02*
D03*
X86758Y125439D02*
D03*
X90294Y128974D02*
D03*
X93829Y132510D02*
D03*
X97364Y136046D02*
D03*
X100900Y139581D02*
D03*
X104436Y143117D02*
D03*
D85*
X43307Y38484D02*
D03*
Y32382D02*
D03*
X106299Y59941D02*
D03*
Y66044D02*
D03*
Y8760D02*
D03*
Y14863D02*
D03*
D86*
X90551Y232283D02*
D03*
D87*
X99947Y234719D02*
D03*
X98555Y236111D02*
D03*
X97163Y237503D02*
D03*
X95771Y238895D02*
D03*
X94379Y240287D02*
D03*
X92987Y241679D02*
D03*
X81156Y229848D02*
D03*
X82547Y228456D02*
D03*
X83939Y227064D02*
D03*
X85331Y225672D02*
D03*
X86723Y224280D02*
D03*
X88115Y222888D02*
D03*
D88*
X88115Y241679D02*
D03*
X86723Y240287D02*
D03*
X85331Y238895D02*
D03*
X83939Y237503D02*
D03*
X82547Y236111D02*
D03*
X81156Y234719D02*
D03*
X92987Y222888D02*
D03*
X94379Y224280D02*
D03*
X95771Y225672D02*
D03*
X97163Y227064D02*
D03*
X98555Y228456D02*
D03*
X99947Y229848D02*
D03*
D89*
X54921Y51181D02*
D03*
X63189Y47441D02*
D03*
Y54921D02*
D03*
D90*
X53543Y31496D02*
D03*
Y39370D02*
D03*
D91*
X64567Y31496D02*
D03*
Y39370D02*
D03*
D92*
X86614Y59055D02*
D03*
D93*
X76181Y51555D02*
D03*
Y56555D02*
D03*
Y61555D02*
D03*
Y66555D02*
D03*
X97047Y51555D02*
D03*
Y56555D02*
D03*
Y61555D02*
D03*
Y66555D02*
D03*
M02*
