G04*
G04 #@! TF.GenerationSoftware,Altium Limited,Altium Designer,23.4.1 (23)*
G04*
G04 Layer_Physical_Order=1*
G04 Layer_Color=255*
%FSLAX25Y25*%
%MOIN*%
G70*
G04*
G04 #@! TF.SameCoordinates,F4368ACF-6DCD-49CB-89D3-828AB3F38D71*
G04*
G04*
G04 #@! TF.FilePolarity,Positive*
G04*
G01*
G75*
%ADD10C,0.01000*%
%ADD17C,0.01500*%
%ADD18C,0.01200*%
%ADD19C,0.30000*%
%ADD20C,0.06000*%
%ADD21R,0.06693X0.06693*%
%ADD22C,0.06693*%
%ADD23C,0.04000*%
%ADD24O,0.07082X0.04331*%
%ADD25C,0.02400*%
G36*
X100277Y315635D02*
X100288Y315628D01*
X100232Y315063D01*
X99754Y314865D01*
X99135Y314246D01*
X98826Y313500D01*
X103174D01*
X102865Y314246D01*
X102335Y314776D01*
X102439Y315193D01*
X102488Y315277D01*
X104493D01*
X106546Y313224D01*
X106339Y312723D01*
X105500D01*
X105032Y312630D01*
X104635Y312365D01*
X101460Y309191D01*
X101438Y309200D01*
X100562D01*
X99754Y308865D01*
X99135Y308246D01*
X98800Y307438D01*
Y306562D01*
X99135Y305754D01*
X99754Y305135D01*
X100562Y304800D01*
X100863D01*
X101070Y304300D01*
X89835Y293065D01*
X89570Y292668D01*
X89477Y292200D01*
Y290077D01*
X88977Y289977D01*
X88865Y290246D01*
X88376Y290735D01*
Y299000D01*
X88376Y299000D01*
X88272Y299527D01*
X87973Y299973D01*
X80376Y307570D01*
Y314680D01*
X82973Y317277D01*
X83272Y317723D01*
X83376Y318250D01*
Y326065D01*
X83437Y326081D01*
X84349Y326608D01*
X85094Y327353D01*
X85621Y328265D01*
X85893Y329282D01*
Y329365D01*
X86355Y329556D01*
X100277Y315635D01*
D02*
G37*
G36*
X180481Y272618D02*
X102069Y194206D01*
X101826Y193843D01*
X101741Y193413D01*
X101741Y193413D01*
Y169791D01*
X101741Y169791D01*
X101826Y169362D01*
X102069Y168998D01*
X180481Y90587D01*
Y1622D01*
X1622D01*
Y90587D01*
X80033Y168998D01*
X80033Y168998D01*
X80276Y169362D01*
X80362Y169791D01*
Y193413D01*
X80362Y193413D01*
X80276Y193843D01*
X80033Y194206D01*
X80033Y194207D01*
X77578Y196662D01*
X77769Y197124D01*
X89265D01*
X89754Y196635D01*
X90562Y196300D01*
X91438D01*
X92246Y196635D01*
X92865Y197254D01*
X93200Y198062D01*
Y198938D01*
X92865Y199746D01*
X92246Y200365D01*
X91438Y200700D01*
X90562D01*
X89754Y200365D01*
X89265Y199876D01*
X77570D01*
X76385Y201062D01*
X76576Y201524D01*
X100930D01*
X101457Y201628D01*
X101903Y201927D01*
X149680Y249703D01*
X149680Y249703D01*
X149978Y250150D01*
X150083Y250676D01*
X150083Y250676D01*
Y259223D01*
X150250Y259268D01*
X151163Y259795D01*
X151907Y260540D01*
X152434Y261452D01*
X152707Y262469D01*
Y263522D01*
X152434Y264540D01*
X151907Y265452D01*
X151163Y266196D01*
X150250Y266723D01*
X149233Y266996D01*
X148180D01*
X147162Y266723D01*
X146250Y266196D01*
X145506Y265452D01*
X144979Y264540D01*
X144706Y263522D01*
Y262469D01*
X144979Y261452D01*
X145506Y260540D01*
X146250Y259795D01*
X147162Y259268D01*
X147330Y259223D01*
Y251247D01*
X143474Y247390D01*
X143012Y247582D01*
Y252152D01*
X143179Y252197D01*
X144091Y252724D01*
X144836Y253469D01*
X145363Y254381D01*
X145635Y255398D01*
Y256451D01*
X145363Y257469D01*
X144836Y258381D01*
X144091Y259125D01*
X143179Y259652D01*
X142162Y259925D01*
X141109D01*
X140092Y259652D01*
X139179Y259125D01*
X138435Y258381D01*
X137908Y257469D01*
X137635Y256451D01*
Y255398D01*
X137908Y254381D01*
X138435Y253469D01*
X139179Y252724D01*
X140092Y252197D01*
X140259Y252152D01*
Y247145D01*
X99490Y206377D01*
X77298D01*
X73374Y210300D01*
X73581Y210800D01*
X73938D01*
X74746Y211135D01*
X75365Y211754D01*
X75674Y212500D01*
X73500D01*
Y213000D01*
X73000D01*
Y215174D01*
X72254Y214865D01*
X71635Y214246D01*
X71300Y213438D01*
Y213081D01*
X70800Y212874D01*
X61376Y222298D01*
Y247765D01*
X61865Y248254D01*
X62200Y249062D01*
Y249938D01*
X61865Y250746D01*
X61246Y251365D01*
X60438Y251700D01*
X59562D01*
X58754Y251365D01*
X58135Y250746D01*
X57800Y249938D01*
Y249062D01*
X58135Y248254D01*
X58624Y247765D01*
Y222734D01*
X58162Y222543D01*
X47876Y232828D01*
Y246688D01*
X51315Y250126D01*
X51776Y249934D01*
Y241875D01*
X51754Y241865D01*
X51135Y241246D01*
X50800Y240438D01*
Y239562D01*
X51135Y238754D01*
X51754Y238135D01*
X52562Y237800D01*
X53438D01*
X54246Y238135D01*
X54865Y238754D01*
X55200Y239562D01*
Y240438D01*
X54865Y241246D01*
X54246Y241865D01*
X54224Y241875D01*
Y250493D01*
X63007Y259277D01*
X68012D01*
X68061Y259193D01*
X68165Y258776D01*
X67635Y258246D01*
X67300Y257438D01*
Y256562D01*
X67635Y255754D01*
X68124Y255265D01*
Y243158D01*
X62527Y237561D01*
X62228Y237114D01*
X62124Y236588D01*
Y226500D01*
X62228Y225973D01*
X62527Y225527D01*
X66527Y221527D01*
X66973Y221228D01*
X67500Y221124D01*
X67500Y221124D01*
X78500D01*
X79027Y221228D01*
X79473Y221527D01*
X98070Y240124D01*
X113064D01*
X116781Y236406D01*
X116695Y236255D01*
X116422Y235238D01*
Y234185D01*
X116695Y233168D01*
X117221Y232255D01*
X117966Y231511D01*
X118878Y230984D01*
X119896Y230712D01*
X120949D01*
X121966Y230984D01*
X122878Y231511D01*
X123623Y232255D01*
X124150Y233168D01*
X124422Y234185D01*
Y235238D01*
X124150Y236255D01*
X123623Y237168D01*
X122878Y237912D01*
X121966Y238439D01*
X120949Y238712D01*
X119896D01*
X118878Y238439D01*
X118728Y238352D01*
X114607Y242473D01*
X114160Y242772D01*
X113634Y242877D01*
X97500D01*
X97500Y242877D01*
X96973Y242772D01*
X96527Y242473D01*
X77930Y223877D01*
X68070D01*
X64876Y227070D01*
Y236017D01*
X70473Y241614D01*
X70772Y242061D01*
X70876Y242588D01*
Y255265D01*
X71365Y255754D01*
X71700Y256562D01*
Y257438D01*
X71365Y258246D01*
X70835Y258776D01*
X70939Y259193D01*
X70988Y259277D01*
X81000D01*
X81468Y259370D01*
X81865Y259635D01*
X91565Y269335D01*
X91830Y269732D01*
X91923Y270200D01*
Y278193D01*
X92386Y278384D01*
X95635Y275135D01*
X96032Y274870D01*
X96500Y274777D01*
X110993D01*
X115777Y269993D01*
Y258488D01*
X115693Y258439D01*
X115277Y258335D01*
X114746Y258865D01*
X113938Y259200D01*
X113062D01*
X112254Y258865D01*
X111635Y258246D01*
X111300Y257438D01*
Y256562D01*
X111635Y255754D01*
X112254Y255135D01*
X112276Y255125D01*
Y251155D01*
X111874Y250944D01*
X111792Y250933D01*
X107376Y255348D01*
Y255930D01*
X109247Y257800D01*
X109938D01*
X110746Y258135D01*
X111365Y258754D01*
X111700Y259562D01*
Y260438D01*
X111365Y261246D01*
X110746Y261865D01*
X109938Y262200D01*
X109062D01*
X108254Y261865D01*
X107635Y261246D01*
X107300Y260438D01*
Y259747D01*
X105027Y257473D01*
X104728Y257027D01*
X104624Y256500D01*
Y254778D01*
X104728Y254252D01*
X105027Y253805D01*
X118023Y240809D01*
X118469Y240511D01*
X118996Y240406D01*
X123721D01*
X123766Y240239D01*
X124293Y239327D01*
X125037Y238582D01*
X125949Y238055D01*
X126967Y237783D01*
X128020D01*
X129037Y238055D01*
X129949Y238582D01*
X130694Y239327D01*
X131221Y240239D01*
X131493Y241256D01*
Y242309D01*
X131221Y243326D01*
X130694Y244239D01*
X129949Y244983D01*
X129037Y245510D01*
X128020Y245782D01*
X126967D01*
X125949Y245510D01*
X125037Y244983D01*
X124293Y244239D01*
X123766Y243326D01*
X123721Y243159D01*
X119566D01*
X115436Y247289D01*
X115447Y247372D01*
X115658Y247774D01*
X118997D01*
X119465Y247867D01*
X119862Y248132D01*
X121865Y250135D01*
X122130Y250532D01*
X122223Y251000D01*
Y269046D01*
X122130Y269514D01*
X121865Y269911D01*
X113882Y277894D01*
X114061Y278422D01*
X114315Y278455D01*
X121135Y271635D01*
X121532Y271370D01*
X122000Y271276D01*
X122626D01*
X122635Y271254D01*
X123254Y270635D01*
X124062Y270300D01*
X124938D01*
X125746Y270635D01*
X126365Y271254D01*
X126700Y272062D01*
Y272938D01*
X126365Y273746D01*
X125746Y274365D01*
X124938Y274700D01*
X124062D01*
X123254Y274365D01*
X122635Y273746D01*
X122233Y273997D01*
X115565Y280665D01*
X115168Y280930D01*
X114700Y281024D01*
X100207D01*
X98224Y283007D01*
Y285993D01*
X100507Y288277D01*
X105500D01*
X105923Y288361D01*
X105952Y288338D01*
X106061Y287791D01*
X103993Y285723D01*
X102875D01*
X102865Y285746D01*
X102246Y286365D01*
X101438Y286700D01*
X100562D01*
X99754Y286365D01*
X99135Y285746D01*
X98800Y284938D01*
Y284062D01*
X99135Y283254D01*
X99754Y282635D01*
X100562Y282300D01*
X101438D01*
X102246Y282635D01*
X102865Y283254D01*
X102875Y283277D01*
X104500D01*
X104968Y283370D01*
X105365Y283635D01*
X116865Y295135D01*
X117130Y295532D01*
X117224Y296000D01*
Y302625D01*
X117246Y302635D01*
X117865Y303254D01*
X118200Y304062D01*
Y304938D01*
X117865Y305746D01*
X117246Y306365D01*
X116438Y306700D01*
X115562D01*
X115040Y306484D01*
X114754Y306365D01*
X114365Y306662D01*
X113662Y307365D01*
X113612Y308000D01*
X113865Y308254D01*
X114200Y309062D01*
Y309938D01*
X113865Y310746D01*
X113246Y311365D01*
X112438Y311700D01*
X111562D01*
X111540Y311691D01*
X106493Y316737D01*
X106524Y317413D01*
X106865Y317754D01*
X106875Y317776D01*
X156493D01*
X159276Y314993D01*
Y301243D01*
X159370Y300774D01*
X159635Y300377D01*
X160380Y299632D01*
X160300Y299438D01*
Y298562D01*
X160635Y297754D01*
X161254Y297135D01*
X162062Y296800D01*
X162938D01*
X163746Y297135D01*
X164365Y297754D01*
X164700Y298562D01*
Y299438D01*
X164365Y300246D01*
X163746Y300865D01*
X162938Y301200D01*
X162273D01*
X161723Y301749D01*
Y315500D01*
X161630Y315968D01*
X161365Y316365D01*
X157865Y319865D01*
X157468Y320130D01*
X157000Y320223D01*
X106875D01*
X106865Y320246D01*
X106246Y320865D01*
X105438Y321200D01*
X104562D01*
X103754Y320865D01*
X103135Y320246D01*
X103126Y320223D01*
X102007D01*
X94392Y327838D01*
X94488Y328098D01*
X94500Y328114D01*
Y330000D01*
X92614D01*
X92598Y329988D01*
X92338Y329892D01*
X80865Y341365D01*
X80468Y341630D01*
X80000Y341723D01*
X77375D01*
X77365Y341746D01*
X76746Y342365D01*
X75938Y342700D01*
X75062D01*
X74254Y342365D01*
X73635Y341746D01*
X73300Y340938D01*
Y340062D01*
X73635Y339254D01*
X74254Y338635D01*
X75062Y338300D01*
X75938D01*
X76746Y338635D01*
X77365Y339254D01*
X77375Y339277D01*
X79493D01*
X82084Y336685D01*
X81893Y336224D01*
X80500D01*
X80032Y336130D01*
X79635Y335865D01*
X74493Y330724D01*
X56500D01*
X56032Y330630D01*
X55635Y330365D01*
X26710Y301441D01*
X26688Y301450D01*
X25812D01*
X25004Y301115D01*
X24385Y300496D01*
X24050Y299688D01*
Y298812D01*
X24385Y298004D01*
X25004Y297385D01*
X25812Y297050D01*
X26688D01*
X27496Y297385D01*
X28115Y298004D01*
X28450Y298812D01*
Y299688D01*
X28441Y299710D01*
X57007Y328276D01*
X75000D01*
X75468Y328370D01*
X75865Y328635D01*
X77393Y330163D01*
X77893Y329956D01*
Y329282D01*
X78166Y328265D01*
X78693Y327353D01*
X79437Y326608D01*
X80349Y326081D01*
X80624Y326008D01*
Y318820D01*
X78027Y316223D01*
X77728Y315777D01*
X77624Y315250D01*
Y307000D01*
X77728Y306473D01*
X78027Y306027D01*
X85624Y298430D01*
Y290735D01*
X85135Y290246D01*
X84800Y289438D01*
Y288562D01*
X85135Y287754D01*
X85754Y287135D01*
X86562Y286800D01*
X87438D01*
X88246Y287135D01*
X88865Y287754D01*
X88977Y288023D01*
X89477Y287923D01*
Y270707D01*
X80493Y261723D01*
X63566D01*
X63374Y262185D01*
X67312Y266124D01*
X72265D01*
X72754Y265635D01*
X73562Y265300D01*
X74438D01*
X75246Y265635D01*
X75865Y266254D01*
X76200Y267062D01*
Y267938D01*
X75865Y268746D01*
X75246Y269365D01*
X74438Y269700D01*
X73562D01*
X72754Y269365D01*
X72265Y268877D01*
X66742D01*
X66215Y268772D01*
X65769Y268473D01*
X45527Y248231D01*
X45228Y247784D01*
X45124Y247258D01*
Y232976D01*
X44662Y232785D01*
X42376Y235070D01*
Y246930D01*
X53973Y258527D01*
X54272Y258973D01*
X54376Y259500D01*
Y266265D01*
X54865Y266754D01*
X55200Y267562D01*
Y268438D01*
X54865Y269246D01*
X54246Y269865D01*
X53438Y270200D01*
X52562D01*
X51754Y269865D01*
X51135Y269246D01*
X50800Y268438D01*
Y267562D01*
X51135Y266754D01*
X51624Y266265D01*
Y260070D01*
X40027Y248473D01*
X39728Y248027D01*
X39624Y247500D01*
Y235269D01*
X39162Y235078D01*
X1622Y272618D01*
Y361583D01*
X180481D01*
Y272618D01*
D02*
G37*
%LPC*%
G36*
X86500Y316174D02*
Y314500D01*
X88174D01*
X87865Y315246D01*
X87246Y315865D01*
X86500Y316174D01*
D02*
G37*
G36*
X85500D02*
X84754Y315865D01*
X84135Y315246D01*
X83826Y314500D01*
X85500D01*
Y316174D01*
D02*
G37*
G36*
X88174Y313500D02*
X86500D01*
Y311826D01*
X87246Y312135D01*
X87865Y312754D01*
X88174Y313500D01*
D02*
G37*
G36*
X85500D02*
X83826D01*
X84135Y312754D01*
X84754Y312135D01*
X85500Y311826D01*
Y313500D01*
D02*
G37*
G36*
X103174Y312500D02*
X101500D01*
Y310826D01*
X102246Y311135D01*
X102865Y311754D01*
X103174Y312500D01*
D02*
G37*
G36*
X100500D02*
X98826D01*
X99135Y311754D01*
X99754Y311135D01*
X100500Y310826D01*
Y312500D01*
D02*
G37*
G36*
X86081Y309605D02*
X85206D01*
X84398Y309270D01*
X83779Y308651D01*
X83444Y307842D01*
Y306967D01*
X83779Y306158D01*
X84398Y305539D01*
X85206Y305205D01*
X86081D01*
X86890Y305539D01*
X87509Y306158D01*
X87844Y306967D01*
Y307842D01*
X87509Y308651D01*
X86890Y309270D01*
X86081Y309605D01*
D02*
G37*
G36*
X74408Y358674D02*
Y357000D01*
X76082D01*
X75773Y357746D01*
X75154Y358365D01*
X74408Y358674D01*
D02*
G37*
G36*
X73408D02*
X72662Y358365D01*
X72043Y357746D01*
X71734Y357000D01*
X73408D01*
Y358674D01*
D02*
G37*
G36*
X108500Y357174D02*
Y355500D01*
X110174D01*
X109865Y356246D01*
X109246Y356865D01*
X108500Y357174D01*
D02*
G37*
G36*
X107500D02*
X106754Y356865D01*
X106135Y356246D01*
X105826Y355500D01*
X107500D01*
Y357174D01*
D02*
G37*
G36*
X76082Y356000D02*
X74408D01*
Y354326D01*
X75154Y354635D01*
X75773Y355254D01*
X76082Y356000D01*
D02*
G37*
G36*
X73408D02*
X71734D01*
X72043Y355254D01*
X72662Y354635D01*
X73408Y354326D01*
Y356000D01*
D02*
G37*
G36*
X110174Y354500D02*
X108500D01*
Y352826D01*
X109246Y353135D01*
X109865Y353754D01*
X110174Y354500D01*
D02*
G37*
G36*
X107500D02*
X105826D01*
X106135Y353754D01*
X106754Y353135D01*
X107500Y352826D01*
Y354500D01*
D02*
G37*
G36*
X110438Y337700D02*
X109562D01*
X108754Y337365D01*
X108135Y336746D01*
X107800Y335938D01*
Y335062D01*
X108135Y334254D01*
X108754Y333635D01*
X109562Y333300D01*
X110438D01*
X111246Y333635D01*
X111865Y334254D01*
X112200Y335062D01*
Y335938D01*
X111865Y336746D01*
X111246Y337365D01*
X110438Y337700D01*
D02*
G37*
G36*
X95500Y332674D02*
Y331000D01*
X97174D01*
X96865Y331746D01*
X96246Y332365D01*
X95500Y332674D01*
D02*
G37*
G36*
X94500D02*
X93754Y332365D01*
X93135Y331746D01*
X92826Y331000D01*
X94500D01*
Y332674D01*
D02*
G37*
G36*
X138000Y330174D02*
Y328500D01*
X139674D01*
X139365Y329246D01*
X138746Y329865D01*
X138000Y330174D01*
D02*
G37*
G36*
X137000D02*
X136254Y329865D01*
X135635Y329246D01*
X135326Y328500D01*
X137000D01*
Y330174D01*
D02*
G37*
G36*
X97174Y330000D02*
X95500D01*
Y328326D01*
X96246Y328635D01*
X96865Y329254D01*
X97174Y330000D01*
D02*
G37*
G36*
X162677Y358520D02*
X160158D01*
X157671Y358126D01*
X155275Y357347D01*
X153032Y356204D01*
X150994Y354724D01*
X149213Y352943D01*
X147733Y350905D01*
X146590Y348662D01*
X145811Y346266D01*
X145417Y343779D01*
Y341261D01*
X145811Y338773D01*
X146590Y336378D01*
X147733Y334134D01*
X149213Y332096D01*
X150994Y330316D01*
X153032Y328835D01*
X155275Y327692D01*
X157671Y326914D01*
X160158Y326520D01*
X162677D01*
X165164Y326914D01*
X167559Y327692D01*
X169803Y328835D01*
X171841Y330316D01*
X173621Y332096D01*
X175102Y334134D01*
X176245Y336378D01*
X177023Y338773D01*
X177417Y341261D01*
Y343779D01*
X177023Y346266D01*
X176245Y348662D01*
X175102Y350905D01*
X173621Y352943D01*
X171841Y354724D01*
X169803Y356204D01*
X167559Y357347D01*
X165164Y358126D01*
X162677Y358520D01*
D02*
G37*
G36*
X20944D02*
X18426D01*
X15938Y358126D01*
X13543Y357347D01*
X11299Y356204D01*
X9262Y354724D01*
X7481Y352943D01*
X6001Y350905D01*
X4857Y348662D01*
X4079Y346266D01*
X3685Y343779D01*
Y341261D01*
X4079Y338773D01*
X4857Y336378D01*
X6001Y334134D01*
X7481Y332096D01*
X9262Y330316D01*
X11299Y328835D01*
X13543Y327692D01*
X15938Y326914D01*
X18426Y326520D01*
X20944D01*
X23432Y326914D01*
X25827Y327692D01*
X28071Y328835D01*
X30108Y330316D01*
X31889Y332096D01*
X33369Y334134D01*
X34513Y336378D01*
X35291Y338773D01*
X35685Y341261D01*
Y343779D01*
X35291Y346266D01*
X34513Y348662D01*
X33369Y350905D01*
X31889Y352943D01*
X30108Y354724D01*
X28071Y356204D01*
X25827Y357347D01*
X23432Y358126D01*
X20944Y358520D01*
D02*
G37*
G36*
X139674Y327500D02*
X138000D01*
Y325826D01*
X138746Y326135D01*
X139365Y326754D01*
X139674Y327500D01*
D02*
G37*
G36*
X137000D02*
X135326D01*
X135635Y326754D01*
X136254Y326135D01*
X137000Y325826D01*
Y327500D01*
D02*
G37*
G36*
X144499Y315816D02*
X143623D01*
X142815Y315481D01*
X142196Y314862D01*
X141861Y314054D01*
Y313179D01*
X142196Y312370D01*
X142815Y311751D01*
X143623Y311416D01*
X144499D01*
X145307Y311751D01*
X145926Y312370D01*
X146261Y313179D01*
Y314054D01*
X145926Y314862D01*
X145307Y315481D01*
X144499Y315816D01*
D02*
G37*
G36*
X61207Y312596D02*
X60154D01*
X59136Y312323D01*
X58224Y311796D01*
X57479Y311052D01*
X56953Y310140D01*
X56680Y309122D01*
Y308069D01*
X56953Y307052D01*
X57479Y306140D01*
X58224Y305395D01*
X59136Y304868D01*
X60154Y304596D01*
X61207D01*
X62224Y304868D01*
X63136Y305395D01*
X63881Y306140D01*
X64408Y307052D01*
X64680Y308069D01*
Y309122D01*
X64408Y310140D01*
X63881Y311052D01*
X63136Y311796D01*
X62224Y312323D01*
X61207Y312596D01*
D02*
G37*
G36*
X54136Y305525D02*
X53083D01*
X52065Y305252D01*
X51153Y304725D01*
X50408Y303981D01*
X49882Y303068D01*
X49837Y302901D01*
X40525D01*
X40525Y302901D01*
X39998Y302796D01*
X39551Y302498D01*
X39551Y302498D01*
X24527Y287473D01*
X24228Y287027D01*
X24124Y286500D01*
Y277500D01*
X24228Y276973D01*
X24527Y276527D01*
X41800Y259253D01*
Y258562D01*
X42135Y257754D01*
X42754Y257135D01*
X43562Y256800D01*
X44438D01*
X45246Y257135D01*
X45865Y257754D01*
X46200Y258562D01*
Y259438D01*
X45865Y260246D01*
X45246Y260865D01*
X44438Y261200D01*
X43747D01*
X26876Y278070D01*
Y285930D01*
X41095Y300148D01*
X49837D01*
X49882Y299981D01*
X50408Y299068D01*
X51153Y298324D01*
X52065Y297797D01*
X53083Y297525D01*
X54136D01*
X55153Y297797D01*
X56065Y298324D01*
X56810Y299068D01*
X57336Y299981D01*
X57609Y300998D01*
Y302051D01*
X57336Y303068D01*
X56810Y303981D01*
X56065Y304725D01*
X55153Y305252D01*
X54136Y305525D01*
D02*
G37*
G36*
X20238Y299442D02*
Y297768D01*
X21912D01*
X21603Y298514D01*
X20984Y299133D01*
X20238Y299442D01*
D02*
G37*
G36*
X19238D02*
X18492Y299133D01*
X17873Y298514D01*
X17564Y297768D01*
X19238D01*
Y299442D01*
D02*
G37*
G36*
X21912Y296768D02*
X20238D01*
Y295094D01*
X20984Y295403D01*
X21603Y296022D01*
X21912Y296768D01*
D02*
G37*
G36*
X19238D02*
X17564D01*
X17873Y296022D01*
X18492Y295403D01*
X19238Y295094D01*
Y296768D01*
D02*
G37*
G36*
X75349Y326738D02*
X74296D01*
X73278Y326465D01*
X72366Y325939D01*
X71622Y325194D01*
X71095Y324282D01*
X70822Y323264D01*
Y322211D01*
X71095Y321194D01*
X71622Y320282D01*
X72366Y319537D01*
X73278Y319010D01*
X73446Y318966D01*
Y295678D01*
X73551Y295151D01*
X73849Y294704D01*
X75300Y293253D01*
Y292562D01*
X75635Y291754D01*
X76254Y291135D01*
X77062Y290800D01*
X77938D01*
X78746Y291135D01*
X79365Y291754D01*
X79700Y292562D01*
Y293438D01*
X79365Y294246D01*
X78746Y294865D01*
X77938Y295200D01*
X77247D01*
X76199Y296248D01*
Y318966D01*
X76366Y319010D01*
X77278Y319537D01*
X78023Y320282D01*
X78550Y321194D01*
X78822Y322211D01*
Y323264D01*
X78550Y324282D01*
X78023Y325194D01*
X77278Y325939D01*
X76366Y326465D01*
X75349Y326738D01*
D02*
G37*
G36*
X47065Y298453D02*
X46011D01*
X44994Y298181D01*
X44082Y297654D01*
X43337Y296909D01*
X42811Y295997D01*
X42538Y294980D01*
Y293927D01*
X42811Y292910D01*
X43337Y291997D01*
X44082Y291253D01*
X44994Y290726D01*
X46011Y290454D01*
X47065D01*
X48082Y290726D01*
X48994Y291253D01*
X49739Y291997D01*
X50265Y292910D01*
X50538Y293927D01*
Y294980D01*
X50265Y295997D01*
X49739Y296909D01*
X48994Y297654D01*
X48082Y298181D01*
X47065Y298453D01*
D02*
G37*
G36*
X158500Y291174D02*
Y289500D01*
X160174D01*
X159865Y290246D01*
X159246Y290865D01*
X158500Y291174D01*
D02*
G37*
G36*
X157500D02*
X156754Y290865D01*
X156135Y290246D01*
X155826Y289500D01*
X157500D01*
Y291174D01*
D02*
G37*
G36*
X160174Y288500D02*
X158500D01*
Y286826D01*
X159246Y287135D01*
X159865Y287754D01*
X160174Y288500D01*
D02*
G37*
G36*
X157500D02*
X155826D01*
X156135Y287754D01*
X156754Y287135D01*
X157500Y286826D01*
Y288500D01*
D02*
G37*
G36*
X134438Y312700D02*
X133562D01*
X132754Y312365D01*
X132135Y311746D01*
X131800Y310938D01*
Y310062D01*
X131809Y310040D01*
X126135Y304365D01*
X125870Y303968D01*
X125777Y303500D01*
Y281243D01*
X125870Y280774D01*
X126135Y280378D01*
X126881Y279632D01*
X126800Y279438D01*
Y278562D01*
X127135Y277754D01*
X127754Y277135D01*
X128562Y276800D01*
X129438D01*
X130246Y277135D01*
X130865Y277754D01*
X131200Y278562D01*
Y279438D01*
X130865Y280246D01*
X130246Y280865D01*
X129438Y281200D01*
X128773D01*
X128224Y281749D01*
Y302993D01*
X133540Y308309D01*
X133562Y308300D01*
X134363D01*
X134512Y308098D01*
X134608Y307838D01*
X130135Y303365D01*
X129870Y302968D01*
X129777Y302500D01*
Y300874D01*
X129754Y300865D01*
X129135Y300246D01*
X128800Y299438D01*
Y298562D01*
X129135Y297754D01*
X129754Y297135D01*
X130562Y296800D01*
X131438D01*
X132246Y297135D01*
X132865Y297754D01*
X133200Y298562D01*
Y299438D01*
X132865Y300246D01*
X132246Y300865D01*
X132223Y300874D01*
Y301993D01*
X136300Y306070D01*
X136800Y305863D01*
Y305312D01*
X137135Y304504D01*
X137754Y303885D01*
X137777Y303875D01*
Y301507D01*
X133135Y296865D01*
X132870Y296468D01*
X132776Y296000D01*
Y282375D01*
X132754Y282365D01*
X132135Y281746D01*
X131800Y280938D01*
Y280062D01*
X132135Y279254D01*
X132754Y278635D01*
X133562Y278300D01*
X134438D01*
X135246Y278635D01*
X135865Y279254D01*
X136200Y280062D01*
Y280938D01*
X135865Y281746D01*
X135246Y282365D01*
X135223Y282375D01*
Y295493D01*
X139865Y300135D01*
X140130Y300532D01*
X140224Y301000D01*
Y303875D01*
X140246Y303885D01*
X140865Y304504D01*
X141200Y305312D01*
Y306157D01*
X141299Y306252D01*
X141627Y306463D01*
X141777Y306353D01*
Y288507D01*
X138960Y285691D01*
X138938Y285700D01*
X138062D01*
X137254Y285365D01*
X136635Y284746D01*
X136300Y283938D01*
Y283062D01*
X136635Y282254D01*
X137254Y281635D01*
X138062Y281300D01*
X138938D01*
X139746Y281635D01*
X140365Y282254D01*
X140700Y283062D01*
Y283938D01*
X140691Y283960D01*
X143865Y287135D01*
X144130Y287532D01*
X144223Y288000D01*
Y307000D01*
X144130Y307468D01*
X143865Y307865D01*
X141365Y310365D01*
X140968Y310630D01*
X140500Y310723D01*
X138000D01*
X137532Y310630D01*
X137135Y310365D01*
X136662Y309892D01*
X136402Y309988D01*
X136200Y310137D01*
Y310938D01*
X135865Y311746D01*
X135246Y312365D01*
X134438Y312700D01*
D02*
G37*
G36*
X112938Y288522D02*
X112062D01*
X111254Y288187D01*
X110635Y287569D01*
X110300Y286760D01*
Y285885D01*
X110635Y285076D01*
X111254Y284457D01*
X112062Y284122D01*
X112938D01*
X113746Y284457D01*
X114365Y285076D01*
X114700Y285885D01*
Y286760D01*
X114365Y287569D01*
X113746Y288187D01*
X112938Y288522D01*
D02*
G37*
G36*
X39994Y291382D02*
X38940D01*
X37923Y291110D01*
X37011Y290583D01*
X36266Y289839D01*
X35740Y288926D01*
X35467Y287909D01*
Y286856D01*
X35740Y285839D01*
X36266Y284926D01*
X37011Y284182D01*
X37923Y283655D01*
X38940Y283382D01*
X39994D01*
X41011Y283655D01*
X41923Y284182D01*
X42668Y284926D01*
X43194Y285839D01*
X43467Y286856D01*
Y287909D01*
X43194Y288926D01*
X42668Y289839D01*
X41923Y290583D01*
X41011Y291110D01*
X39994Y291382D01*
D02*
G37*
G36*
X55938Y296700D02*
X55062D01*
X54254Y296365D01*
X53635Y295746D01*
X53300Y294938D01*
Y294247D01*
X40741Y281688D01*
X36168D01*
X36123Y281855D01*
X35597Y282767D01*
X34852Y283512D01*
X33940Y284039D01*
X32923Y284311D01*
X31869D01*
X30852Y284039D01*
X29940Y283512D01*
X29195Y282767D01*
X28668Y281855D01*
X28396Y280838D01*
Y279785D01*
X28668Y278767D01*
X29195Y277855D01*
X29940Y277111D01*
X30852Y276584D01*
X31869Y276311D01*
X32923D01*
X33940Y276584D01*
X34852Y277111D01*
X35597Y277855D01*
X36123Y278767D01*
X36168Y278935D01*
X41311D01*
X41838Y279040D01*
X42285Y279338D01*
X55247Y292300D01*
X55938D01*
X56746Y292635D01*
X57365Y293254D01*
X57700Y294062D01*
Y294938D01*
X57365Y295746D01*
X56746Y296365D01*
X55938Y296700D01*
D02*
G37*
G36*
X69438Y286700D02*
X68562D01*
X67754Y286365D01*
X67135Y285746D01*
X66800Y284938D01*
Y284062D01*
X67135Y283254D01*
X67754Y282635D01*
X68562Y282300D01*
X69253D01*
X72027Y279527D01*
X72027Y279527D01*
X72473Y279228D01*
X73000Y279123D01*
X84265D01*
X84754Y278635D01*
X85562Y278300D01*
X86438D01*
X87246Y278635D01*
X87865Y279254D01*
X88200Y280062D01*
Y280938D01*
X87865Y281746D01*
X87246Y282365D01*
X86438Y282700D01*
X85562D01*
X84754Y282365D01*
X84265Y281876D01*
X73570D01*
X71200Y284247D01*
Y284938D01*
X70865Y285746D01*
X70246Y286365D01*
X69438Y286700D01*
D02*
G37*
G36*
X13938Y279200D02*
X13062D01*
X12254Y278865D01*
X11635Y278246D01*
X11300Y277438D01*
Y276562D01*
X11635Y275754D01*
X12254Y275135D01*
X13062Y274800D01*
X13938D01*
X14746Y275135D01*
X15365Y275754D01*
X15700Y276562D01*
Y277438D01*
X15365Y278246D01*
X14746Y278865D01*
X13938Y279200D01*
D02*
G37*
G36*
X63438Y278200D02*
X62562D01*
X61754Y277865D01*
X61135Y277246D01*
X60800Y276438D01*
Y275562D01*
X61135Y274754D01*
X61754Y274135D01*
X62562Y273800D01*
X63438D01*
X64246Y274135D01*
X64865Y274754D01*
X65200Y275562D01*
Y276438D01*
X64865Y277246D01*
X64246Y277865D01*
X63438Y278200D01*
D02*
G37*
G36*
X84000Y272174D02*
Y270500D01*
X85674D01*
X85365Y271246D01*
X84746Y271865D01*
X84000Y272174D01*
D02*
G37*
G36*
X83000D02*
X82254Y271865D01*
X81635Y271246D01*
X81326Y270500D01*
X83000D01*
Y272174D01*
D02*
G37*
G36*
X85674Y269500D02*
X84000D01*
Y267826D01*
X84746Y268135D01*
X85365Y268754D01*
X85674Y269500D01*
D02*
G37*
G36*
X83000D02*
X81326D01*
X81635Y268754D01*
X82254Y268135D01*
X83000Y267826D01*
Y269500D01*
D02*
G37*
G36*
X68278Y319667D02*
X67225D01*
X66207Y319394D01*
X65295Y318867D01*
X64550Y318123D01*
X64024Y317211D01*
X63751Y316193D01*
Y315140D01*
X64024Y314123D01*
X64550Y313211D01*
X65295Y312466D01*
X66207Y311939D01*
X66375Y311894D01*
Y297321D01*
X47527Y278473D01*
X47228Y278027D01*
X47124Y277500D01*
Y263235D01*
X46635Y262746D01*
X46300Y261938D01*
Y261062D01*
X46635Y260254D01*
X47254Y259635D01*
X48062Y259300D01*
X48938D01*
X49746Y259635D01*
X50365Y260254D01*
X50700Y261062D01*
Y261938D01*
X50365Y262746D01*
X49876Y263235D01*
Y276930D01*
X68725Y295778D01*
X69023Y296224D01*
X69128Y296751D01*
Y311894D01*
X69295Y311939D01*
X70207Y312466D01*
X70952Y313211D01*
X71479Y314123D01*
X71751Y315140D01*
Y316193D01*
X71479Y317211D01*
X70952Y318123D01*
X70207Y318867D01*
X69295Y319394D01*
X68278Y319667D01*
D02*
G37*
G36*
X65000Y255674D02*
Y254000D01*
X66674D01*
X66365Y254746D01*
X65746Y255365D01*
X65000Y255674D01*
D02*
G37*
G36*
X64000D02*
X63254Y255365D01*
X62635Y254746D01*
X62326Y254000D01*
X64000D01*
Y255674D01*
D02*
G37*
G36*
X66674Y253000D02*
X65000D01*
Y251326D01*
X65746Y251635D01*
X66365Y252254D01*
X66674Y253000D01*
D02*
G37*
G36*
X64000D02*
X62326D01*
X62635Y252254D01*
X63254Y251635D01*
X64000Y251326D01*
Y253000D01*
D02*
G37*
G36*
X125938Y255200D02*
X125062D01*
X124254Y254865D01*
X123635Y254246D01*
X123300Y253438D01*
Y252562D01*
X123635Y251754D01*
X124254Y251135D01*
X125062Y250800D01*
X125938D01*
X126746Y251135D01*
X127365Y251754D01*
X127700Y252562D01*
Y253438D01*
X127365Y254246D01*
X126746Y254865D01*
X125938Y255200D01*
D02*
G37*
G36*
X89938Y250700D02*
X89062D01*
X88254Y250365D01*
X87635Y249746D01*
X87300Y248938D01*
Y248062D01*
X87635Y247254D01*
X88254Y246635D01*
X89062Y246300D01*
X89938D01*
X90746Y246635D01*
X91365Y247254D01*
X91700Y248062D01*
Y248938D01*
X91365Y249746D01*
X90746Y250365D01*
X89938Y250700D01*
D02*
G37*
G36*
X132438Y270700D02*
X131562D01*
X130754Y270365D01*
X130135Y269746D01*
X129800Y268938D01*
Y268062D01*
X130135Y267254D01*
X130754Y266635D01*
X131562Y266300D01*
X132253D01*
X133188Y265366D01*
Y252626D01*
X133020Y252581D01*
X132108Y252054D01*
X131363Y251310D01*
X130837Y250397D01*
X130564Y249380D01*
Y248327D01*
X130837Y247310D01*
X131363Y246397D01*
X132108Y245653D01*
X133020Y245126D01*
X134038Y244854D01*
X135091D01*
X136108Y245126D01*
X137020Y245653D01*
X137765Y246397D01*
X138292Y247310D01*
X138564Y248327D01*
Y249380D01*
X138292Y250397D01*
X137765Y251310D01*
X137020Y252054D01*
X136108Y252581D01*
X135941Y252626D01*
Y265936D01*
X135836Y266462D01*
X135538Y266909D01*
X135538Y266909D01*
X134200Y268247D01*
Y268938D01*
X133865Y269746D01*
X133246Y270365D01*
X132438Y270700D01*
D02*
G37*
G36*
X80000Y244674D02*
Y243000D01*
X81674D01*
X81365Y243746D01*
X80746Y244365D01*
X80000Y244674D01*
D02*
G37*
G36*
X79000D02*
X78254Y244365D01*
X77635Y243746D01*
X77326Y243000D01*
X79000D01*
Y244674D01*
D02*
G37*
G36*
X81674Y242000D02*
X80000D01*
Y240326D01*
X80746Y240635D01*
X81365Y241254D01*
X81674Y242000D01*
D02*
G37*
G36*
X79000D02*
X77326D01*
X77635Y241254D01*
X78254Y240635D01*
X79000Y240326D01*
Y242000D01*
D02*
G37*
G36*
X74938Y239200D02*
X74062D01*
X73254Y238865D01*
X72635Y238246D01*
X72300Y237438D01*
Y236562D01*
X72635Y235754D01*
X73254Y235135D01*
X74062Y234800D01*
X74938D01*
X75746Y235135D01*
X76365Y235754D01*
X76700Y236562D01*
Y237438D01*
X76365Y238246D01*
X75746Y238865D01*
X74938Y239200D01*
D02*
G37*
G36*
X106438Y271700D02*
X105562D01*
X104754Y271365D01*
X104135Y270746D01*
X103800Y269938D01*
Y269062D01*
X104135Y268254D01*
X104754Y267635D01*
X105176Y267460D01*
Y265407D01*
X94635Y254865D01*
X94370Y254468D01*
X94276Y254000D01*
Y248007D01*
X78993Y232723D01*
X71374D01*
X71365Y232746D01*
X70746Y233365D01*
X69938Y233700D01*
X69062D01*
X68254Y233365D01*
X67635Y232746D01*
X67300Y231938D01*
Y231062D01*
X67635Y230254D01*
X68254Y229635D01*
X69062Y229300D01*
X69938D01*
X70746Y229635D01*
X71365Y230254D01*
X71374Y230276D01*
X79500D01*
X79968Y230370D01*
X80365Y230635D01*
X96365Y246635D01*
X96630Y247032D01*
X96724Y247500D01*
Y253493D01*
X107265Y264035D01*
X107530Y264432D01*
X107624Y264900D01*
Y268012D01*
X107865Y268254D01*
X108200Y269062D01*
Y269938D01*
X107865Y270746D01*
X107246Y271365D01*
X106438Y271700D01*
D02*
G37*
G36*
X105443Y234336D02*
Y232662D01*
X107117D01*
X106808Y233408D01*
X106189Y234027D01*
X105443Y234336D01*
D02*
G37*
G36*
X104443D02*
X103696Y234027D01*
X103078Y233408D01*
X102769Y232662D01*
X104443D01*
Y234336D01*
D02*
G37*
G36*
X107117Y231662D02*
X105443D01*
Y229987D01*
X106189Y230296D01*
X106808Y230915D01*
X107117Y231662D01*
D02*
G37*
G36*
X104443D02*
X102769D01*
X103078Y230915D01*
X103696Y230296D01*
X104443Y229987D01*
Y231662D01*
D02*
G37*
G36*
X113878Y231640D02*
X112824D01*
X111807Y231368D01*
X110895Y230841D01*
X110150Y230096D01*
X109624Y229184D01*
X109579Y229017D01*
X105211D01*
X105211Y229017D01*
X104684Y228912D01*
X104238Y228614D01*
X104238Y228614D01*
X93753Y218129D01*
X93062D01*
X92254Y217794D01*
X91635Y217176D01*
X91300Y216367D01*
Y215492D01*
X91635Y214683D01*
X92254Y214064D01*
X93062Y213729D01*
X93938D01*
X94746Y214064D01*
X95209Y213820D01*
Y212972D01*
X95482Y211954D01*
X96008Y211042D01*
X96753Y210297D01*
X97665Y209771D01*
X98682Y209498D01*
X99736D01*
X100753Y209771D01*
X101665Y210297D01*
X102410Y211042D01*
X102936Y211954D01*
X103209Y212972D01*
Y214025D01*
X102936Y215042D01*
X102410Y215954D01*
X101665Y216699D01*
X100753Y217226D01*
X99736Y217498D01*
X98682D01*
X97665Y217226D01*
X97156Y216932D01*
X96849Y217332D01*
X102446Y222929D01*
X102846Y222622D01*
X102553Y222113D01*
X102280Y221096D01*
Y220043D01*
X102553Y219025D01*
X103079Y218113D01*
X103824Y217369D01*
X104736Y216842D01*
X105753Y216569D01*
X106807D01*
X107824Y216842D01*
X108736Y217369D01*
X109481Y218113D01*
X110008Y219025D01*
X110280Y220043D01*
Y221096D01*
X110008Y222113D01*
X109481Y223025D01*
X108736Y223770D01*
X107824Y224297D01*
X106807Y224569D01*
X105753D01*
X104736Y224297D01*
X104227Y224003D01*
X103920Y224403D01*
X105781Y226264D01*
X109579D01*
X109624Y226096D01*
X110150Y225184D01*
X110895Y224440D01*
X111807Y223913D01*
X112824Y223640D01*
X113878D01*
X114895Y223913D01*
X115807Y224440D01*
X116552Y225184D01*
X117078Y226096D01*
X117351Y227114D01*
Y228167D01*
X117078Y229184D01*
X116552Y230096D01*
X115807Y230841D01*
X114895Y231368D01*
X113878Y231640D01*
D02*
G37*
G36*
X74000Y215174D02*
Y213500D01*
X75674D01*
X75365Y214246D01*
X74746Y214865D01*
X74000Y215174D01*
D02*
G37*
G36*
X88938Y212700D02*
X88062D01*
X87254Y212365D01*
X86635Y211746D01*
X86300Y210938D01*
Y210062D01*
X86635Y209254D01*
X87254Y208635D01*
X88062Y208300D01*
X88938D01*
X89746Y208635D01*
X90365Y209254D01*
X90700Y210062D01*
Y210938D01*
X90365Y211746D01*
X89746Y212365D01*
X88938Y212700D01*
D02*
G37*
G36*
X102978Y155696D02*
Y154022D01*
X104653D01*
X104343Y154768D01*
X103725Y155387D01*
X102978Y155696D01*
D02*
G37*
G36*
X101978D02*
X101232Y155387D01*
X100613Y154768D01*
X100304Y154022D01*
X101978D01*
Y155696D01*
D02*
G37*
G36*
X104653Y153022D02*
X102978D01*
Y151347D01*
X103725Y151657D01*
X104343Y152276D01*
X104653Y153022D01*
D02*
G37*
G36*
X101978D02*
X100304D01*
X100613Y152276D01*
X101232Y151657D01*
X101978Y151347D01*
Y153022D01*
D02*
G37*
G36*
X85438Y158700D02*
X84562D01*
X83754Y158365D01*
X83135Y157746D01*
X82800Y156938D01*
Y156062D01*
X83135Y155254D01*
X83754Y154635D01*
X84562Y154300D01*
X85010D01*
X86124Y153186D01*
Y150306D01*
X85624Y150240D01*
X85621Y150250D01*
X85094Y151163D01*
X84349Y151907D01*
X83437Y152434D01*
X82420Y152707D01*
X81367D01*
X80349Y152434D01*
X79437Y151907D01*
X78693Y151163D01*
X78166Y150250D01*
X77893Y149233D01*
Y148180D01*
X78166Y147162D01*
X78693Y146250D01*
X79437Y145506D01*
X80349Y144979D01*
X81367Y144706D01*
X82420D01*
X83437Y144979D01*
X84349Y145506D01*
X85094Y146250D01*
X85621Y147162D01*
X85624Y147173D01*
X86124Y147107D01*
Y143070D01*
X83253Y140200D01*
X82562D01*
X81754Y139865D01*
X81135Y139246D01*
X80800Y138438D01*
Y137562D01*
X81135Y136754D01*
X81754Y136135D01*
X82562Y135800D01*
X83438D01*
X84246Y136135D01*
X84865Y136754D01*
X85200Y137562D01*
Y138253D01*
X88473Y141527D01*
X88772Y141973D01*
X88876Y142500D01*
Y153756D01*
X88772Y154283D01*
X88473Y154730D01*
X88473Y154730D01*
X87183Y156020D01*
X87200Y156062D01*
Y156938D01*
X86865Y157746D01*
X86246Y158365D01*
X85438Y158700D01*
D02*
G37*
G36*
X75349Y145635D02*
X74296D01*
X73278Y145363D01*
X72366Y144836D01*
X71622Y144091D01*
X71095Y143179D01*
X70822Y142162D01*
Y141109D01*
X71095Y140092D01*
X71622Y139179D01*
X72366Y138435D01*
X73278Y137908D01*
X74296Y137635D01*
X75349D01*
X76366Y137908D01*
X77278Y138435D01*
X78023Y139179D01*
X78550Y140092D01*
X78822Y141109D01*
Y142162D01*
X78550Y143179D01*
X78023Y144091D01*
X77278Y144836D01*
X76366Y145363D01*
X75349Y145635D01*
D02*
G37*
G36*
X68278Y138564D02*
X67225D01*
X66207Y138292D01*
X65295Y137765D01*
X64550Y137020D01*
X64024Y136108D01*
X63751Y135091D01*
Y134038D01*
X64024Y133020D01*
X64550Y132108D01*
X65295Y131363D01*
X66207Y130837D01*
X67225Y130564D01*
X68278D01*
X69295Y130837D01*
X70207Y131363D01*
X70952Y132108D01*
X71479Y133020D01*
X71751Y134038D01*
Y135091D01*
X71479Y136108D01*
X70952Y137020D01*
X70207Y137765D01*
X69295Y138292D01*
X68278Y138564D01*
D02*
G37*
G36*
X54136Y124422D02*
X53083D01*
X52065Y124150D01*
X51153Y123623D01*
X50408Y122878D01*
X49882Y121966D01*
X49609Y120949D01*
Y119896D01*
X49882Y118878D01*
X50408Y117966D01*
X51153Y117221D01*
X52065Y116695D01*
X53083Y116422D01*
X54136D01*
X55153Y116695D01*
X56065Y117221D01*
X56810Y117966D01*
X57336Y118878D01*
X57609Y119896D01*
Y120949D01*
X57336Y121966D01*
X56810Y122878D01*
X56065Y123623D01*
X55153Y124150D01*
X54136Y124422D01*
D02*
G37*
G36*
X93438Y119700D02*
X92562D01*
X91754Y119365D01*
X91135Y118746D01*
X90800Y117938D01*
Y117062D01*
X91135Y116254D01*
X91754Y115635D01*
X92562Y115300D01*
X93438D01*
X94246Y115635D01*
X94865Y116254D01*
X95200Y117062D01*
Y117938D01*
X94865Y118746D01*
X94246Y119365D01*
X93438Y119700D01*
D02*
G37*
G36*
X114500Y113674D02*
Y112000D01*
X116174D01*
X115865Y112746D01*
X115246Y113365D01*
X114500Y113674D01*
D02*
G37*
G36*
X113500D02*
X112754Y113365D01*
X112135Y112746D01*
X111826Y112000D01*
X113500D01*
Y113674D01*
D02*
G37*
G36*
X47065Y117351D02*
X46011D01*
X44994Y117078D01*
X44082Y116552D01*
X43337Y115807D01*
X42811Y114895D01*
X42538Y113878D01*
Y112824D01*
X42811Y111807D01*
X43337Y110895D01*
X44082Y110150D01*
X44994Y109624D01*
X46011Y109351D01*
X47065D01*
X48082Y109624D01*
X48994Y110150D01*
X49739Y110895D01*
X50265Y111807D01*
X50538Y112824D01*
Y113878D01*
X50265Y114895D01*
X49739Y115807D01*
X48994Y116552D01*
X48082Y117078D01*
X47065Y117351D01*
D02*
G37*
G36*
X116174Y111000D02*
X114500D01*
Y109326D01*
X115246Y109635D01*
X115865Y110254D01*
X116174Y111000D01*
D02*
G37*
G36*
X113500D02*
X111826D01*
X112135Y110254D01*
X112754Y109635D01*
X113500Y109326D01*
Y111000D01*
D02*
G37*
G36*
X61207Y131493D02*
X60154D01*
X59136Y131221D01*
X58224Y130694D01*
X57479Y129949D01*
X56953Y129037D01*
X56680Y128020D01*
Y126967D01*
X56953Y125949D01*
X57479Y125037D01*
X58224Y124293D01*
X59136Y123766D01*
X60154Y123493D01*
X61207D01*
X62224Y123766D01*
X63136Y124293D01*
X63881Y125037D01*
X64408Y125949D01*
X64452Y126117D01*
X76437D01*
X96300Y106253D01*
Y105562D01*
X96635Y104754D01*
X97254Y104135D01*
X98062Y103800D01*
X98938D01*
X99746Y104135D01*
X100365Y104754D01*
X100700Y105562D01*
Y106438D01*
X100365Y107246D01*
X99746Y107865D01*
X98938Y108200D01*
X98247D01*
X77980Y128467D01*
X77534Y128765D01*
X77007Y128870D01*
X64452D01*
X64408Y129037D01*
X63881Y129949D01*
X63136Y130694D01*
X62224Y131221D01*
X61207Y131493D01*
D02*
G37*
G36*
X96938Y125700D02*
X96062D01*
X95254Y125365D01*
X94635Y124746D01*
X94300Y123938D01*
Y123062D01*
X94635Y122254D01*
X95254Y121635D01*
X96062Y121300D01*
X96624D01*
Y115500D01*
X96728Y114973D01*
X97027Y114527D01*
X102124Y109430D01*
Y103070D01*
X101430Y102376D01*
X96070D01*
X93973Y104473D01*
X93527Y104772D01*
X93000Y104876D01*
X87500D01*
X87500Y104876D01*
X86973Y104772D01*
X86527Y104473D01*
X83027Y100973D01*
X82728Y100527D01*
X82624Y100000D01*
Y95710D01*
X82728Y95183D01*
X83027Y94736D01*
X113172Y64592D01*
X113074Y64101D01*
X112754Y63969D01*
X112135Y63350D01*
X112002Y63030D01*
X111512Y62932D01*
X72876Y101567D01*
Y119765D01*
X73365Y120254D01*
X73700Y121062D01*
Y121938D01*
X73365Y122746D01*
X72746Y123365D01*
X71938Y123700D01*
X71062D01*
X70254Y123365D01*
X69635Y122746D01*
X69300Y121938D01*
Y121062D01*
X69635Y120254D01*
X70124Y119765D01*
Y100997D01*
X70228Y100471D01*
X70527Y100024D01*
X111975Y58576D01*
Y50310D01*
X111807Y50265D01*
X110895Y49739D01*
X110150Y48994D01*
X109624Y48082D01*
X109351Y47065D01*
Y46011D01*
X109624Y44994D01*
X110150Y44082D01*
X110895Y43337D01*
X111807Y42811D01*
X112824Y42538D01*
X113878D01*
X114895Y42811D01*
X115807Y43337D01*
X116552Y44082D01*
X117078Y44994D01*
X117351Y46011D01*
Y47065D01*
X117078Y48082D01*
X116552Y48994D01*
X115807Y49739D01*
X114895Y50265D01*
X114728Y50310D01*
Y59146D01*
X114728Y59146D01*
X114623Y59673D01*
X114729Y60024D01*
X115246Y60238D01*
X115865Y60857D01*
X115998Y61178D01*
X116488Y61275D01*
X119046Y58718D01*
Y57381D01*
X118878Y57336D01*
X117966Y56810D01*
X117221Y56065D01*
X116695Y55153D01*
X116422Y54136D01*
Y53083D01*
X116695Y52065D01*
X117221Y51153D01*
X117966Y50408D01*
X118878Y49882D01*
X119896Y49609D01*
X120949D01*
X121966Y49882D01*
X122878Y50408D01*
X123623Y51153D01*
X124150Y52065D01*
X124422Y53083D01*
Y54136D01*
X124150Y55153D01*
X123623Y56065D01*
X122878Y56810D01*
X121966Y57336D01*
X121799Y57381D01*
Y59288D01*
X121694Y59814D01*
X121396Y60261D01*
X85376Y96280D01*
Y99430D01*
X88070Y102124D01*
X92430D01*
X94527Y100027D01*
X94527Y100027D01*
X94973Y99728D01*
X95500Y99624D01*
X102000D01*
X102527Y99728D01*
X102973Y100027D01*
X104473Y101527D01*
X104772Y101973D01*
X104876Y102500D01*
Y110000D01*
X104772Y110527D01*
X104473Y110973D01*
X104473Y110973D01*
X99376Y116070D01*
Y122000D01*
X99272Y122527D01*
X98973Y122973D01*
X98700Y123247D01*
Y123938D01*
X98365Y124746D01*
X97746Y125365D01*
X96938Y125700D01*
D02*
G37*
G36*
X39994Y110280D02*
X38940D01*
X37923Y110008D01*
X37011Y109481D01*
X36266Y108736D01*
X35740Y107824D01*
X35467Y106807D01*
Y105753D01*
X35740Y104736D01*
X36266Y103824D01*
X37011Y103079D01*
X37923Y102553D01*
X38940Y102280D01*
X39994D01*
X41011Y102553D01*
X41923Y103079D01*
X42668Y103824D01*
X43194Y104736D01*
X43467Y105753D01*
Y106807D01*
X43194Y107824D01*
X42668Y108736D01*
X41923Y109481D01*
X41011Y110008D01*
X39994Y110280D01*
D02*
G37*
G36*
X97500Y97674D02*
Y96000D01*
X99174D01*
X98865Y96746D01*
X98246Y97365D01*
X97500Y97674D01*
D02*
G37*
G36*
X96500D02*
X95754Y97365D01*
X95135Y96746D01*
X94826Y96000D01*
X96500D01*
Y97674D01*
D02*
G37*
G36*
X32923Y103209D02*
X31869D01*
X30852Y102936D01*
X29940Y102410D01*
X29195Y101665D01*
X28668Y100753D01*
X28396Y99736D01*
Y98682D01*
X28668Y97665D01*
X29195Y96753D01*
X29940Y96008D01*
X30852Y95482D01*
X31869Y95209D01*
X32923D01*
X33940Y95482D01*
X34852Y96008D01*
X35597Y96753D01*
X36123Y97665D01*
X36396Y98682D01*
Y99736D01*
X36123Y100753D01*
X35597Y101665D01*
X34852Y102410D01*
X33940Y102936D01*
X32923Y103209D01*
D02*
G37*
G36*
X99174Y95000D02*
X97500D01*
Y93326D01*
X98246Y93635D01*
X98865Y94254D01*
X99174Y95000D01*
D02*
G37*
G36*
X96500D02*
X94826D01*
X95135Y94254D01*
X95754Y93635D01*
X96500Y93326D01*
Y95000D01*
D02*
G37*
G36*
X149233Y85893D02*
X148180D01*
X147162Y85621D01*
X146250Y85094D01*
X145506Y84349D01*
X144979Y83437D01*
X144706Y82420D01*
Y81367D01*
X144979Y80349D01*
X145506Y79437D01*
X146250Y78693D01*
X147162Y78166D01*
X148180Y77893D01*
X149233D01*
X150250Y78166D01*
X151163Y78693D01*
X151907Y79437D01*
X152434Y80349D01*
X152707Y81367D01*
Y82420D01*
X152434Y83437D01*
X151907Y84349D01*
X151163Y85094D01*
X150250Y85621D01*
X149233Y85893D01*
D02*
G37*
G36*
X27064Y79256D02*
X24313D01*
X23486Y79147D01*
X22716Y78829D01*
X22055Y78321D01*
X21548Y77660D01*
X21229Y76890D01*
X21120Y76064D01*
X21229Y75237D01*
X21548Y74467D01*
X22055Y73806D01*
X22716Y73299D01*
X23486Y72980D01*
X24313Y72871D01*
X27064D01*
X27891Y72980D01*
X28661Y73299D01*
X29322Y73806D01*
X29829Y74467D01*
X30148Y75237D01*
X30257Y76064D01*
X30148Y76890D01*
X29829Y77660D01*
X29322Y78321D01*
X28661Y78829D01*
X27891Y79147D01*
X27064Y79256D01*
D02*
G37*
G36*
X12104D02*
X9353D01*
X8526Y79147D01*
X7756Y78829D01*
X7095Y78321D01*
X6588Y77660D01*
X6269Y76890D01*
X6160Y76064D01*
X6269Y75237D01*
X6588Y74467D01*
X7095Y73806D01*
X7756Y73299D01*
X8526Y72980D01*
X9353Y72871D01*
X12104D01*
X12931Y72980D01*
X13701Y73299D01*
X14362Y73806D01*
X14869Y74467D01*
X15188Y75237D01*
X15297Y76064D01*
X15188Y76890D01*
X14869Y77660D01*
X14362Y78321D01*
X13701Y78829D01*
X12931Y79147D01*
X12104Y79256D01*
D02*
G37*
G36*
X89438Y99700D02*
X88562D01*
X87754Y99365D01*
X87135Y98746D01*
X86800Y97938D01*
Y97062D01*
X87135Y96254D01*
X87754Y95635D01*
X88562Y95300D01*
X89253D01*
X110704Y73849D01*
X111151Y73551D01*
X111678Y73446D01*
X137863D01*
X137908Y73278D01*
X138435Y72366D01*
X139179Y71622D01*
X140092Y71095D01*
X141109Y70822D01*
X142162D01*
X143179Y71095D01*
X144091Y71622D01*
X144836Y72366D01*
X145363Y73278D01*
X145635Y74296D01*
Y75349D01*
X145363Y76366D01*
X144836Y77278D01*
X144091Y78023D01*
X143179Y78550D01*
X142162Y78822D01*
X141109D01*
X140092Y78550D01*
X139179Y78023D01*
X138435Y77278D01*
X137908Y76366D01*
X137863Y76199D01*
X112248D01*
X91200Y97247D01*
Y97938D01*
X90865Y98746D01*
X90246Y99365D01*
X89438Y99700D01*
D02*
G37*
G36*
Y140200D02*
X88562D01*
X87754Y139865D01*
X87135Y139246D01*
X86800Y138438D01*
Y137562D01*
X87135Y136754D01*
X87754Y136135D01*
X88562Y135800D01*
X89253D01*
X102124Y122930D01*
Y115000D01*
X102228Y114473D01*
X102527Y114027D01*
X127527Y89027D01*
X127973Y88728D01*
X128500Y88624D01*
X153930D01*
X156124Y86430D01*
Y80570D01*
X144681Y69128D01*
X138337D01*
X138292Y69295D01*
X137765Y70207D01*
X137020Y70952D01*
X136108Y71479D01*
X135091Y71751D01*
X134038D01*
X133020Y71479D01*
X132108Y70952D01*
X131363Y70207D01*
X130837Y69295D01*
X130564Y68278D01*
Y67225D01*
X130837Y66207D01*
X131363Y65295D01*
X132108Y64550D01*
X133020Y64024D01*
X134038Y63751D01*
X135091D01*
X136108Y64024D01*
X137020Y64550D01*
X137765Y65295D01*
X138292Y66207D01*
X138337Y66375D01*
X145251D01*
X145778Y66480D01*
X146224Y66778D01*
X158473Y79027D01*
X158473Y79027D01*
X158772Y79473D01*
X158877Y80000D01*
X158876Y80000D01*
Y87000D01*
X158772Y87527D01*
X158473Y87973D01*
X155473Y90973D01*
X155027Y91272D01*
X154500Y91376D01*
X129070D01*
X104876Y115570D01*
Y123500D01*
X104876Y123500D01*
X104772Y124027D01*
X104473Y124473D01*
X104473Y124473D01*
X91200Y137747D01*
Y138438D01*
X90865Y139246D01*
X90246Y139865D01*
X89438Y140200D01*
D02*
G37*
G36*
X66938Y68200D02*
X66062D01*
X65254Y67865D01*
X64635Y67246D01*
X64300Y66438D01*
Y65562D01*
X64635Y64754D01*
X65254Y64135D01*
X66062Y63800D01*
X66938D01*
X67062Y63852D01*
X67878Y63035D01*
Y62440D01*
X67378Y62233D01*
X67246Y62365D01*
X66438Y62700D01*
X65562D01*
X64754Y62365D01*
X64135Y61746D01*
X63800Y60938D01*
Y60062D01*
X64135Y59254D01*
X64754Y58635D01*
X64878Y58583D01*
Y38172D01*
X64878Y38172D01*
X64964Y37742D01*
X65207Y37378D01*
X72878Y29707D01*
X72878Y29707D01*
X73242Y29464D01*
X73672Y29378D01*
X73672Y29378D01*
X74035D01*
X77852Y25562D01*
X77800Y25438D01*
Y24562D01*
X78135Y23754D01*
X78754Y23135D01*
X79562Y22800D01*
X80438D01*
X81246Y23135D01*
X81865Y23754D01*
X82200Y24562D01*
Y25438D01*
X81865Y26246D01*
X81246Y26865D01*
X80438Y27200D01*
X79562D01*
X79438Y27148D01*
X75708Y30878D01*
X75915Y31378D01*
X86583D01*
X86635Y31254D01*
X87254Y30635D01*
X88062Y30300D01*
X88938D01*
X89746Y30635D01*
X90365Y31254D01*
X90700Y32062D01*
Y32938D01*
X90365Y33746D01*
X89746Y34365D01*
X88938Y34700D01*
X88062D01*
X87254Y34365D01*
X86635Y33746D01*
X86583Y33622D01*
X74965D01*
X70122Y38465D01*
Y63500D01*
X70036Y63929D01*
X69793Y64293D01*
X69793Y64293D01*
X68648Y65438D01*
X68700Y65562D01*
Y66438D01*
X68365Y67246D01*
X67746Y67865D01*
X66938Y68200D01*
D02*
G37*
G36*
X128020Y64680D02*
X126967D01*
X125949Y64408D01*
X125037Y63881D01*
X124293Y63136D01*
X123766Y62224D01*
X123493Y61207D01*
Y60154D01*
X123766Y59136D01*
X124293Y58224D01*
X125037Y57479D01*
X125949Y56953D01*
X126967Y56680D01*
X128020D01*
X129037Y56953D01*
X129949Y57479D01*
X130694Y58224D01*
X131221Y59136D01*
X131493Y60154D01*
Y61207D01*
X131221Y62224D01*
X130694Y63136D01*
X129949Y63881D01*
X129037Y64408D01*
X128020Y64680D01*
D02*
G37*
G36*
X173801Y64465D02*
X172656D01*
X171551Y64168D01*
X170560Y63596D01*
X169750Y62787D01*
X169178Y61796D01*
X168882Y60690D01*
Y59546D01*
X169178Y58440D01*
X169750Y57449D01*
X170560Y56640D01*
X171551Y56068D01*
X172656Y55772D01*
X173801D01*
X174906Y56068D01*
X175897Y56640D01*
X176706Y57449D01*
X177279Y58440D01*
X177575Y59546D01*
Y60690D01*
X177279Y61796D01*
X176706Y62787D01*
X175897Y63596D01*
X174906Y64168D01*
X173801Y64465D01*
D02*
G37*
G36*
X158130Y50304D02*
Y48630D01*
X159804D01*
X159495Y49376D01*
X158876Y49995D01*
X158130Y50304D01*
D02*
G37*
G36*
X157130D02*
X156383Y49995D01*
X155764Y49376D01*
X155455Y48630D01*
X157130D01*
Y50304D01*
D02*
G37*
G36*
X66938Y73700D02*
X66062D01*
X65254Y73365D01*
X64635Y72746D01*
X64300Y71938D01*
Y71062D01*
X64635Y70254D01*
X65254Y69635D01*
X66062Y69300D01*
X66938D01*
X67746Y69635D01*
X68235Y70124D01*
X71511D01*
X92107Y49527D01*
X92107Y49527D01*
X92554Y49228D01*
X93081Y49124D01*
X104265D01*
X104754Y48635D01*
X105562Y48300D01*
X106438D01*
X107246Y48635D01*
X107865Y49254D01*
X108200Y50062D01*
Y50938D01*
X107865Y51746D01*
X107246Y52365D01*
X106438Y52700D01*
X105562D01*
X104754Y52365D01*
X104265Y51876D01*
X93651D01*
X73054Y72473D01*
X72607Y72772D01*
X72081Y72876D01*
X68235D01*
X67746Y73365D01*
X66938Y73700D01*
D02*
G37*
G36*
X159804Y47630D02*
X158130D01*
Y45955D01*
X158876Y46264D01*
X159495Y46883D01*
X159804Y47630D01*
D02*
G37*
G36*
X157130D02*
X155455D01*
X155764Y46883D01*
X156383Y46264D01*
X157130Y45955D01*
Y47630D01*
D02*
G37*
G36*
X177575Y54465D02*
X168882D01*
Y45772D01*
X177575D01*
Y54465D01*
D02*
G37*
G36*
X92000Y40674D02*
Y39000D01*
X93674D01*
X93365Y39746D01*
X92746Y40365D01*
X92000Y40674D01*
D02*
G37*
G36*
X91000D02*
X90254Y40365D01*
X89635Y39746D01*
X89326Y39000D01*
X91000D01*
Y40674D01*
D02*
G37*
G36*
X27064Y45240D02*
X24313D01*
X23486Y45131D01*
X22716Y44813D01*
X22055Y44305D01*
X21548Y43644D01*
X21229Y42874D01*
X21120Y42048D01*
X21229Y41221D01*
X21548Y40451D01*
X22055Y39790D01*
X22716Y39283D01*
X23486Y38964D01*
X24313Y38855D01*
X27064D01*
X27891Y38964D01*
X28661Y39283D01*
X29322Y39790D01*
X29829Y40451D01*
X30148Y41221D01*
X30257Y42048D01*
X30148Y42874D01*
X29829Y43644D01*
X29322Y44305D01*
X28661Y44813D01*
X27891Y45131D01*
X27064Y45240D01*
D02*
G37*
G36*
X12104D02*
X9353D01*
X8526Y45131D01*
X7756Y44813D01*
X7095Y44305D01*
X6588Y43644D01*
X6269Y42874D01*
X6160Y42048D01*
X6269Y41221D01*
X6588Y40451D01*
X7095Y39790D01*
X7756Y39283D01*
X8526Y38964D01*
X9353Y38855D01*
X12104D01*
X12931Y38964D01*
X13701Y39283D01*
X14362Y39790D01*
X14869Y40451D01*
X15188Y41221D01*
X15297Y42048D01*
X15188Y42874D01*
X14869Y43644D01*
X14362Y44305D01*
X13701Y44813D01*
X12931Y45131D01*
X12104Y45240D01*
D02*
G37*
G36*
X93674Y38000D02*
X92000D01*
Y36326D01*
X92746Y36635D01*
X93365Y37254D01*
X93674Y38000D01*
D02*
G37*
G36*
X91000D02*
X89326D01*
X89635Y37254D01*
X90254Y36635D01*
X91000Y36326D01*
Y38000D01*
D02*
G37*
G36*
X106807Y43467D02*
X105753D01*
X104736Y43194D01*
X103824Y42668D01*
X103079Y41923D01*
X102553Y41011D01*
X102280Y39994D01*
Y38940D01*
X102553Y37923D01*
X103079Y37011D01*
X103824Y36266D01*
X104736Y35740D01*
X105753Y35467D01*
X106807D01*
X107824Y35740D01*
X108736Y36266D01*
X109481Y37011D01*
X110008Y37923D01*
X110280Y38940D01*
Y39994D01*
X110008Y41011D01*
X109481Y41923D01*
X108736Y42668D01*
X107824Y43194D01*
X106807Y43467D01*
D02*
G37*
G36*
X99736Y36396D02*
X98682D01*
X97665Y36123D01*
X96753Y35597D01*
X96008Y34852D01*
X95482Y33940D01*
X95209Y32923D01*
Y31869D01*
X95482Y30852D01*
X96008Y29940D01*
X96753Y29195D01*
X97665Y28668D01*
X98682Y28396D01*
X99736D01*
X100753Y28668D01*
X101665Y29195D01*
X102410Y29940D01*
X102936Y30852D01*
X103209Y31869D01*
Y32923D01*
X102936Y33940D01*
X102410Y34852D01*
X101665Y35597D01*
X100753Y36123D01*
X99736Y36396D01*
D02*
G37*
G36*
X113500Y20174D02*
Y18500D01*
X115174D01*
X114865Y19246D01*
X114246Y19865D01*
X113500Y20174D01*
D02*
G37*
G36*
X112500D02*
X111754Y19865D01*
X111135Y19246D01*
X110826Y18500D01*
X112500D01*
Y20174D01*
D02*
G37*
G36*
X48722Y20095D02*
X48650D01*
Y16248D01*
X52496D01*
Y16320D01*
X52200Y17426D01*
X51628Y18417D01*
X50818Y19226D01*
X49827Y19798D01*
X48722Y20095D01*
D02*
G37*
G36*
X47650D02*
X47577D01*
X46472Y19798D01*
X45481Y19226D01*
X44672Y18417D01*
X44099Y17426D01*
X43803Y16320D01*
Y16248D01*
X47650D01*
Y20095D01*
D02*
G37*
G36*
X115174Y17500D02*
X113500D01*
Y15826D01*
X114246Y16135D01*
X114865Y16754D01*
X115174Y17500D01*
D02*
G37*
G36*
X112500D02*
X110826D01*
X111135Y16754D01*
X111754Y16135D01*
X112500Y15826D01*
Y17500D01*
D02*
G37*
G36*
X52496Y15248D02*
X48650D01*
Y11402D01*
X48722D01*
X49827Y11698D01*
X50818Y12270D01*
X51628Y13079D01*
X52200Y14070D01*
X52496Y15176D01*
Y15248D01*
D02*
G37*
G36*
X47650D02*
X43803D01*
Y15176D01*
X44099Y14070D01*
X44672Y13079D01*
X45481Y12270D01*
X46472Y11698D01*
X47577Y11402D01*
X47650D01*
Y15248D01*
D02*
G37*
G36*
X139500Y12674D02*
Y11000D01*
X141174D01*
X140865Y11746D01*
X140246Y12365D01*
X139500Y12674D01*
D02*
G37*
G36*
X138500D02*
X137754Y12365D01*
X137135Y11746D01*
X136826Y11000D01*
X138500D01*
Y12674D01*
D02*
G37*
G36*
X65004Y22133D02*
X64129D01*
X63321Y21798D01*
X62702Y21179D01*
X62367Y20371D01*
Y20095D01*
X53803D01*
Y11402D01*
X62496D01*
Y18186D01*
X62996Y18393D01*
X63321Y18068D01*
X64129Y17733D01*
X64820D01*
X72027Y10527D01*
X72473Y10228D01*
X73000Y10124D01*
X97265D01*
X97754Y9635D01*
X98562Y9300D01*
X99438D01*
X100246Y9635D01*
X100865Y10254D01*
X101200Y11062D01*
Y11938D01*
X100865Y12746D01*
X100246Y13365D01*
X99438Y13700D01*
X98562D01*
X97754Y13365D01*
X97265Y12876D01*
X73570D01*
X66767Y19680D01*
Y20371D01*
X66432Y21179D01*
X65813Y21798D01*
X65004Y22133D01*
D02*
G37*
G36*
X141174Y10000D02*
X139500D01*
Y8326D01*
X140246Y8635D01*
X140865Y9254D01*
X141174Y10000D01*
D02*
G37*
G36*
X138500D02*
X136826D01*
X137135Y9254D01*
X137754Y8635D01*
X138500Y8326D01*
Y10000D01*
D02*
G37*
G36*
X162677Y35685D02*
X160158D01*
X157671Y35291D01*
X155275Y34513D01*
X153032Y33369D01*
X150994Y31889D01*
X149213Y30108D01*
X147733Y28071D01*
X146590Y25827D01*
X145811Y23432D01*
X145417Y20944D01*
Y18426D01*
X145811Y15938D01*
X146590Y13543D01*
X147733Y11299D01*
X149213Y9262D01*
X150994Y7481D01*
X153032Y6001D01*
X155275Y4857D01*
X157671Y4079D01*
X160158Y3685D01*
X162677D01*
X165164Y4079D01*
X167559Y4857D01*
X169803Y6001D01*
X171841Y7481D01*
X173621Y9262D01*
X175102Y11299D01*
X176245Y13543D01*
X177023Y15938D01*
X177417Y18426D01*
Y20944D01*
X177023Y23432D01*
X176245Y25827D01*
X175102Y28071D01*
X173621Y30108D01*
X171841Y31889D01*
X169803Y33369D01*
X167559Y34513D01*
X165164Y35291D01*
X162677Y35685D01*
D02*
G37*
G36*
X20944D02*
X18426D01*
X15938Y35291D01*
X13543Y34513D01*
X11299Y33369D01*
X9262Y31889D01*
X7481Y30108D01*
X6001Y28071D01*
X4857Y25827D01*
X4079Y23432D01*
X3685Y20944D01*
Y18426D01*
X4079Y15938D01*
X4857Y13543D01*
X6001Y11299D01*
X7481Y9262D01*
X9262Y7481D01*
X11299Y6001D01*
X13543Y4857D01*
X15938Y4079D01*
X18426Y3685D01*
X20944D01*
X23432Y4079D01*
X25827Y4857D01*
X28071Y6001D01*
X30108Y7481D01*
X31889Y9262D01*
X33369Y11299D01*
X34513Y13543D01*
X35291Y15938D01*
X35685Y18426D01*
Y20944D01*
X35291Y23432D01*
X34513Y25827D01*
X33369Y28071D01*
X31889Y30108D01*
X30108Y31889D01*
X28071Y33369D01*
X25827Y34513D01*
X23432Y35291D01*
X20944Y35685D01*
D02*
G37*
%LPD*%
D10*
X69000Y38000D02*
X74500Y32500D01*
X69000Y38000D02*
Y63500D01*
X66000Y38172D02*
Y60500D01*
Y38172D02*
X73672Y30500D01*
X66500Y66000D02*
X69000Y63500D01*
X73672Y30500D02*
X74500D01*
X80000Y25000D01*
X74500Y32500D02*
X88500D01*
X102362Y169291D02*
Y192913D01*
X78740Y169291D02*
Y192913D01*
X0Y271654D02*
X78740Y192913D01*
X0Y271654D02*
Y362205D01*
Y90551D02*
X78740Y169291D01*
X102362Y192913D02*
X181102Y271654D01*
X102362Y169291D02*
X181102Y90551D01*
X0Y362205D02*
X181102D01*
X0Y0D02*
X181102D01*
Y90551D01*
Y271654D02*
Y362205D01*
X0Y0D02*
Y90551D01*
D17*
X106000Y256500D02*
X109500Y260000D01*
X106000Y254778D02*
Y256500D01*
Y254778D02*
X118996Y241782D01*
X113351Y227640D02*
X113351Y227640D01*
X105211Y227640D02*
X113351D01*
X93500Y215929D02*
X105211Y227640D01*
X113634Y241500D02*
X120422Y234711D01*
X78500Y222500D02*
X97500Y241500D01*
X113634D01*
X67500Y222500D02*
X78500D01*
X53000Y259500D02*
Y268000D01*
X41000Y234500D02*
Y247500D01*
X53000Y259500D01*
X77000Y198500D02*
X91000D01*
X41000Y234500D02*
X77000Y198500D01*
X46500Y232258D02*
X75858Y202900D01*
X100930D01*
X60000Y221728D02*
X76727Y205000D01*
X60000Y221728D02*
Y249500D01*
X76727Y205000D02*
X100060D01*
X46500Y232258D02*
Y247258D01*
X100930Y202900D02*
X148706Y250676D01*
X63500Y226500D02*
Y236588D01*
Y226500D02*
X67500Y222500D01*
X69500Y242588D02*
Y257000D01*
X63500Y236588D02*
X69500Y242588D01*
X46500Y247258D02*
X66742Y267500D01*
X74000D01*
X134564Y248854D02*
X134564Y248853D01*
X134564Y248854D02*
Y265936D01*
X132000Y268500D02*
X134564Y265936D01*
X69000Y284500D02*
X73000Y280500D01*
X86000D01*
X118996Y241782D02*
X127493D01*
X81893Y329809D02*
X82000Y329702D01*
Y318250D02*
Y329702D01*
X79000Y315250D02*
X82000Y318250D01*
X79000Y307000D02*
Y315250D01*
X87000Y289000D02*
Y299000D01*
X79000Y307000D02*
X87000Y299000D01*
X74822Y295678D02*
Y322738D01*
Y295678D02*
X77500Y293000D01*
X67751Y296751D02*
Y315667D01*
X48500Y277500D02*
X67751Y296751D01*
X48500Y261500D02*
Y277500D01*
X41311Y280311D02*
X55500Y294500D01*
X32396Y280311D02*
X41311D01*
X100060Y205000D02*
X141635Y246575D01*
X148706Y262995D02*
X148707Y262996D01*
X148706Y250676D02*
Y262995D01*
X141635Y246575D02*
Y255924D01*
X141636Y255925D01*
X25500Y286500D02*
X40525Y301525D01*
X53609D01*
X25500Y277500D02*
Y286500D01*
Y277500D02*
X44000Y259000D01*
X87500Y142500D02*
Y153756D01*
X85000Y156256D02*
X87500Y153756D01*
X83000Y138000D02*
X87500Y142500D01*
X85000Y156256D02*
Y156500D01*
X89000Y138000D02*
X103500Y123500D01*
Y115000D02*
Y123500D01*
X113351Y46538D02*
Y59146D01*
X71500Y100997D02*
Y121500D01*
X113351Y46538D02*
X113351Y46538D01*
X71500Y100997D02*
X113351Y59146D01*
X84000Y95710D02*
Y100000D01*
Y95710D02*
X120422Y59288D01*
X84000Y100000D02*
X87500Y103500D01*
X120422Y53609D02*
Y59288D01*
X98000Y115500D02*
Y122000D01*
Y115500D02*
X103500Y110000D01*
X96500Y123500D02*
X98000Y122000D01*
X103500Y102500D02*
Y110000D01*
X95500Y101000D02*
X102000D01*
X103500Y102500D01*
X93000Y103500D02*
X95500Y101000D01*
X77007Y127493D02*
X98500Y106000D01*
X87500Y103500D02*
X93000D01*
X120422Y53609D02*
X120422Y53609D01*
X111678Y74822D02*
X141635D01*
X89000Y97500D02*
X111678Y74822D01*
X103500Y115000D02*
X128500Y90000D01*
X154500D01*
X157500Y87000D01*
Y80000D02*
Y87000D01*
X145251Y67751D02*
X157500Y80000D01*
X134564Y67751D02*
X134565Y67751D01*
X145251D01*
X141635Y74822D02*
X141636Y74822D01*
X60680Y127493D02*
X77007D01*
X66500Y71500D02*
X72081D01*
X93081Y50500D01*
X106000D01*
X73000Y11500D02*
X99000D01*
X64567Y19933D02*
X73000Y11500D01*
D18*
X106230Y268422D02*
Y269270D01*
Y268422D02*
X106400Y268251D01*
X106000Y269500D02*
X106230Y269270D01*
X106400Y264900D02*
Y268251D01*
X113500Y251000D02*
Y257000D01*
Y251000D02*
X115503Y248997D01*
X95500Y254000D02*
X106400Y264900D01*
X138500Y283500D02*
X143000Y288000D01*
Y307000D01*
X140500Y309500D02*
X143000Y307000D01*
X69500Y231500D02*
X79500D01*
X95500Y247500D02*
Y254000D01*
X79500Y231500D02*
X95500Y247500D01*
X101000Y284500D02*
X104500D01*
X116000Y296000D01*
X122000Y272500D02*
X124500D01*
X99700Y279800D02*
X114700D01*
X122000Y272500D01*
X97000Y282500D02*
X99700Y279800D01*
X97000Y286500D02*
X100000Y289500D01*
X97000Y282500D02*
Y286500D01*
X100000Y289500D02*
X105500D01*
X102624Y292124D02*
X109500Y299000D01*
X94523Y288023D02*
X98624Y292124D01*
X102624D01*
X105500Y289500D02*
X113500Y297500D01*
X116000Y296000D02*
Y304500D01*
X92500Y280000D02*
Y288546D01*
X100224Y296269D02*
X102769D01*
X94523Y280523D02*
Y288023D01*
X92500Y288546D02*
X100224Y296269D01*
X102769D02*
X110500Y304000D01*
X96500Y276000D02*
X111500D01*
X117000Y270500D01*
Y252500D02*
Y270500D01*
X97046Y278000D02*
X112046D01*
X121000Y251000D02*
Y269046D01*
X112046Y278000D02*
X121000Y269046D01*
X94523Y280523D02*
X97046Y278000D01*
X92500Y280000D02*
X96500Y276000D01*
X81000Y260500D02*
X90700Y270200D01*
Y292200D01*
X106500Y308000D01*
X115503Y248997D02*
X118997D01*
X121000Y251000D01*
X110500Y306500D02*
X112797D01*
X113500Y305797D01*
Y297500D02*
Y305797D01*
X109500Y307500D02*
X110500Y306500D01*
X109500Y307500D02*
Y309000D01*
X107000Y311500D02*
X109500Y309000D01*
X101000Y307000D02*
X105500Y311500D01*
X107000D01*
X105000Y316500D02*
X112000Y309500D01*
X101142Y316500D02*
X105000D01*
X82642Y335000D02*
X101142Y316500D01*
X101500Y319000D02*
X105000D01*
X80000Y340500D02*
X101500Y319000D01*
X80500Y335000D02*
X82642D01*
X75000Y329500D02*
X80500Y335000D01*
X75500Y340500D02*
X80000D01*
X105000Y319000D02*
X157000D01*
X26250Y299250D02*
X56500Y329500D01*
X75000D01*
X62500Y260500D02*
X81000D01*
X53000Y251000D02*
X62500Y260500D01*
X53000Y240000D02*
Y251000D01*
X162500Y299000D02*
Y299243D01*
X160500Y301243D02*
X162500Y299243D01*
X160500Y301243D02*
Y315500D01*
X157000Y319000D02*
X160500Y315500D01*
X138000Y309500D02*
X140500D01*
X131000Y299000D02*
Y302500D01*
X138000Y309500D01*
X139000Y301000D02*
Y305750D01*
X129000Y279000D02*
Y279243D01*
X127000Y281243D02*
X129000Y279243D01*
X127000Y303500D02*
X134000Y310500D01*
X127000Y281243D02*
Y303500D01*
X134000Y280500D02*
Y296000D01*
X139000Y301000D01*
D19*
X161417Y19685D02*
D03*
X19685D02*
D03*
X161417Y342520D02*
D03*
X19685D02*
D03*
D20*
X106280Y220569D02*
D03*
X113351Y227640D02*
D03*
X120422Y234712D02*
D03*
X127493Y241782D02*
D03*
X134564Y248854D02*
D03*
X141635Y255925D02*
D03*
X148706Y262996D02*
D03*
X99209Y213498D02*
D03*
X32396Y280311D02*
D03*
X39467Y287382D02*
D03*
X46538Y294454D02*
D03*
X53609Y301525D02*
D03*
X60680Y308596D02*
D03*
X67751Y315667D02*
D03*
X74822Y322738D02*
D03*
X81893Y329809D02*
D03*
X106280Y39467D02*
D03*
X113351Y46538D02*
D03*
X120422Y53609D02*
D03*
X127493Y60680D02*
D03*
X134564Y67751D02*
D03*
X141635Y74822D02*
D03*
X148706Y81893D02*
D03*
X99209Y32396D02*
D03*
X32396Y99209D02*
D03*
X39467Y106280D02*
D03*
X46538Y113351D02*
D03*
X53609Y120422D02*
D03*
X60680Y127493D02*
D03*
X67751Y134564D02*
D03*
X74822Y141635D02*
D03*
X81893Y148706D02*
D03*
D21*
X173228Y50118D02*
D03*
X58150Y15748D02*
D03*
D22*
X173228Y60118D02*
D03*
X48150Y15748D02*
D03*
D23*
X14385Y28865D02*
D03*
X24985D02*
D03*
X30285Y19685D02*
D03*
X24985Y10505D02*
D03*
X14385D02*
D03*
X9085Y19685D02*
D03*
X156117Y351700D02*
D03*
X166717D02*
D03*
X172017Y342520D02*
D03*
X166717Y333340D02*
D03*
X156117D02*
D03*
X150817Y342520D02*
D03*
X14385Y351700D02*
D03*
X24985D02*
D03*
X30285Y342520D02*
D03*
X24985Y333340D02*
D03*
X14385D02*
D03*
X9085Y342520D02*
D03*
X156117Y28865D02*
D03*
X166717D02*
D03*
X172017Y19685D02*
D03*
X166717Y10505D02*
D03*
X156117D02*
D03*
X150817Y19685D02*
D03*
D24*
X25688Y76064D02*
D03*
Y42048D02*
D03*
X10728Y76064D02*
D03*
Y42048D02*
D03*
D25*
X109500Y260000D02*
D03*
X125500Y253000D02*
D03*
X89500Y248500D02*
D03*
X132000Y268500D02*
D03*
X106000Y269500D02*
D03*
X113500Y257000D02*
D03*
X101000Y313000D02*
D03*
X85644Y307405D02*
D03*
X86000Y314000D02*
D03*
X104943Y232161D02*
D03*
X73500Y213000D02*
D03*
X93500Y215929D02*
D03*
X91000Y198500D02*
D03*
X53000Y268000D02*
D03*
X74000Y267500D02*
D03*
X69500Y257000D02*
D03*
X101000Y284500D02*
D03*
X86000Y280500D02*
D03*
X69000Y284500D02*
D03*
X124500Y272500D02*
D03*
X117000Y252500D02*
D03*
X69500Y231500D02*
D03*
X101000Y307000D02*
D03*
X106500Y308000D02*
D03*
X110500Y304000D02*
D03*
X109500Y299000D02*
D03*
X112000Y309500D02*
D03*
X112500Y286322D02*
D03*
X87000Y289000D02*
D03*
X77500Y293000D02*
D03*
X64500Y253500D02*
D03*
X60000Y249500D02*
D03*
X55500Y294500D02*
D03*
X63000Y276000D02*
D03*
X95000Y330500D02*
D03*
X75500Y340500D02*
D03*
X53000Y240000D02*
D03*
X116000Y304500D02*
D03*
X110000Y335500D02*
D03*
X79500Y242500D02*
D03*
X83500Y270000D02*
D03*
X108000Y355000D02*
D03*
X73908Y356500D02*
D03*
X137500Y328000D02*
D03*
X144061Y313616D02*
D03*
X105000Y319000D02*
D03*
X158000Y289000D02*
D03*
X162500Y299000D02*
D03*
X139000Y305750D02*
D03*
X138500Y283500D02*
D03*
X134000Y310500D02*
D03*
X131000Y299000D02*
D03*
X134000Y280500D02*
D03*
X139000Y10500D02*
D03*
X113000Y18000D02*
D03*
X13500Y277000D02*
D03*
X129000Y279000D02*
D03*
X19738Y297268D02*
D03*
X26250Y299250D02*
D03*
X48500Y261500D02*
D03*
X44000Y259000D02*
D03*
X83000Y138000D02*
D03*
X89000D02*
D03*
X85000Y156500D02*
D03*
X102478Y153522D02*
D03*
X71500Y121500D02*
D03*
X98500Y106000D02*
D03*
X96500Y123500D02*
D03*
X93000Y117500D02*
D03*
X89000Y97500D02*
D03*
X114000Y111500D02*
D03*
X97000Y95500D02*
D03*
X74500Y237000D02*
D03*
X88500Y210500D02*
D03*
X66500Y71500D02*
D03*
X106000Y50500D02*
D03*
X114000Y62104D02*
D03*
X80000Y25000D02*
D03*
X88500Y32500D02*
D03*
X91500Y38500D02*
D03*
X99000Y11500D02*
D03*
X64567Y19933D02*
D03*
X66000Y60500D02*
D03*
X66500Y66000D02*
D03*
X157630Y48130D02*
D03*
M02*
