G04*
G04 #@! TF.GenerationSoftware,Altium Limited,Altium Designer,23.4.1 (23)*
G04*
G04 Layer_Color=2752767*
%FSLAX25Y25*%
%MOIN*%
G70*
G04*
G04 #@! TF.SameCoordinates,3896D8D6-2970-4D3B-BD07-924AED3B3DE0*
G04*
G04*
G04 #@! TF.FilePolarity,Positive*
G04*
G01*
G75*
%ADD10C,0.01000*%
%ADD103C,0.00200*%
D10*
X102362Y169291D02*
Y192913D01*
X78740Y169291D02*
Y192913D01*
X0Y271654D02*
X78740Y192913D01*
X0Y271654D02*
Y362205D01*
Y90551D02*
X78740Y169291D01*
X102362Y192913D02*
X181102Y271654D01*
X102362Y169291D02*
X181102Y90551D01*
X0Y362205D02*
X181102D01*
X0Y0D02*
X181102D01*
Y90551D01*
Y271654D02*
Y362205D01*
X0Y0D02*
Y90551D01*
D103*
X105480Y38667D02*
Y40267D01*
X107080D01*
Y38667D01*
X105480D01*
X112551Y45738D02*
Y47338D01*
X114151D01*
Y45738D01*
X112551D01*
X119622Y52809D02*
Y54409D01*
X121222D01*
Y52809D01*
X119622D01*
X126693Y59880D02*
Y61480D01*
X128293D01*
Y59880D01*
X126693D01*
X133765Y66951D02*
Y68551D01*
X135364D01*
Y66951D01*
X133765D01*
X140835Y74022D02*
Y75622D01*
X142436D01*
Y74022D01*
X140835D01*
X147907Y81093D02*
Y82693D01*
X149507D01*
Y81093D01*
X147907D01*
X98409Y31596D02*
Y33196D01*
X100009D01*
Y31596D01*
X98409D01*
X31596Y98409D02*
Y100009D01*
X33196D01*
Y98409D01*
X31596D01*
X38667Y105480D02*
Y107080D01*
X40267D01*
Y105480D01*
X38667D01*
X45738Y112551D02*
Y114151D01*
X47338D01*
Y112551D01*
X45738D01*
X52809Y119622D02*
Y121222D01*
X54409D01*
Y119622D01*
X52809D01*
X59880Y126693D02*
Y128293D01*
X61480D01*
Y126693D01*
X59880D01*
X66951Y133764D02*
Y135364D01*
X68551D01*
Y133764D01*
X66951D01*
X74022Y140835D02*
Y142435D01*
X75622D01*
Y140835D01*
X74022D01*
X81093Y147906D02*
Y149506D01*
X82693D01*
Y147906D01*
X81093D01*
Y329009D02*
Y330609D01*
X82693D01*
Y329009D01*
X81093D01*
X74022Y321938D02*
Y323538D01*
X75622D01*
Y321938D01*
X74022D01*
X66951Y314867D02*
Y316467D01*
X68551D01*
Y314867D01*
X66951D01*
X59880Y307796D02*
Y309396D01*
X61480D01*
Y307796D01*
X59880D01*
X52809Y300725D02*
Y302325D01*
X54409D01*
Y300725D01*
X52809D01*
X45738Y293653D02*
Y295253D01*
X47338D01*
Y293653D01*
X45738D01*
X38667Y286582D02*
Y288182D01*
X40267D01*
Y286582D01*
X38667D01*
X31596Y279511D02*
Y281111D01*
X33196D01*
Y279511D01*
X31596D01*
X98409Y212698D02*
Y214298D01*
X100009D01*
Y212698D01*
X98409D01*
X147907Y262196D02*
Y263796D01*
X149507D01*
Y262196D01*
X147907D01*
X140835Y255124D02*
Y256725D01*
X142436D01*
Y255124D01*
X140835D01*
X133765Y248054D02*
Y249654D01*
X135364D01*
Y248054D01*
X133765D01*
X126693Y240982D02*
Y242582D01*
X128293D01*
Y240982D01*
X126693D01*
X119622Y233911D02*
Y235511D01*
X121222D01*
Y233911D01*
X119622D01*
X112551Y226840D02*
Y228440D01*
X114151D01*
Y226840D01*
X112551D01*
X105480Y219769D02*
Y221369D01*
X107080D01*
Y219769D01*
X105480D01*
X160617Y341720D02*
X161017Y342520D01*
X160617Y343320D01*
X161417Y342920D01*
X162217Y343320D01*
X161817Y342520D01*
X162217Y341720D01*
X161417Y342120D01*
X160617Y341720D01*
X172017D02*
X171217Y343320D01*
X172817D01*
X172017Y341720D01*
X166717Y332540D02*
X165917Y334140D01*
X167517D01*
X166717Y332540D01*
X156117D02*
X155317Y334140D01*
X156917D01*
X156117Y332540D01*
X150817Y341720D02*
X150017Y343320D01*
X151617D01*
X150817Y341720D01*
X156117Y350900D02*
X155317Y352500D01*
X156917D01*
X156117Y350900D01*
X166717D02*
X165917Y352500D01*
X167517D01*
X166717Y350900D01*
X18885Y341720D02*
X19285Y342520D01*
X18885Y343320D01*
X19685Y342920D01*
X20485Y343320D01*
X20085Y342520D01*
X20485Y341720D01*
X19685Y342120D01*
X18885Y341720D01*
X30285D02*
X29485Y343320D01*
X31085D01*
X30285Y341720D01*
X24985Y332540D02*
X24185Y334140D01*
X25785D01*
X24985Y332540D01*
X14385D02*
X13585Y334140D01*
X15185D01*
X14385Y332540D01*
X9085Y341720D02*
X8285Y343320D01*
X9885D01*
X9085Y341720D01*
X14385Y350900D02*
X13585Y352500D01*
X15185D01*
X14385Y350900D01*
X24985D02*
X24185Y352500D01*
X25785D01*
X24985Y350900D01*
X160617Y18885D02*
X161017Y19685D01*
X160617Y20485D01*
X161417Y20085D01*
X162217Y20485D01*
X161817Y19685D01*
X162217Y18885D01*
X161417Y19285D01*
X160617Y18885D01*
X172017D02*
X171217Y20485D01*
X172817D01*
X172017Y18885D01*
X166717Y9705D02*
X165917Y11305D01*
X167517D01*
X166717Y9705D01*
X156117D02*
X155317Y11305D01*
X156917D01*
X156117Y9705D01*
X150817Y18885D02*
X150017Y20485D01*
X151617D01*
X150817Y18885D01*
X156117Y28065D02*
X155317Y29665D01*
X156917D01*
X156117Y28065D01*
X166717D02*
X165917Y29665D01*
X167517D01*
X166717Y28065D01*
X18885Y18885D02*
X19285Y19685D01*
X18885Y20485D01*
X19685Y20085D01*
X20485Y20485D01*
X20085Y19685D01*
X20485Y18885D01*
X19685Y19285D01*
X18885Y18885D01*
X30285D02*
X29485Y20485D01*
X31085D01*
X30285Y18885D01*
X24985Y9705D02*
X24185Y11305D01*
X25785D01*
X24985Y9705D01*
X14385D02*
X13585Y11305D01*
X15185D01*
X14385Y9705D01*
X9085Y18885D02*
X8285Y20485D01*
X9885D01*
X9085Y18885D01*
X14385Y28065D02*
X13585Y29665D01*
X15185D01*
X14385Y28065D01*
X24985D02*
X24185Y29665D01*
X25785D01*
X24985Y28065D01*
X156417Y278413D02*
X156817Y278813D01*
X157217D01*
X156817Y279213D01*
X157217Y279613D01*
X156817D01*
X156417Y280013D01*
X156017Y279613D01*
X155617D01*
X156017Y279213D01*
X155617Y278813D01*
X156017D01*
X156417Y278413D01*
X166417D02*
X166817Y278813D01*
X167217D01*
X166817Y279213D01*
X167217Y279613D01*
X166817D01*
X166417Y280013D01*
X166017Y279613D01*
X165617D01*
X166017Y279213D01*
X165617Y278813D01*
X166017D01*
X166417Y278413D01*
X156417Y288413D02*
X156817Y288813D01*
X157217D01*
X156817Y289213D01*
X157217Y289613D01*
X156817D01*
X156417Y290013D01*
X156017Y289613D01*
X155617D01*
X156017Y289213D01*
X155617Y288813D01*
X156017D01*
X156417Y288413D01*
X166417D02*
X166817Y288813D01*
X167217D01*
X166817Y289213D01*
X167217Y289613D01*
X166817D01*
X166417Y290013D01*
X166017Y289613D01*
X165617D01*
X166017Y289213D01*
X165617Y288813D01*
X166017D01*
X166417Y288413D01*
X156417Y298413D02*
X156817Y298813D01*
X157217D01*
X156817Y299213D01*
X157217Y299613D01*
X156817D01*
X156417Y300013D01*
X156017Y299613D01*
X155617D01*
X156017Y299213D01*
X155617Y298813D01*
X156017D01*
X156417Y298413D01*
X166417D02*
X166817Y298813D01*
X167217D01*
X166817Y299213D01*
X167217Y299613D01*
X166817D01*
X166417Y300013D01*
X166017Y299613D01*
X165617D01*
X166017Y299213D01*
X165617Y298813D01*
X166017D01*
X166417Y298413D01*
X156417Y308413D02*
X156817Y308813D01*
X157217D01*
X156817Y309213D01*
X157217Y309613D01*
X156817D01*
X156417Y310013D01*
X156017Y309613D01*
X155617D01*
X156017Y309213D01*
X155617Y308813D01*
X156017D01*
X156417Y308413D01*
X166417D02*
X166817Y308813D01*
X167217D01*
X166817Y309213D01*
X167217Y309613D01*
X166817D01*
X166417Y310013D01*
X166017Y309613D01*
X165617D01*
X166017Y309213D01*
X165617Y308813D01*
X166017D01*
X166417Y308413D01*
X156417Y318413D02*
X156817Y318813D01*
X157217D01*
X156817Y319213D01*
X157217Y319613D01*
X156817D01*
X156417Y320013D01*
X156017Y319613D01*
X155617D01*
X156017Y319213D01*
X155617Y318813D01*
X156017D01*
X156417Y318413D01*
X166417D02*
X166817Y318813D01*
X167217D01*
X166817Y319213D01*
X167217Y319613D01*
X166817D01*
X166417Y320013D01*
X166017Y319613D01*
X165617D01*
X166017Y319213D01*
X165617Y318813D01*
X166017D01*
X166417Y318413D01*
X21542Y40538D02*
X21942D01*
X22342Y40938D01*
X22742Y40538D01*
X23142D01*
Y40938D01*
X22742Y41339D01*
X23142Y41739D01*
Y42138D01*
X22742D01*
X22342Y41739D01*
X21942Y42138D01*
X21542D01*
Y41739D01*
X21942Y41339D01*
X21542Y40938D01*
Y40538D01*
Y75972D02*
X21942D01*
X22342Y76372D01*
X22742Y75972D01*
X23142D01*
Y76372D01*
X22742Y76772D01*
X23142Y77172D01*
Y77572D01*
X22742D01*
X22342Y77172D01*
X21942Y77572D01*
X21542D01*
Y77172D01*
X21942Y76772D01*
X21542Y76372D01*
Y75972D01*
X5203Y76772D02*
X6003Y77572D01*
X6803Y76772D01*
X6003Y75972D01*
X5203Y76772D01*
Y41339D02*
X6003Y42138D01*
X6803Y41339D01*
X6003Y40538D01*
X5203Y41339D01*
X19573Y69634D02*
Y71234D01*
X21173D01*
Y69634D01*
X19573D01*
X19973Y70034D02*
Y70834D01*
X20773D01*
Y70034D01*
X19973D01*
X19573Y46878D02*
Y48478D01*
X21173D01*
Y46878D01*
X19573D01*
X19973Y47278D02*
Y48078D01*
X20773D01*
Y47278D01*
X19973D01*
X173228Y49318D02*
X173628Y49718D01*
X174028D01*
X173628Y50118D01*
X174028Y50518D01*
X173628D01*
X173228Y50918D01*
X172828Y50518D01*
X172428D01*
X172828Y50118D01*
X172428Y49718D01*
X172828D01*
X173228Y49318D01*
Y59318D02*
X173628Y59718D01*
X174028D01*
X173628Y60118D01*
X174028Y60518D01*
X173628D01*
X173228Y60918D01*
X172828Y60518D01*
X172428D01*
X172828Y60118D01*
X172428Y59718D01*
X172828D01*
X173228Y59318D01*
X48150Y14948D02*
X48550Y15348D01*
X48950D01*
X48550Y15748D01*
X48950Y16148D01*
X48550D01*
X48150Y16548D01*
X47750Y16148D01*
X47350D01*
X47750Y15748D01*
X47350Y15348D01*
X47750D01*
X48150Y14948D01*
X58150D02*
X58550Y15348D01*
X58950D01*
X58550Y15748D01*
X58950Y16148D01*
X58550D01*
X58150Y16548D01*
X57750Y16148D01*
X57350D01*
X57750Y15748D01*
X57350Y15348D01*
X57750D01*
X58150Y14948D01*
X52100Y80100D02*
Y79700D01*
X52900D01*
Y80100D01*
X53300D01*
Y80900D01*
X52900D01*
Y81300D01*
X52100D01*
Y80900D01*
X51700D01*
Y80100D01*
X52100D01*
X124600Y340600D02*
Y340200D01*
X125400D01*
Y340600D01*
X125800D01*
Y341400D01*
X125400D01*
Y341800D01*
X124600D01*
Y341400D01*
X124200D01*
Y340600D01*
X124600D01*
X108600Y352600D02*
Y352200D01*
X109400D01*
Y352600D01*
X109800D01*
Y353400D01*
X109400D01*
Y353800D01*
X108600D01*
Y353400D01*
X108200D01*
Y352600D01*
X108600D01*
X137100Y10100D02*
Y9700D01*
X137900D01*
Y10100D01*
X138300D01*
Y10900D01*
X137900D01*
Y11300D01*
X137100D01*
Y10900D01*
X136700D01*
Y10100D01*
X137100D01*
X88600Y210600D02*
Y210200D01*
X89400D01*
Y210600D01*
X89800D01*
Y211400D01*
X89400D01*
Y211800D01*
X88600D01*
Y211400D01*
X88200D01*
Y210600D01*
X88600D01*
X64100Y228600D02*
Y228200D01*
X64900D01*
Y228600D01*
X65300D01*
Y229400D01*
X64900D01*
Y229800D01*
X64100D01*
Y229400D01*
X63700D01*
Y228600D01*
X64100D01*
X54100Y238600D02*
Y238200D01*
X54900D01*
Y238600D01*
X55300D01*
Y239400D01*
X54900D01*
Y239800D01*
X54100D01*
Y239400D01*
X53700D01*
Y238600D01*
X54100D01*
X117100Y129600D02*
Y129200D01*
X117900D01*
Y129600D01*
X118300D01*
Y130400D01*
X117900D01*
Y130800D01*
X117100D01*
Y130400D01*
X116700D01*
Y129600D01*
X117100D01*
X105100Y124600D02*
Y124200D01*
X105900D01*
Y124600D01*
X106300D01*
Y125400D01*
X105900D01*
Y125800D01*
X105100D01*
Y125400D01*
X104700D01*
Y124600D01*
X105100D01*
X115100Y25600D02*
Y25200D01*
X115900D01*
Y25600D01*
X116300D01*
Y26400D01*
X115900D01*
Y26800D01*
X115100D01*
Y26400D01*
X114700D01*
Y25600D01*
X115100D01*
Y16100D02*
Y15700D01*
X115900D01*
Y16100D01*
X116300D01*
Y16900D01*
X115900D01*
Y17300D01*
X115100D01*
Y16900D01*
X114700D01*
Y16100D01*
X115100D01*
X106100Y21100D02*
Y20700D01*
X106900D01*
Y21100D01*
X107300D01*
Y21900D01*
X106900D01*
Y22300D01*
X106100D01*
Y21900D01*
X105700D01*
Y21100D01*
X106100D01*
X108100Y259100D02*
Y258700D01*
X108900D01*
Y259100D01*
X109300D01*
Y259900D01*
X108900D01*
Y260300D01*
X108100D01*
Y259900D01*
X107700D01*
Y259100D01*
X108100D01*
X37100Y249100D02*
Y248700D01*
X37900D01*
Y249100D01*
X38300D01*
Y249900D01*
X37900D01*
Y250300D01*
X37100D01*
Y249900D01*
X36700D01*
Y249100D01*
X37100D01*
X89100Y196600D02*
Y196200D01*
X89900D01*
Y196600D01*
X90300D01*
Y197400D01*
X89900D01*
Y197800D01*
X89100D01*
Y197400D01*
X88700D01*
Y196600D01*
X89100D01*
X86100Y281100D02*
Y280700D01*
X86900D01*
Y281100D01*
X87300D01*
Y281900D01*
X86900D01*
Y282300D01*
X86100D01*
Y281900D01*
X85700D01*
Y281100D01*
X86100D01*
X77600Y292100D02*
Y291700D01*
X78400D01*
Y292100D01*
X78800D01*
Y292900D01*
X78400D01*
Y293300D01*
X77600D01*
Y292900D01*
X77200D01*
Y292100D01*
X77600D01*
X130100Y272100D02*
Y271700D01*
X130900D01*
Y272100D01*
X131300D01*
Y272900D01*
X130900D01*
Y273300D01*
X130100D01*
Y272900D01*
X129700D01*
Y272100D01*
X130100D01*
X50100Y266100D02*
Y265700D01*
X50900D01*
Y266100D01*
X51300D01*
Y266900D01*
X50900D01*
Y267300D01*
X50100D01*
Y266900D01*
X49700D01*
Y266100D01*
X50100D01*
X47600Y246600D02*
Y246200D01*
X48400D01*
Y246600D01*
X48800D01*
Y247400D01*
X48400D01*
Y247800D01*
X47600D01*
Y247400D01*
X47200D01*
Y246600D01*
X47600D01*
X68600Y285600D02*
Y285200D01*
X69400D01*
Y285600D01*
X69800D01*
Y286400D01*
X69400D01*
Y286800D01*
X68600D01*
Y286400D01*
X68200D01*
Y285600D01*
X68600D01*
X54600Y293600D02*
Y293200D01*
X55400D01*
Y293600D01*
X55800D01*
Y294400D01*
X55400D01*
Y294800D01*
X54600D01*
Y294400D01*
X54200D01*
Y293600D01*
X54600D01*
X105100Y233600D02*
Y233200D01*
X105900D01*
Y233600D01*
X106300D01*
Y234400D01*
X105900D01*
Y234800D01*
X105100D01*
Y234400D01*
X104700D01*
Y233600D01*
X105100D01*
X37100Y275100D02*
Y274700D01*
X37900D01*
Y275100D01*
X38300D01*
Y275900D01*
X37900D01*
Y276300D01*
X37100D01*
Y275900D01*
X36700D01*
Y275100D01*
X37100D01*
X98600Y121100D02*
Y120700D01*
X99400D01*
Y121100D01*
X99800D01*
Y121900D01*
X99400D01*
Y122300D01*
X98600D01*
Y121900D01*
X98200D01*
Y121100D01*
X98600D01*
X86600Y113600D02*
Y113200D01*
X87400D01*
Y113600D01*
X87800D01*
Y114400D01*
X87400D01*
Y114800D01*
X86600D01*
Y114400D01*
X86200D01*
Y113600D01*
X86600D01*
X68100Y117600D02*
Y117200D01*
X68900D01*
Y117600D01*
X69300D01*
Y118400D01*
X68900D01*
Y118800D01*
X68100D01*
Y118400D01*
X67700D01*
Y117600D01*
X68100D01*
X63600Y112442D02*
Y112042D01*
X64400D01*
Y112442D01*
X64800D01*
Y113242D01*
X64400D01*
Y113642D01*
X63600D01*
Y113242D01*
X63200D01*
Y112442D01*
X63600D01*
X106600Y131100D02*
Y130700D01*
X107400D01*
Y131100D01*
X107800D01*
Y131900D01*
X107400D01*
Y132300D01*
X106600D01*
Y131900D01*
X106200D01*
Y131100D01*
X106600D01*
X52600Y344600D02*
Y344200D01*
X53400D01*
Y344600D01*
X53800D01*
Y345400D01*
X53400D01*
Y345800D01*
X52600D01*
Y345400D01*
X52200D01*
Y344600D01*
X52600D01*
X57100Y338600D02*
Y338200D01*
X57900D01*
Y338600D01*
X58300D01*
Y339400D01*
X57900D01*
Y339800D01*
X57100D01*
Y339400D01*
X56700D01*
Y338600D01*
X57100D01*
X73600Y351100D02*
Y350700D01*
X74400D01*
Y351100D01*
X74800D01*
Y351900D01*
X74400D01*
Y352300D01*
X73600D01*
Y351900D01*
X73200D01*
Y351100D01*
X73600D01*
X136153Y326653D02*
Y326253D01*
X136953D01*
Y326653D01*
X137353D01*
Y327453D01*
X136953D01*
Y327853D01*
X136153D01*
Y327453D01*
X135753D01*
Y326653D01*
X136153D01*
X122600Y310600D02*
Y310200D01*
X123400D01*
Y310600D01*
X123800D01*
Y311400D01*
X123400D01*
Y311800D01*
X122600D01*
Y311400D01*
X122200D01*
Y310600D01*
X122600D01*
X118600Y314100D02*
Y313700D01*
X119400D01*
Y314100D01*
X119800D01*
Y314900D01*
X119400D01*
Y315300D01*
X118600D01*
Y314900D01*
X118200D01*
Y314100D01*
X118600D01*
X113100D02*
Y313700D01*
X113900D01*
Y314100D01*
X114300D01*
Y314900D01*
X113900D01*
Y315300D01*
X113100D01*
Y314900D01*
X112700D01*
Y314100D01*
X113100D01*
X144600Y313100D02*
Y312700D01*
X145400D01*
Y313100D01*
X145800D01*
Y313900D01*
X145400D01*
Y314300D01*
X144600D01*
Y313900D01*
X144200D01*
Y313100D01*
X144600D01*
X34703Y49530D02*
Y49130D01*
X35503D01*
Y49530D01*
X35903D01*
Y50330D01*
X35503D01*
Y50730D01*
X34703D01*
Y50330D01*
X34303D01*
Y49530D01*
X34703D01*
X34600Y68100D02*
Y67700D01*
X35400D01*
Y68100D01*
X35800D01*
Y68900D01*
X35400D01*
Y69300D01*
X34600D01*
Y68900D01*
X34200D01*
Y68100D01*
X34600D01*
X125100Y252600D02*
Y252200D01*
X125900D01*
Y252600D01*
X126300D01*
Y253400D01*
X125900D01*
Y253800D01*
X125100D01*
Y253400D01*
X124700D01*
Y252600D01*
X125100D01*
X89100Y248100D02*
Y247700D01*
X89900D01*
Y248100D01*
X90300D01*
Y248900D01*
X89900D01*
Y249300D01*
X89100D01*
Y248900D01*
X88700D01*
Y248100D01*
X89100D01*
X105600Y269100D02*
Y268700D01*
X106400D01*
Y269100D01*
X106800D01*
Y269900D01*
X106400D01*
Y270300D01*
X105600D01*
Y269900D01*
X105200D01*
Y269100D01*
X105600D01*
X113100Y256600D02*
Y256200D01*
X113900D01*
Y256600D01*
X114300D01*
Y257400D01*
X113900D01*
Y257800D01*
X113100D01*
Y257400D01*
X112700D01*
Y256600D01*
X113100D01*
X100600Y312600D02*
Y312200D01*
X101400D01*
Y312600D01*
X101800D01*
Y313400D01*
X101400D01*
Y313800D01*
X100600D01*
Y313400D01*
X100200D01*
Y312600D01*
X100600D01*
X85244Y307005D02*
Y306605D01*
X86044D01*
Y307005D01*
X86444D01*
Y307805D01*
X86044D01*
Y308205D01*
X85244D01*
Y307805D01*
X84844D01*
Y307005D01*
X85244D01*
X85600Y313600D02*
Y313200D01*
X86400D01*
Y313600D01*
X86800D01*
Y314400D01*
X86400D01*
Y314800D01*
X85600D01*
Y314400D01*
X85200D01*
Y313600D01*
X85600D01*
X93100Y215529D02*
Y215129D01*
X93900D01*
Y215529D01*
X94300D01*
Y216329D01*
X93900D01*
Y216729D01*
X93100D01*
Y216329D01*
X92700D01*
Y215529D01*
X93100D01*
X73600Y267100D02*
Y266700D01*
X74400D01*
Y267100D01*
X74800D01*
Y267900D01*
X74400D01*
Y268300D01*
X73600D01*
Y267900D01*
X73200D01*
Y267100D01*
X73600D01*
X100600Y284100D02*
Y283700D01*
X101400D01*
Y284100D01*
X101800D01*
Y284900D01*
X101400D01*
Y285300D01*
X100600D01*
Y284900D01*
X100200D01*
Y284100D01*
X100600D01*
X124100Y272100D02*
Y271700D01*
X124900D01*
Y272100D01*
X125300D01*
Y272900D01*
X124900D01*
Y273300D01*
X124100D01*
Y272900D01*
X123700D01*
Y272100D01*
X124100D01*
X116600Y252100D02*
Y251700D01*
X117400D01*
Y252100D01*
X117800D01*
Y252900D01*
X117400D01*
Y253300D01*
X116600D01*
Y252900D01*
X116200D01*
Y252100D01*
X116600D01*
X69100Y231100D02*
Y230700D01*
X69900D01*
Y231100D01*
X70300D01*
Y231900D01*
X69900D01*
Y232300D01*
X69100D01*
Y231900D01*
X68700D01*
Y231100D01*
X69100D01*
X100600Y306600D02*
Y306200D01*
X101400D01*
Y306600D01*
X101800D01*
Y307400D01*
X101400D01*
Y307800D01*
X100600D01*
Y307400D01*
X100200D01*
Y306600D01*
X100600D01*
X106100Y307600D02*
Y307200D01*
X106900D01*
Y307600D01*
X107300D01*
Y308400D01*
X106900D01*
Y308800D01*
X106100D01*
Y308400D01*
X105700D01*
Y307600D01*
X106100D01*
X110100Y303600D02*
Y303200D01*
X110900D01*
Y303600D01*
X111300D01*
Y304400D01*
X110900D01*
Y304800D01*
X110100D01*
Y304400D01*
X109700D01*
Y303600D01*
X110100D01*
X109100Y298600D02*
Y298200D01*
X109900D01*
Y298600D01*
X110300D01*
Y299400D01*
X109900D01*
Y299800D01*
X109100D01*
Y299400D01*
X108700D01*
Y298600D01*
X109100D01*
X111600Y309100D02*
Y308700D01*
X112400D01*
Y309100D01*
X112800D01*
Y309900D01*
X112400D01*
Y310300D01*
X111600D01*
Y309900D01*
X111200D01*
Y309100D01*
X111600D01*
X112100Y285922D02*
Y285522D01*
X112900D01*
Y285922D01*
X113300D01*
Y286722D01*
X112900D01*
Y287122D01*
X112100D01*
Y286722D01*
X111700D01*
Y285922D01*
X112100D01*
X86600Y288600D02*
Y288200D01*
X87400D01*
Y288600D01*
X87800D01*
Y289400D01*
X87400D01*
Y289800D01*
X86600D01*
Y289400D01*
X86200D01*
Y288600D01*
X86600D01*
X64100Y253100D02*
Y252700D01*
X64900D01*
Y253100D01*
X65300D01*
Y253900D01*
X64900D01*
Y254300D01*
X64100D01*
Y253900D01*
X63700D01*
Y253100D01*
X64100D01*
X59600Y249100D02*
Y248700D01*
X60400D01*
Y249100D01*
X60800D01*
Y249900D01*
X60400D01*
Y250300D01*
X59600D01*
Y249900D01*
X59200D01*
Y249100D01*
X59600D01*
X62600Y275600D02*
Y275200D01*
X63400D01*
Y275600D01*
X63800D01*
Y276400D01*
X63400D01*
Y276800D01*
X62600D01*
Y276400D01*
X62200D01*
Y275600D01*
X62600D01*
X94600Y330100D02*
Y329700D01*
X95400D01*
Y330100D01*
X95800D01*
Y330900D01*
X95400D01*
Y331300D01*
X94600D01*
Y330900D01*
X94200D01*
Y330100D01*
X94600D01*
X75100Y340100D02*
Y339700D01*
X75900D01*
Y340100D01*
X76300D01*
Y340900D01*
X75900D01*
Y341300D01*
X75100D01*
Y340900D01*
X74700D01*
Y340100D01*
X75100D01*
X109600Y335100D02*
Y334700D01*
X110400D01*
Y335100D01*
X110800D01*
Y335900D01*
X110400D01*
Y336300D01*
X109600D01*
Y335900D01*
X109200D01*
Y335100D01*
X109600D01*
X79100Y242100D02*
Y241700D01*
X79900D01*
Y242100D01*
X80300D01*
Y242900D01*
X79900D01*
Y243300D01*
X79100D01*
Y242900D01*
X78700D01*
Y242100D01*
X79100D01*
X83100Y269600D02*
Y269200D01*
X83900D01*
Y269600D01*
X84300D01*
Y270400D01*
X83900D01*
Y270800D01*
X83100D01*
Y270400D01*
X82700D01*
Y269600D01*
X83100D01*
X104600Y318600D02*
Y318200D01*
X105400D01*
Y318600D01*
X105800D01*
Y319400D01*
X105400D01*
Y319800D01*
X104600D01*
Y319400D01*
X104200D01*
Y318600D01*
X104600D01*
X138600Y305350D02*
Y304950D01*
X139400D01*
Y305350D01*
X139800D01*
Y306150D01*
X139400D01*
Y306550D01*
X138600D01*
Y306150D01*
X138200D01*
Y305350D01*
X138600D01*
X138100Y283100D02*
Y282700D01*
X138900D01*
Y283100D01*
X139300D01*
Y283900D01*
X138900D01*
Y284300D01*
X138100D01*
Y283900D01*
X137700D01*
Y283100D01*
X138100D01*
X133600Y310100D02*
Y309700D01*
X134400D01*
Y310100D01*
X134800D01*
Y310900D01*
X134400D01*
Y311300D01*
X133600D01*
Y310900D01*
X133200D01*
Y310100D01*
X133600D01*
X130600Y298600D02*
Y298200D01*
X131400D01*
Y298600D01*
X131800D01*
Y299400D01*
X131400D01*
Y299800D01*
X130600D01*
Y299400D01*
X130200D01*
Y298600D01*
X130600D01*
X133600Y280100D02*
Y279700D01*
X134400D01*
Y280100D01*
X134800D01*
Y280900D01*
X134400D01*
Y281300D01*
X133600D01*
Y280900D01*
X133200D01*
Y280100D01*
X133600D01*
X13100Y276600D02*
Y276200D01*
X13900D01*
Y276600D01*
X14300D01*
Y277400D01*
X13900D01*
Y277800D01*
X13100D01*
Y277400D01*
X12700D01*
Y276600D01*
X13100D01*
X128600Y278600D02*
Y278200D01*
X129400D01*
Y278600D01*
X129800D01*
Y279400D01*
X129400D01*
Y279800D01*
X128600D01*
Y279400D01*
X128200D01*
Y278600D01*
X128600D01*
X19338Y296868D02*
Y296468D01*
X20138D01*
Y296868D01*
X20538D01*
Y297668D01*
X20138D01*
Y298068D01*
X19338D01*
Y297668D01*
X18938D01*
Y296868D01*
X19338D01*
X25850Y298850D02*
Y298450D01*
X26650D01*
Y298850D01*
X27050D01*
Y299650D01*
X26650D01*
Y300050D01*
X25850D01*
Y299650D01*
X25450D01*
Y298850D01*
X25850D01*
X43600Y258600D02*
Y258200D01*
X44400D01*
Y258600D01*
X44800D01*
Y259400D01*
X44400D01*
Y259800D01*
X43600D01*
Y259400D01*
X43200D01*
Y258600D01*
X43600D01*
X82600Y137600D02*
Y137200D01*
X83400D01*
Y137600D01*
X83800D01*
Y138400D01*
X83400D01*
Y138800D01*
X82600D01*
Y138400D01*
X82200D01*
Y137600D01*
X82600D01*
X84600Y156100D02*
Y155700D01*
X85400D01*
Y156100D01*
X85800D01*
Y156900D01*
X85400D01*
Y157300D01*
X84600D01*
Y156900D01*
X84200D01*
Y156100D01*
X84600D01*
X102078Y153122D02*
Y152722D01*
X102878D01*
Y153122D01*
X103278D01*
Y153922D01*
X102878D01*
Y154322D01*
X102078D01*
Y153922D01*
X101678D01*
Y153122D01*
X102078D01*
X88600Y97100D02*
Y96700D01*
X89400D01*
Y97100D01*
X89800D01*
Y97900D01*
X89400D01*
Y98300D01*
X88600D01*
Y97900D01*
X88200D01*
Y97100D01*
X88600D01*
X113600Y111100D02*
Y110700D01*
X114400D01*
Y111100D01*
X114800D01*
Y111900D01*
X114400D01*
Y112300D01*
X113600D01*
Y111900D01*
X113200D01*
Y111100D01*
X113600D01*
X96600Y95100D02*
Y94700D01*
X97400D01*
Y95100D01*
X97800D01*
Y95900D01*
X97400D01*
Y96300D01*
X96600D01*
Y95900D01*
X96200D01*
Y95100D01*
X96600D01*
X74100Y236600D02*
Y236200D01*
X74900D01*
Y236600D01*
X75300D01*
Y237400D01*
X74900D01*
Y237800D01*
X74100D01*
Y237400D01*
X73700D01*
Y236600D01*
X74100D01*
X66100Y71100D02*
Y70700D01*
X66900D01*
Y71100D01*
X67300D01*
Y71900D01*
X66900D01*
Y72300D01*
X66100D01*
Y71900D01*
X65700D01*
Y71100D01*
X66100D01*
X105600Y50100D02*
Y49700D01*
X106400D01*
Y50100D01*
X106800D01*
Y50900D01*
X106400D01*
Y51300D01*
X105600D01*
Y50900D01*
X105200D01*
Y50100D01*
X105600D01*
X113600Y61704D02*
Y61304D01*
X114400D01*
Y61704D01*
X114800D01*
Y62504D01*
X114400D01*
Y62904D01*
X113600D01*
Y62504D01*
X113200D01*
Y61704D01*
X113600D01*
X79600Y24600D02*
Y24200D01*
X80400D01*
Y24600D01*
X80800D01*
Y25400D01*
X80400D01*
Y25800D01*
X79600D01*
Y25400D01*
X79200D01*
Y24600D01*
X79600D01*
X88100Y32100D02*
Y31700D01*
X88900D01*
Y32100D01*
X89300D01*
Y32900D01*
X88900D01*
Y33300D01*
X88100D01*
Y32900D01*
X87700D01*
Y32100D01*
X88100D01*
X91100Y38100D02*
Y37700D01*
X91900D01*
Y38100D01*
X92300D01*
Y38900D01*
X91900D01*
Y39300D01*
X91100D01*
Y38900D01*
X90700D01*
Y38100D01*
X91100D01*
X64167Y19533D02*
Y19133D01*
X64967D01*
Y19533D01*
X65367D01*
Y20333D01*
X64967D01*
Y20733D01*
X64167D01*
Y20333D01*
X63767D01*
Y19533D01*
X64167D01*
X65600Y60100D02*
Y59700D01*
X66400D01*
Y60100D01*
X66800D01*
Y60900D01*
X66400D01*
Y61300D01*
X65600D01*
Y60900D01*
X65200D01*
Y60100D01*
X65600D01*
X66100Y65600D02*
Y65200D01*
X66900D01*
Y65600D01*
X67300D01*
Y66400D01*
X66900D01*
Y66800D01*
X66100D01*
Y66400D01*
X65700D01*
Y65600D01*
X66100D01*
M02*
