M48
;Layer_Color=9474304
;FILE_FORMAT=2:4
INCH,LZ
;TYPE=PLATED
T1F00S00C0.0120
T3F00S00C0.0354
T4F00S00C0.0360
T5F00S00C0.0400
T6F00S00C0.1250
%
T01
X006457Y001993
X008Y0025
X00885Y00325
X00915Y00385
X0106Y00505
X0114Y00621
X0113Y0018
X0099Y00115
X0139Y00105
X0066Y00605
X00665Y0066
Y00715
X0089Y00975
X0097Y00955
X00985Y0106
X0093Y01175
X00965Y01235
X0089Y0138
X0083
X00715Y01215
X0114Y01115
X010248Y015352
X015763Y004813
X0158Y0289
X01625Y0299
X0139Y030575
X0134Y03105
X0131Y0299
X0116Y03045
X01105Y0304
X01095Y0299
X01065Y0308
X0101Y0307
X0112Y03095
X01125Y028632
X0101Y02845
X0087Y0289
X0086Y02805
X00835Y027
X0074Y02675
X00695Y0257
X00645Y02535
X006Y02495
X0053Y024
X00745Y0237
X00695Y02315
X00795Y02425
X00895Y02485
X01095Y026
X01135Y0257
X0117Y02525
X01255Y0253
X01245Y02725
X0129Y0279
X0134Y02805
X01385Y02835
X0132Y02685
X0106Y02695
X010494Y023216
X00935Y021593
X00885Y02105
X0091Y01985
X00735Y0213
X0085Y01565
X0063Y0276
X0069Y02845
X00775Y0293
X008564Y03074
X00555Y02945
X0053Y0268
X00485Y02615
X0044Y0259
X00135Y0277
X001974Y029727
X002625Y029925
X0086Y0314
X0101Y0313
X0105Y0319
X0095Y03305
X011Y03355
X0108Y0355
X007391Y03565
X00755Y03405
X01375Y0328
X014406Y031362
T03
X004815Y001575
X005815
X017323Y005012
Y006012
T04
X009921Y00324
X010628Y003947
X011335Y004654
X012042Y005361
X012749Y006068
X013456Y006775
X014164Y007482
X014871Y008189
X003947Y010628
X00324Y009921
X004654Y011335
X005361Y012042
X006068Y012749
X006775Y013456
X007482Y014164
X008189Y014871
X009921Y02135
X010628Y022057
X011335Y022764
X012042Y023471
X012749Y024178
X013456Y024885
X014164Y025592
X014871Y0263
X003947Y028738
X00324Y028031
X004654Y029445
X005361Y030152
X006068Y03086
X006775Y031567
X007482Y032274
X008189Y032981
T05
X001438Y001051
X002499
X003029Y001969
X002499Y002886
X001438
X000909Y001969
X015082
X015612Y002886
Y001051
X016672
X017202Y001969
X016672Y002886
X015612Y033334
X015082Y034252
X015612Y03517
X002499
X001438
X000909Y034252
X001438Y033334
X002499
X003029Y034252
X017202
X016672Y03517
Y033334
T06
X001969Y001969
X016142
X001969Y034252
X016142
M30
