G04*
G04 #@! TF.GenerationSoftware,Altium Limited,Altium Designer,23.4.1 (23)*
G04*
G04 Layer_Color=8388736*
%FSLAX25Y25*%
%MOIN*%
G70*
G04*
G04 #@! TF.SameCoordinates,299D72F2-6D74-4580-A0ED-951F05C7E99A*
G04*
G04*
G04 #@! TF.FilePolarity,Negative*
G04*
G01*
G75*
%ADD10C,0.01000*%
%ADD11R,0.07099X0.07099*%
%ADD12C,0.07099*%
%ADD13O,0.09855X0.05524*%
%ADD14O,0.08674X0.05524*%
%ADD15C,0.03753*%
%ADD16C,0.04800*%
%ADD17C,0.30800*%
%ADD18C,0.06800*%
%ADD19R,0.07493X0.07493*%
%ADD20C,0.07493*%
D10*
X102362Y169291D02*
Y192913D01*
X78740Y169291D02*
Y192913D01*
X0Y271654D02*
X78740Y192913D01*
X0Y271654D02*
Y362205D01*
Y90551D02*
X78740Y169291D01*
X102362Y192913D02*
X181102Y271654D01*
X102362Y169291D02*
X181102Y90551D01*
X0Y362205D02*
X181102D01*
X0Y0D02*
X181102D01*
Y90551D01*
Y271654D02*
Y362205D01*
X0Y0D02*
Y90551D01*
D11*
X156417Y279213D02*
D03*
D12*
X166417D02*
D03*
X156417Y289213D02*
D03*
X166417D02*
D03*
X156417Y299213D02*
D03*
X166417D02*
D03*
X156417Y309213D02*
D03*
X166417D02*
D03*
X156417Y319213D02*
D03*
X166417D02*
D03*
D13*
X26279Y41338D02*
D03*
X26279Y76771D02*
D03*
D14*
X9940Y76772D02*
D03*
X9940Y41339D02*
D03*
D15*
X24310Y70434D02*
D03*
Y47678D02*
D03*
D16*
X166717Y351700D02*
D03*
X156117D02*
D03*
X150817Y342520D02*
D03*
X156117Y333340D02*
D03*
X166717D02*
D03*
X172017Y342520D02*
D03*
X30285D02*
D03*
X24985Y333340D02*
D03*
X14385D02*
D03*
X9085Y342520D02*
D03*
X14385Y351700D02*
D03*
X24985D02*
D03*
X30285Y19685D02*
D03*
X24985Y10505D02*
D03*
X14385D02*
D03*
X9085Y19685D02*
D03*
X14385Y28865D02*
D03*
X24985D02*
D03*
X172017Y19685D02*
D03*
X166717Y10505D02*
D03*
X156117D02*
D03*
X150817Y19685D02*
D03*
X156117Y28865D02*
D03*
X166717D02*
D03*
D17*
X161417Y342520D02*
D03*
X19685D02*
D03*
Y19685D02*
D03*
X161417D02*
D03*
D18*
X106280Y220569D02*
D03*
X113351Y227640D02*
D03*
X120422Y234712D02*
D03*
X127493Y241782D02*
D03*
X134564Y248854D02*
D03*
X141635Y255925D02*
D03*
X148706Y262996D02*
D03*
X99209Y213498D02*
D03*
X32396Y280311D02*
D03*
X39467Y287382D02*
D03*
X46538Y294454D02*
D03*
X53609Y301525D02*
D03*
X60680Y308596D02*
D03*
X67751Y315667D02*
D03*
X74822Y322738D02*
D03*
X81893Y329809D02*
D03*
X106280Y39467D02*
D03*
X113351Y46538D02*
D03*
X120422Y53609D02*
D03*
X127493Y60680D02*
D03*
X134564Y67751D02*
D03*
X141635Y74822D02*
D03*
X148706Y81893D02*
D03*
X99209Y32396D02*
D03*
X32396Y99209D02*
D03*
X39467Y106280D02*
D03*
X46538Y113351D02*
D03*
X53609Y120422D02*
D03*
X60680Y127493D02*
D03*
X67751Y134564D02*
D03*
X74822Y141635D02*
D03*
X81893Y148706D02*
D03*
D19*
X173228Y50118D02*
D03*
X58150Y15748D02*
D03*
D20*
X173228Y60118D02*
D03*
X48150Y15748D02*
D03*
M02*
