G04*
G04 #@! TF.GenerationSoftware,Altium Limited,Altium Designer,23.4.1 (23)*
G04*
G04 Layer_Color=32896*
%FSLAX25Y25*%
%MOIN*%
G70*
G04*
G04 #@! TF.SameCoordinates,F4368ACF-6DCD-49CB-89D3-828AB3F38D71*
G04*
G04*
G04 #@! TF.FilePolarity,Positive*
G04*
G01*
G75*
%ADD10C,0.01000*%
%ADD18C,0.01200*%
%ADD61C,0.02000*%
%ADD89C,0.00984*%
%ADD90C,0.02362*%
%ADD91C,0.00591*%
%ADD92C,0.00800*%
%ADD93C,0.01968*%
%ADD94C,0.00600*%
%ADD95C,0.00787*%
%ADD96C,0.00700*%
D10*
X86375Y290698D02*
G03*
X89910Y287162I1768J-1768D01*
G01*
X102179Y232283D02*
G03*
X102179Y232283I-492J0D01*
G01*
X117871Y133217D02*
G03*
X121406Y129682I1768J-1768D01*
G01*
X42613Y345308D02*
X44650Y347345D01*
X60151Y327770D02*
X62188Y329807D01*
X50872Y353568D02*
X53192Y355887D01*
X68411Y336029D02*
X70730Y338349D01*
X42613Y345308D02*
X60151Y327770D01*
X53192Y355887D02*
X70730Y338349D01*
X53035Y348435D02*
X55086Y350485D01*
X64985Y340586D01*
X62935Y338535D02*
X64985Y340586D01*
X51621Y341222D02*
X55793Y337050D01*
X55086Y340586D02*
X56924Y342424D01*
X58197Y343697D02*
X60036Y345535D01*
X54908Y237311D02*
X97335Y279737D01*
X36524Y255696D02*
X54908Y237311D01*
X36524Y255696D02*
X78950Y298122D01*
X86375Y290698D01*
X89910Y287162D02*
X97335Y279737D01*
X49400Y22548D02*
X57349D01*
X38440Y25078D02*
X41520D01*
X49400D01*
X57349Y22548D02*
Y25078D01*
X68139D01*
X49400Y22548D02*
Y25078D01*
X38440Y1948D02*
X68139D01*
X38440D02*
Y25078D01*
X68139Y1948D02*
Y25078D01*
X102035Y227760D02*
X103775Y229500D01*
Y235067D01*
X102035Y236807D02*
X103775Y235067D01*
X90551Y216276D02*
X102035Y227760D01*
X74544Y232283D02*
X90551Y216276D01*
X74544Y232283D02*
X90551Y248291D01*
X102035Y236807D01*
X492Y41693D02*
Y76417D01*
Y41732D02*
X5925D01*
X489Y76415D02*
X5809D01*
X15650Y41732D02*
X20531D01*
X15838Y76378D02*
X20720D01*
X121406Y129682D02*
X128831Y122257D01*
X110446Y140642D02*
X117871Y133217D01*
X68020Y98215D02*
X110446Y140642D01*
X68020Y98215D02*
X86404Y79831D01*
X128831Y122257D01*
X58455Y32196D02*
X58555Y30496D01*
X58455Y32196D02*
X59155Y31596D01*
X58955Y30996D02*
X59155Y31596D01*
X58455Y40070D02*
X58555Y38370D01*
X58455Y40070D02*
X59155Y39470D01*
X58955Y38870D02*
X59155Y39470D01*
X81501Y18998D02*
X82501Y19998D01*
X84500D01*
X85500Y18998D01*
Y15000D01*
X84500Y14000D01*
X82501D01*
X81501Y15000D01*
Y16999D01*
X83501D01*
X79502Y14000D02*
Y19998D01*
X75503Y14000D01*
Y19998D01*
X73504D02*
Y14000D01*
X70505D01*
X69505Y15000D01*
Y18998D01*
X70505Y19998D01*
X73504D01*
X102500D02*
Y14000D01*
X99501D01*
X98501Y15000D01*
Y15999D01*
X99501Y16999D01*
X102500D01*
X99501D01*
X98501Y17999D01*
Y18998D01*
X99501Y19998D01*
X102500D01*
X96502Y14000D02*
Y17999D01*
X94503Y19998D01*
X92503Y17999D01*
Y14000D01*
Y16999D01*
X96502D01*
X90504Y19998D02*
X86505D01*
X88504D01*
Y14000D01*
X102362Y169291D02*
Y192913D01*
X78740Y169291D02*
Y192913D01*
X0Y271654D02*
X78740Y192913D01*
X0Y271654D02*
Y362205D01*
Y90551D02*
X78740Y169291D01*
X102362Y192913D02*
X181102Y271654D01*
X102362Y169291D02*
X181102Y90551D01*
X0Y362205D02*
X181102D01*
X0Y0D02*
X181102D01*
Y90551D01*
Y271654D02*
Y362205D01*
X0Y0D02*
Y90551D01*
D18*
X171302Y83800D02*
X170302Y82800D01*
Y80801D01*
X171302Y79801D01*
X172301D01*
X173301Y80801D01*
Y81801D01*
Y80801D01*
X174301Y79801D01*
X175300D01*
X176300Y80801D01*
Y82800D01*
X175300Y83800D01*
X170302Y77802D02*
X174301D01*
X176300Y75803D01*
X174301Y73803D01*
X170302D01*
X171302Y71804D02*
X170302Y70804D01*
Y68805D01*
X171302Y67805D01*
X172301D01*
X173301Y68805D01*
Y69805D01*
Y68805D01*
X174301Y67805D01*
X175300D01*
X176300Y68805D01*
Y70804D01*
X175300Y71804D01*
D61*
X102597Y278809D02*
G03*
X102597Y278809I-492J0D01*
G01*
X134093Y121328D02*
G03*
X134093Y121328I-492J0D01*
G01*
D89*
X89849Y312694D02*
G03*
X89849Y312694I-492J0D01*
G01*
X135335Y8464D02*
G03*
X135335Y8464I-492J0D01*
G01*
X63681Y58268D02*
G03*
X63681Y58268I-492J0D01*
G01*
D90*
X101674Y311024D02*
G03*
X101674Y311024I-1181J0D01*
G01*
D91*
X133287Y15413D02*
G03*
X133287Y15413I-1000J0D01*
G01*
D92*
X86614Y66898D02*
G03*
X88614Y68898I0J2000D01*
G01*
X84614Y68898D02*
G03*
X86614Y66898I2000J0D01*
G01*
X91982Y335043D02*
X105901Y348962D01*
X91527Y335497D02*
X91982Y335043D01*
X105447Y349416D02*
X105901Y348962D01*
X96993Y357871D02*
X97447Y357417D01*
X83073Y343951D02*
X83528Y343496D01*
X83073Y343951D02*
X96993Y357871D01*
X88614Y68898D02*
X92614D01*
X80614D02*
X84614D01*
X142498Y311212D02*
X139833D01*
X141165D01*
Y307213D01*
X138500Y311212D02*
X137167D01*
X137833D01*
Y307213D01*
X138500D01*
X137167D01*
X133168Y311212D02*
X134501D01*
X135167Y310545D01*
Y307880D01*
X134501Y307213D01*
X133168D01*
X132502Y307880D01*
Y310545D01*
X133168Y311212D01*
X142498Y301212D02*
X139833D01*
X141165D01*
Y297213D01*
X138500Y301212D02*
X137167D01*
X137833D01*
Y297213D01*
X138500D01*
X137167D01*
X133168Y301212D02*
X134501D01*
X135167Y300546D01*
Y297880D01*
X134501Y297213D01*
X133168D01*
X132502Y297880D01*
Y300546D01*
X133168Y301212D01*
X154417Y325713D02*
Y327045D01*
Y326379D01*
X158416D01*
X157750Y325713D01*
Y329045D02*
X158416Y329711D01*
Y331044D01*
X157750Y331711D01*
X155084D01*
X154417Y331044D01*
Y329711D01*
X155084Y329045D01*
X157750D01*
X164417Y270713D02*
Y272045D01*
Y271379D01*
X168416D01*
X167750Y270713D01*
X154417Y272378D02*
Y269713D01*
X157083Y272378D01*
X157750D01*
X158416Y271712D01*
Y270379D01*
X157750Y269713D01*
X165084Y326213D02*
X164417Y326879D01*
Y328212D01*
X165084Y328878D01*
X167750D01*
X168416Y328212D01*
Y326879D01*
X167750Y326213D01*
X167083D01*
X166417Y326879D01*
Y328878D01*
X140166Y290546D02*
X140832Y291212D01*
X142165D01*
X142832Y290546D01*
Y287880D01*
X142165Y287213D01*
X140832D01*
X140166Y287880D01*
Y289213D01*
X141499D01*
X138833Y287213D02*
Y291212D01*
X136167Y287213D01*
Y291212D01*
X134834D02*
Y287213D01*
X132835D01*
X132168Y287880D01*
Y290546D01*
X132835Y291212D01*
X134834D01*
X142832Y281212D02*
X140166D01*
X141499D01*
Y277213D01*
X136167Y280545D02*
X136834Y281212D01*
X138166D01*
X138833Y280545D01*
Y277880D01*
X138166Y277213D01*
X136834D01*
X136167Y277880D01*
X134834Y281212D02*
Y277213D01*
Y278546D01*
X132168Y281212D01*
X134168Y279213D01*
X132168Y277213D01*
D93*
X97223Y71055D02*
G03*
X97223Y71055I-608J0D01*
G01*
D94*
X103803Y260515D02*
X112015Y252303D01*
X108197Y248485D02*
X112015Y252303D01*
X99985Y256697D02*
X108197Y248485D01*
X99985Y256697D02*
X103803Y260515D01*
X111460Y235642D02*
X119673Y243854D01*
X107642Y239460D02*
X111460Y235642D01*
X107642Y239460D02*
X115854Y247673D01*
X119673Y243854D01*
X154800Y58693D02*
Y70307D01*
X160200D01*
Y58693D02*
Y70307D01*
X154800Y58693D02*
X160200D01*
X125803Y336515D02*
X134015Y328303D01*
X130197Y324485D02*
X134015Y328303D01*
X121985Y332697D02*
X130197Y324485D01*
X121985Y332697D02*
X125803Y336515D01*
X166299Y58700D02*
Y69300D01*
X161699D02*
X166299D01*
X163025Y63600D02*
X165025D01*
X163025D02*
X164025Y64600D01*
X165025Y63600D01*
X161699Y58700D02*
Y69300D01*
Y58700D02*
X166299D01*
X162500Y70100D02*
X165500D01*
X115308Y276990D02*
X118278Y279959D01*
X111419Y280879D02*
X114389Y283849D01*
X120541Y282222D02*
X123510Y285192D01*
X116722Y286041D02*
X119692Y289010D01*
X111485Y280803D02*
X115303Y276985D01*
X119697Y289015D02*
X123515Y285197D01*
X117783Y283283D02*
X118136Y283636D01*
X116864Y282364D02*
X117217Y282717D01*
X116510Y283424D02*
X117924Y282010D01*
X117076Y283990D02*
X118490Y282576D01*
X140541Y321778D02*
X143510Y318808D01*
X136652Y317889D02*
X139621Y314919D01*
X135308Y327010D02*
X138278Y324041D01*
X131490Y323192D02*
X134459Y320222D01*
X139697Y314985D02*
X143515Y318803D01*
X131485Y323197D02*
X135303Y327015D01*
X136864Y321636D02*
X137217Y321283D01*
X137783Y320717D02*
X138136Y320364D01*
X137076Y320010D02*
X138490Y321424D01*
X136510Y320576D02*
X137924Y321990D01*
X109722Y349541D02*
X112692Y352510D01*
X113611Y345652D02*
X116581Y348621D01*
X104490Y344308D02*
X107459Y347278D01*
X108308Y340490D02*
X111278Y343459D01*
X112697Y352515D02*
X116515Y348697D01*
X104485Y344303D02*
X108303Y340485D01*
X109864Y345864D02*
X110217Y346217D01*
X110783Y346783D02*
X111136Y347136D01*
X110076Y347490D02*
X111490Y346076D01*
X109510Y346924D02*
X110924Y345510D01*
X68198Y351620D02*
X71168Y348650D01*
X64309Y347731D02*
X67279Y344761D01*
X62966Y356853D02*
X65936Y353883D01*
X59147Y353034D02*
X62117Y350064D01*
X67355Y344827D02*
X71173Y348645D01*
X59142Y353039D02*
X62961Y356858D01*
X64521Y351479D02*
X64875Y351125D01*
X65441Y350559D02*
X65794Y350206D01*
X64733Y349852D02*
X66148Y351267D01*
X64168Y350418D02*
X65582Y351832D01*
X100722Y340541D02*
X103692Y343510D01*
X104611Y336651D02*
X107581Y339621D01*
X95490Y335308D02*
X98459Y338278D01*
X99308Y331490D02*
X102278Y334459D01*
X103697Y343515D02*
X107515Y339697D01*
X95485Y335303D02*
X99303Y331485D01*
X100864Y336864D02*
X101217Y337217D01*
X101783Y337783D02*
X102136Y338136D01*
X101076Y338490D02*
X102490Y337076D01*
X100510Y337924D02*
X101924Y336510D01*
X80808Y344490D02*
X83778Y347459D01*
X76919Y348379D02*
X79889Y351348D01*
X86041Y349722D02*
X89010Y352692D01*
X82222Y353541D02*
X85192Y356510D01*
X76985Y348303D02*
X80803Y344485D01*
X85197Y356515D02*
X89015Y352697D01*
X83283Y350783D02*
X83636Y351136D01*
X82364Y349864D02*
X82717Y350217D01*
X82010Y350924D02*
X83424Y349510D01*
X82576Y351490D02*
X83990Y350076D01*
X88803Y301015D02*
X97015Y292803D01*
X93197Y288985D02*
X97015Y292803D01*
X84985Y297197D02*
X93197Y288985D01*
X84985Y297197D02*
X88803Y301015D01*
X75990Y306192D02*
X78959Y303222D01*
X79879Y310081D02*
X82849Y307111D01*
X81222Y300959D02*
X84192Y297990D01*
X85041Y304778D02*
X88010Y301808D01*
X75985Y306197D02*
X79803Y310015D01*
X84197Y297985D02*
X88015Y301803D01*
X82283Y303717D02*
X82636Y303364D01*
X81364Y304636D02*
X81717Y304283D01*
X81010Y303576D02*
X82424Y304990D01*
X81576Y303010D02*
X82990Y304424D01*
X84222Y323541D02*
X87192Y326510D01*
X88111Y319652D02*
X91081Y322621D01*
X78990Y318308D02*
X81959Y321278D01*
X82808Y314490D02*
X85778Y317459D01*
X87197Y326515D02*
X91015Y322697D01*
X78985Y318303D02*
X82803Y314485D01*
X84364Y319864D02*
X84717Y320217D01*
X85283Y320783D02*
X85636Y321136D01*
X84576Y321490D02*
X85990Y320076D01*
X84010Y320924D02*
X85424Y319510D01*
X94842Y348224D02*
X96256Y346810D01*
X94135Y344689D02*
X96256Y346810D01*
X92720Y346103D02*
X94135Y344689D01*
X92720Y346103D02*
X94842Y348224D01*
X95902Y342214D02*
X96256Y342568D01*
X91660Y349285D02*
X93074Y350699D01*
X91660Y349285D02*
X92720Y348224D01*
X96256Y342568D02*
X97317Y343628D01*
X96256Y344689D02*
X97317Y343628D01*
X95195D02*
X97317Y345750D01*
X91660Y347164D02*
X93781Y349285D01*
X14536Y289179D02*
X15951Y287765D01*
X13971Y288613D02*
X15385Y287199D01*
X14324Y287553D02*
X14678Y287906D01*
X15244Y288472D02*
X15597Y288825D01*
X17158Y294204D02*
X20976Y290386D01*
X8945Y285992D02*
X12764Y282174D01*
X14183Y291230D02*
X17153Y294199D01*
X18001Y287411D02*
X20971Y290381D01*
X8879Y286068D02*
X11849Y289037D01*
X12769Y282179D02*
X15739Y285148D01*
X19261Y284454D02*
X20675Y283040D01*
X18695Y283889D02*
X20109Y282475D01*
X19049Y282828D02*
X19402Y283182D01*
X19968Y283747D02*
X20321Y284101D01*
X21882Y289480D02*
X25701Y285662D01*
X13670Y281267D02*
X17488Y277449D01*
X18907Y286505D02*
X21877Y289475D01*
X22726Y282687D02*
X25695Y285657D01*
X13604Y281343D02*
X16574Y284313D01*
X17493Y277454D02*
X20463Y280424D01*
X40607Y29626D02*
Y41240D01*
X46007D01*
Y29626D02*
Y41240D01*
X40607Y29626D02*
X46007D01*
X37500Y59505D02*
X49114D01*
X37500D02*
Y64905D01*
X49114D01*
Y59505D02*
Y64905D01*
X37500Y53206D02*
X49114D01*
X37500D02*
Y58605D01*
X49114D01*
Y53206D02*
Y58605D01*
X72933Y28796D02*
X84547D01*
X72933D02*
Y34196D01*
X84547D01*
Y28796D02*
Y34196D01*
X108999Y57185D02*
Y68799D01*
X103599Y57185D02*
X108999D01*
X103599D02*
Y68799D01*
X108999D01*
X72933Y35095D02*
X84547D01*
X72933D02*
Y40495D01*
X84547D01*
Y35095D02*
Y40495D01*
X44907Y52306D02*
X49107D01*
X44907Y46806D02*
X49107D01*
X37507Y52306D02*
X41707D01*
X37507Y46906D02*
X41707D01*
X49114D02*
Y52306D01*
X37500Y46906D02*
Y52306D01*
X42407Y49606D02*
X42907D01*
X43707D02*
X44207D01*
X43707Y48606D02*
Y50606D01*
X42907Y48606D02*
Y50606D01*
X44907Y71204D02*
X49107D01*
X44907Y65704D02*
X49107D01*
X37507Y71204D02*
X41707D01*
X37507Y65804D02*
X41707D01*
X49114D02*
Y71204D01*
X37500Y65804D02*
Y71204D01*
X42407Y68504D02*
X42907D01*
X43707D02*
X44207D01*
X43707Y67504D02*
Y69504D01*
X42907Y67504D02*
Y69504D01*
X72940Y41394D02*
X77140D01*
X72940Y46894D02*
X77140D01*
X80340Y41394D02*
X84540D01*
X80340Y46795D02*
X84540D01*
X72933Y41394D02*
Y46795D01*
X84547Y41394D02*
Y46795D01*
X79140Y44094D02*
X79640D01*
X77840D02*
X78340D01*
Y43095D02*
Y45094D01*
X79140Y43095D02*
Y45094D01*
X96088Y46795D02*
X100288D01*
X96088Y41295D02*
X100288D01*
X88688Y46795D02*
X92888D01*
X88688Y41394D02*
X92888D01*
X100295D02*
Y46795D01*
X88681Y41394D02*
Y46795D01*
X93588Y44094D02*
X94088D01*
X94888D02*
X95388D01*
X94888Y43095D02*
Y45094D01*
X94088Y43095D02*
Y45094D01*
X161300Y52781D02*
Y56981D01*
X166800Y52781D02*
Y56981D01*
X161300Y45381D02*
Y49581D01*
X166700Y45381D02*
Y49581D01*
X161300Y56988D02*
X166700D01*
X161300Y45374D02*
X166700D01*
X164000Y50281D02*
Y50781D01*
Y51581D02*
Y52081D01*
X163000Y51581D02*
X165000D01*
X163000Y50781D02*
X165000D01*
X108999Y6011D02*
Y10211D01*
X103499Y6011D02*
Y10211D01*
X108999Y13411D02*
Y17611D01*
X103599Y13411D02*
Y17611D01*
Y6004D02*
X108999D01*
X103599Y17618D02*
X108999D01*
X106299Y12211D02*
Y12711D01*
Y10911D02*
Y11411D01*
X105299D02*
X107299D01*
X105299Y12211D02*
X107299D01*
X83541Y215278D02*
X86510Y212308D01*
X79651Y211389D02*
X82621Y208419D01*
X78308Y220510D02*
X81278Y217541D01*
X74490Y216692D02*
X77459Y213722D01*
X82697Y208485D02*
X86515Y212303D01*
X74485Y216697D02*
X78303Y220515D01*
X79864Y215136D02*
X80217Y214783D01*
X80783Y214217D02*
X81136Y213864D01*
X80076Y213510D02*
X81490Y214924D01*
X79510Y214076D02*
X80924Y215490D01*
X19575Y275819D02*
X27788Y267607D01*
X19575Y275819D02*
X23393Y279638D01*
X31606Y271425D01*
X27788Y267607D02*
X31606Y271425D01*
X70756Y129299D02*
X78969Y137512D01*
X82787Y133693D01*
X74575Y125481D02*
X82787Y133693D01*
X70756Y129299D02*
X74575Y125481D01*
X104541Y250778D02*
X107510Y247808D01*
X100652Y246889D02*
X103621Y243919D01*
X99308Y256010D02*
X102278Y253041D01*
X95490Y252192D02*
X98459Y249222D01*
X103697Y243985D02*
X107515Y247803D01*
X95485Y252197D02*
X99303Y256015D01*
X100864Y250636D02*
X101217Y250283D01*
X101783Y249717D02*
X102136Y249364D01*
X101076Y249010D02*
X102490Y250424D01*
X100510Y249576D02*
X101924Y250990D01*
X87901Y157142D02*
X92101D01*
X87901Y162643D02*
X92101D01*
X95301Y157142D02*
X99501D01*
X95301Y162542D02*
X99501D01*
X87894Y157142D02*
Y162542D01*
X99508Y157142D02*
Y162542D01*
X94101Y159843D02*
X94601D01*
X92801D02*
X93301D01*
Y158843D02*
Y160843D01*
X94101Y158843D02*
Y160843D01*
X87901Y150843D02*
X92101D01*
X87901Y156343D02*
X92101D01*
X95301Y150843D02*
X99501D01*
X95301Y156243D02*
X99501D01*
X87894Y150843D02*
Y156243D01*
X99508Y150843D02*
Y156243D01*
X94101Y153543D02*
X94601D01*
X92801D02*
X93301D01*
Y152543D02*
Y154543D01*
X94101Y152543D02*
Y154543D01*
X95600Y4405D02*
Y7405D01*
X84200Y3606D02*
Y8206D01*
X94800D01*
X89100Y4881D02*
X90100Y5881D01*
X89100Y6881D02*
X90100Y5881D01*
X89100Y4881D02*
Y6881D01*
X94800Y3606D02*
Y8206D01*
X84200Y3606D02*
X94800D01*
X58155Y29796D02*
X59755Y31396D01*
Y29496D02*
Y33496D01*
X58155Y33296D02*
X59755Y31596D01*
X58155Y29796D02*
Y33296D01*
X70200Y3606D02*
X80800D01*
Y8206D01*
X75100Y4881D02*
Y6881D01*
X76100Y5881D01*
X75100Y4881D02*
X76100Y5881D01*
X70200Y8206D02*
X80800D01*
X70200Y3606D02*
Y8206D01*
X81600Y4406D02*
Y7406D01*
X58155Y37670D02*
X59755Y39270D01*
Y37370D02*
Y41370D01*
X58155Y41170D02*
X59755Y39470D01*
X58155Y37670D02*
Y41170D01*
X74541Y224278D02*
X77510Y221308D01*
X70652Y220389D02*
X73621Y217419D01*
X69308Y229510D02*
X72278Y226541D01*
X65490Y225692D02*
X68459Y222722D01*
X73697Y217485D02*
X77515Y221303D01*
X65485Y225697D02*
X69303Y229515D01*
X70864Y224136D02*
X71217Y223783D01*
X71783Y223217D02*
X72136Y222864D01*
X71076Y222510D02*
X72490Y223924D01*
X70510Y223076D02*
X71924Y224490D01*
D95*
X151181Y273937D02*
Y324449D01*
X171653Y273937D02*
Y324449D01*
X165035Y317831D02*
X168035D01*
X165035D02*
Y320831D01*
X168035D01*
Y317831D02*
Y320831D01*
X154799Y317831D02*
X157799D01*
X154799D02*
Y320831D01*
X157799D01*
Y317831D02*
Y320831D01*
X165035Y307831D02*
X168035D01*
X165035D02*
Y310831D01*
X168035D01*
Y307831D02*
Y310831D01*
X154799Y307831D02*
X157799D01*
X154799D02*
Y310831D01*
X157799D01*
Y307831D02*
Y310831D01*
Y297831D02*
Y300831D01*
X154799D02*
X157799D01*
X154799Y297831D02*
Y300831D01*
Y297831D02*
X157799D01*
X168035D02*
Y300831D01*
X165035D02*
X168035D01*
X165035Y297831D02*
Y300831D01*
Y297831D02*
X168035D01*
X151181Y273937D02*
X171653D01*
X165035Y277594D02*
X168035D01*
X165035D02*
Y280594D01*
X168035D01*
Y277594D02*
Y280594D01*
X154799Y277594D02*
X157799D01*
X154799D02*
Y280594D01*
X157799D01*
Y277594D02*
Y280594D01*
X165035Y287831D02*
X168035D01*
X165035D02*
Y290831D01*
X168035D01*
Y287831D02*
Y290831D01*
X154799Y287831D02*
X157799D01*
X154799D02*
Y290831D01*
X157799D01*
Y287831D02*
Y290831D01*
X151181Y324449D02*
X171653D01*
X94925Y311024D02*
X110236Y326335D01*
Y295712D02*
X125548Y311024D01*
X94925D02*
X110236Y295712D01*
Y326335D02*
X125548Y311024D01*
X115787Y23913D02*
X120787D01*
X115787Y18913D02*
Y23913D01*
X130787D02*
X135787D01*
Y18913D02*
Y23913D01*
X168228Y65118D02*
X178228D01*
X168228Y45118D02*
Y65118D01*
Y45118D02*
X178228D01*
Y65118D01*
X56299Y45276D02*
Y48425D01*
Y45276D02*
X59055D01*
X56299Y53937D02*
Y57087D01*
X59055D01*
X80614Y49213D02*
X92614D01*
X80614D02*
Y68898D01*
X92614Y49213D02*
Y68898D01*
D96*
X67355Y30296D02*
Y32796D01*
X65655Y34496D02*
X67355Y32796D01*
X62455Y34496D02*
X65655D01*
X62455Y28496D02*
X65555D01*
X67355Y30296D01*
X50755Y28496D02*
X55955D01*
X50755Y34496D02*
X55955D01*
X50755Y28496D02*
Y34496D01*
X67355Y38170D02*
Y40670D01*
X65655Y42370D02*
X67355Y40670D01*
X62455Y42370D02*
X65655D01*
X62455Y36370D02*
X65555D01*
X67355Y38170D01*
X50755Y36370D02*
X55955D01*
X50755Y42370D02*
X55955D01*
X50755Y36370D02*
Y42370D01*
M02*
