G04*
G04 #@! TF.GenerationSoftware,Altium Limited,Altium Designer,22.1.2 (22)*
G04*
G04 Layer_Color=2752767*
%FSLAX25Y25*%
%MOIN*%
G70*
G04*
G04 #@! TF.SameCoordinates,5FD4367D-7DE5-4249-9820-C709AC44DA9B*
G04*
G04*
G04 #@! TF.FilePolarity,Positive*
G04*
G01*
G75*
%ADD10C,0.01000*%
%ADD103C,0.00200*%
%ADD104C,0.00267*%
D10*
X102362Y169291D02*
Y192913D01*
X78740Y169291D02*
Y192913D01*
X0Y271654D02*
X78740Y192913D01*
X0Y271654D02*
Y362205D01*
Y90551D02*
X78740Y169291D01*
X102362Y192913D02*
X181102Y271654D01*
X102362Y169291D02*
X181102Y90551D01*
X0Y362205D02*
X181102D01*
X0Y0D02*
X181102D01*
Y90551D01*
Y271654D02*
Y362205D01*
X0Y0D02*
Y90551D01*
D103*
X105480Y38667D02*
Y40267D01*
X107080D01*
Y38667D01*
X105480D01*
X112551Y45738D02*
Y47338D01*
X114151D01*
Y45738D01*
X112551D01*
X119622Y52809D02*
Y54409D01*
X121222D01*
Y52809D01*
X119622D01*
X126693Y59880D02*
Y61480D01*
X128293D01*
Y59880D01*
X126693D01*
X133765Y66951D02*
Y68551D01*
X135364D01*
Y66951D01*
X133765D01*
X140835Y74022D02*
Y75622D01*
X142436D01*
Y74022D01*
X140835D01*
X147907Y81093D02*
Y82693D01*
X149507D01*
Y81093D01*
X147907D01*
X98409Y31596D02*
Y33196D01*
X100009D01*
Y31596D01*
X98409D01*
X31596Y98409D02*
Y100009D01*
X33196D01*
Y98409D01*
X31596D01*
X38667Y105480D02*
Y107080D01*
X40267D01*
Y105480D01*
X38667D01*
X45738Y112551D02*
Y114151D01*
X47338D01*
Y112551D01*
X45738D01*
X52809Y119622D02*
Y121222D01*
X54409D01*
Y119622D01*
X52809D01*
X59880Y126693D02*
Y128293D01*
X61480D01*
Y126693D01*
X59880D01*
X66951Y133764D02*
Y135364D01*
X68551D01*
Y133764D01*
X66951D01*
X74022Y140835D02*
Y142435D01*
X75622D01*
Y140835D01*
X74022D01*
X81093Y147906D02*
Y149506D01*
X82693D01*
Y147906D01*
X81093D01*
Y329009D02*
Y330609D01*
X82693D01*
Y329009D01*
X81093D01*
X74022Y321938D02*
Y323538D01*
X75622D01*
Y321938D01*
X74022D01*
X66951Y314867D02*
Y316467D01*
X68551D01*
Y314867D01*
X66951D01*
X59880Y307796D02*
Y309396D01*
X61480D01*
Y307796D01*
X59880D01*
X52809Y300725D02*
Y302325D01*
X54409D01*
Y300725D01*
X52809D01*
X45738Y293653D02*
Y295253D01*
X47338D01*
Y293653D01*
X45738D01*
X38667Y286582D02*
Y288182D01*
X40267D01*
Y286582D01*
X38667D01*
X31596Y279511D02*
Y281111D01*
X33196D01*
Y279511D01*
X31596D01*
X98409Y212698D02*
Y214298D01*
X100009D01*
Y212698D01*
X98409D01*
X147907Y262196D02*
Y263796D01*
X149507D01*
Y262196D01*
X147907D01*
X140835Y255124D02*
Y256725D01*
X142436D01*
Y255124D01*
X140835D01*
X133765Y248054D02*
Y249654D01*
X135364D01*
Y248054D01*
X133765D01*
X126693Y240982D02*
Y242582D01*
X128293D01*
Y240982D01*
X126693D01*
X119622Y233911D02*
Y235511D01*
X121222D01*
Y233911D01*
X119622D01*
X112551Y226840D02*
Y228440D01*
X114151D01*
Y226840D01*
X112551D01*
X105480Y219769D02*
Y221369D01*
X107080D01*
Y219769D01*
X105480D01*
X172017Y341720D02*
X171217Y343320D01*
X172817D01*
X172017Y341720D01*
X166717Y332540D02*
X165917Y334140D01*
X167517D01*
X166717Y332540D01*
X156117D02*
X155317Y334140D01*
X156917D01*
X156117Y332540D01*
X150817Y341720D02*
X150017Y343320D01*
X151617D01*
X150817Y341720D01*
X156117Y350900D02*
X155317Y352500D01*
X156917D01*
X156117Y350900D01*
X166717D02*
X165917Y352500D01*
X167517D01*
X166717Y350900D01*
X30285Y341720D02*
X29485Y343320D01*
X31085D01*
X30285Y341720D01*
X24985Y332540D02*
X24185Y334140D01*
X25785D01*
X24985Y332540D01*
X14385D02*
X13585Y334140D01*
X15185D01*
X14385Y332540D01*
X9085Y341720D02*
X8285Y343320D01*
X9885D01*
X9085Y341720D01*
X14385Y350900D02*
X13585Y352500D01*
X15185D01*
X14385Y350900D01*
X24985D02*
X24185Y352500D01*
X25785D01*
X24985Y350900D01*
X172017Y18885D02*
X171217Y20485D01*
X172817D01*
X172017Y18885D01*
X166717Y9705D02*
X165917Y11305D01*
X167517D01*
X166717Y9705D01*
X156117D02*
X155317Y11305D01*
X156917D01*
X156117Y9705D01*
X150817Y18885D02*
X150017Y20485D01*
X151617D01*
X150817Y18885D01*
X156117Y28065D02*
X155317Y29665D01*
X156917D01*
X156117Y28065D01*
X166717D02*
X165917Y29665D01*
X167517D01*
X166717Y28065D01*
X30285Y18885D02*
X29485Y20485D01*
X31085D01*
X30285Y18885D01*
X24985Y9705D02*
X24185Y11305D01*
X25785D01*
X24985Y9705D01*
X14385D02*
X13585Y11305D01*
X15185D01*
X14385Y9705D01*
X9085Y18885D02*
X8285Y20485D01*
X9885D01*
X9085Y18885D01*
X14385Y28065D02*
X13585Y29665D01*
X15185D01*
X14385Y28065D01*
X24985D02*
X24185Y29665D01*
X25785D01*
X24985Y28065D01*
X156417Y278413D02*
X156817Y278813D01*
X157217D01*
X156817Y279213D01*
X157217Y279613D01*
X156817D01*
X156417Y280013D01*
X156017Y279613D01*
X155617D01*
X156017Y279213D01*
X155617Y278813D01*
X156017D01*
X156417Y278413D01*
X166417D02*
X166817Y278813D01*
X167217D01*
X166817Y279213D01*
X167217Y279613D01*
X166817D01*
X166417Y280013D01*
X166017Y279613D01*
X165617D01*
X166017Y279213D01*
X165617Y278813D01*
X166017D01*
X166417Y278413D01*
X156417Y288413D02*
X156817Y288813D01*
X157217D01*
X156817Y289213D01*
X157217Y289613D01*
X156817D01*
X156417Y290013D01*
X156017Y289613D01*
X155617D01*
X156017Y289213D01*
X155617Y288813D01*
X156017D01*
X156417Y288413D01*
X166417D02*
X166817Y288813D01*
X167217D01*
X166817Y289213D01*
X167217Y289613D01*
X166817D01*
X166417Y290013D01*
X166017Y289613D01*
X165617D01*
X166017Y289213D01*
X165617Y288813D01*
X166017D01*
X166417Y288413D01*
X156417Y298413D02*
X156817Y298813D01*
X157217D01*
X156817Y299213D01*
X157217Y299613D01*
X156817D01*
X156417Y300013D01*
X156017Y299613D01*
X155617D01*
X156017Y299213D01*
X155617Y298813D01*
X156017D01*
X156417Y298413D01*
X166417D02*
X166817Y298813D01*
X167217D01*
X166817Y299213D01*
X167217Y299613D01*
X166817D01*
X166417Y300013D01*
X166017Y299613D01*
X165617D01*
X166017Y299213D01*
X165617Y298813D01*
X166017D01*
X166417Y298413D01*
X156417Y308413D02*
X156817Y308813D01*
X157217D01*
X156817Y309213D01*
X157217Y309613D01*
X156817D01*
X156417Y310013D01*
X156017Y309613D01*
X155617D01*
X156017Y309213D01*
X155617Y308813D01*
X156017D01*
X156417Y308413D01*
X166417D02*
X166817Y308813D01*
X167217D01*
X166817Y309213D01*
X167217Y309613D01*
X166817D01*
X166417Y310013D01*
X166017Y309613D01*
X165617D01*
X166017Y309213D01*
X165617Y308813D01*
X166017D01*
X166417Y308413D01*
X156417Y318413D02*
X156817Y318813D01*
X157217D01*
X156817Y319213D01*
X157217Y319613D01*
X156817D01*
X156417Y320013D01*
X156017Y319613D01*
X155617D01*
X156017Y319213D01*
X155617Y318813D01*
X156017D01*
X156417Y318413D01*
X166417D02*
X166817Y318813D01*
X167217D01*
X166817Y319213D01*
X167217Y319613D01*
X166817D01*
X166417Y320013D01*
X166017Y319613D01*
X165617D01*
X166017Y319213D01*
X165617Y318813D01*
X166017D01*
X166417Y318413D01*
X21542Y40538D02*
X21942Y41339D01*
X21542Y42138D01*
X22342Y41739D01*
X23142Y42138D01*
X22742Y41339D01*
X23142Y40538D01*
X22342Y40938D01*
X21542Y40538D01*
Y75972D02*
X21942Y76772D01*
X21542Y77572D01*
X22342Y77172D01*
X23142Y77572D01*
X22742Y76772D01*
X23142Y75972D01*
X22342Y76372D01*
X21542Y75972D01*
X5603Y76372D02*
Y75972D01*
X6403D01*
Y76372D01*
X6803D01*
Y77172D01*
X6403D01*
Y77572D01*
X5603D01*
Y77172D01*
X5203D01*
Y76372D01*
X5603D01*
Y40938D02*
Y40538D01*
X6403D01*
Y40938D01*
X6803D01*
Y41739D01*
X6403D01*
Y42138D01*
X5603D01*
Y41739D01*
X5203D01*
Y40938D01*
X5603D01*
X19573Y69634D02*
X19973D01*
X20373Y70034D01*
X20773Y69634D01*
X21173D01*
Y70034D01*
X20773Y70434D01*
X21173Y70834D01*
Y71234D01*
X20773D01*
X20373Y70834D01*
X19973Y71234D01*
X19573D01*
Y70834D01*
X19973Y70434D01*
X19573Y70034D01*
Y69634D01*
Y46878D02*
X19973D01*
X20373Y47278D01*
X20773Y46878D01*
X21173D01*
Y47278D01*
X20773Y47678D01*
X21173Y48078D01*
Y48478D01*
X20773D01*
X20373Y48078D01*
X19973Y48478D01*
X19573D01*
Y48078D01*
X19973Y47678D01*
X19573Y47278D01*
Y46878D01*
X173228Y49318D02*
X173628Y49718D01*
X174028D01*
X173628Y50118D01*
X174028Y50518D01*
X173628D01*
X173228Y50918D01*
X172828Y50518D01*
X172428D01*
X172828Y50118D01*
X172428Y49718D01*
X172828D01*
X173228Y49318D01*
Y59318D02*
X173628Y59718D01*
X174028D01*
X173628Y60118D01*
X174028Y60518D01*
X173628D01*
X173228Y60918D01*
X172828Y60518D01*
X172428D01*
X172828Y60118D01*
X172428Y59718D01*
X172828D01*
X173228Y59318D01*
X48150Y14948D02*
X48550Y15348D01*
X48950D01*
X48550Y15748D01*
X48950Y16148D01*
X48550D01*
X48150Y16548D01*
X47750Y16148D01*
X47350D01*
X47750Y15748D01*
X47350Y15348D01*
X47750D01*
X48150Y14948D01*
X58150D02*
X58550Y15348D01*
X58950D01*
X58550Y15748D01*
X58950Y16148D01*
X58550D01*
X58150Y16548D01*
X57750Y16148D01*
X57350D01*
X57750Y15748D01*
X57350Y15348D01*
X57750D01*
X58150Y14948D01*
X124200Y341000D02*
X125000Y341800D01*
X125800Y341000D01*
X125000Y340200D01*
X124200Y341000D01*
X108200Y353000D02*
X109000Y353800D01*
X109800Y353000D01*
X109000Y352200D01*
X108200Y353000D01*
X136700Y10500D02*
X137500Y11300D01*
X138300Y10500D01*
X137500Y9700D01*
X136700Y10500D01*
X88200Y211000D02*
X89000Y211800D01*
X89800Y211000D01*
X89000Y210200D01*
X88200Y211000D01*
X63700Y229000D02*
X64500Y229800D01*
X65300Y229000D01*
X64500Y228200D01*
X63700Y229000D01*
X53700Y239000D02*
X54500Y239800D01*
X55300Y239000D01*
X54500Y238200D01*
X53700Y239000D01*
X116700Y130000D02*
X117500Y130800D01*
X118300Y130000D01*
X117500Y129200D01*
X116700Y130000D01*
X104700Y125000D02*
X105500Y125800D01*
X106300Y125000D01*
X105500Y124200D01*
X104700Y125000D01*
X114700Y26000D02*
X115500Y26800D01*
X116300Y26000D01*
X115500Y25200D01*
X114700Y26000D01*
Y16500D02*
X115500Y17300D01*
X116300Y16500D01*
X115500Y15700D01*
X114700Y16500D01*
X105700Y21500D02*
X106500Y22300D01*
X107300Y21500D01*
X106500Y20700D01*
X105700Y21500D01*
X107700Y259500D02*
X108500Y260300D01*
X109300Y259500D01*
X108500Y258700D01*
X107700Y259500D01*
X36700Y249500D02*
X37500Y250300D01*
X38300Y249500D01*
X37500Y248700D01*
X36700Y249500D01*
X88700Y197000D02*
X89500Y197800D01*
X90300Y197000D01*
X89500Y196200D01*
X88700Y197000D01*
X85700Y281500D02*
X86500Y282300D01*
X87300Y281500D01*
X86500Y280700D01*
X85700Y281500D01*
X77200Y292500D02*
X78000Y293300D01*
X78800Y292500D01*
X78000Y291700D01*
X77200Y292500D01*
X129700Y272500D02*
X130500Y273300D01*
X131300Y272500D01*
X130500Y271700D01*
X129700Y272500D01*
X49700Y266500D02*
X50500Y267300D01*
X51300Y266500D01*
X50500Y265700D01*
X49700Y266500D01*
X47200Y247000D02*
X48000Y247800D01*
X48800Y247000D01*
X48000Y246200D01*
X47200Y247000D01*
X68200Y286000D02*
X69000Y286800D01*
X69800Y286000D01*
X69000Y285200D01*
X68200Y286000D01*
X54200Y294000D02*
X55000Y294800D01*
X55800Y294000D01*
X55000Y293200D01*
X54200Y294000D01*
X104700Y234000D02*
X105500Y234800D01*
X106300Y234000D01*
X105500Y233200D01*
X104700Y234000D01*
X36700Y275500D02*
X37500Y276300D01*
X38300Y275500D01*
X37500Y274700D01*
X36700Y275500D01*
X98200Y121500D02*
X99000Y122300D01*
X99800Y121500D01*
X99000Y120700D01*
X98200Y121500D01*
X86200Y114000D02*
X87000Y114800D01*
X87800Y114000D01*
X87000Y113200D01*
X86200Y114000D01*
X67700Y118000D02*
X68500Y118800D01*
X69300Y118000D01*
X68500Y117200D01*
X67700Y118000D01*
X63200Y112842D02*
X64000Y113642D01*
X64800Y112842D01*
X64000Y112042D01*
X63200Y112842D01*
X106200Y131500D02*
X107000Y132300D01*
X107800Y131500D01*
X107000Y130700D01*
X106200Y131500D01*
X52200Y345000D02*
X53000Y345800D01*
X53800Y345000D01*
X53000Y344200D01*
X52200Y345000D01*
X56700Y339000D02*
X57500Y339800D01*
X58300Y339000D01*
X57500Y338200D01*
X56700Y339000D01*
X73200Y351500D02*
X74000Y352300D01*
X74800Y351500D01*
X74000Y350700D01*
X73200Y351500D01*
X135753Y327053D02*
X136553Y327853D01*
X137353Y327053D01*
X136553Y326253D01*
X135753Y327053D01*
X122200Y311000D02*
X123000Y311800D01*
X123800Y311000D01*
X123000Y310200D01*
X122200Y311000D01*
X118200Y314500D02*
X119000Y315300D01*
X119800Y314500D01*
X119000Y313700D01*
X118200Y314500D01*
X112700D02*
X113500Y315300D01*
X114300Y314500D01*
X113500Y313700D01*
X112700Y314500D01*
X144200Y313500D02*
X145000Y314300D01*
X145800Y313500D01*
X145000Y312700D01*
X144200Y313500D01*
X34303Y49930D02*
X35103Y50730D01*
X35903Y49930D01*
X35103Y49130D01*
X34303Y49930D01*
X34200Y68500D02*
X35000Y69300D01*
X35800Y68500D01*
X35000Y67700D01*
X34200Y68500D01*
X124700Y253000D02*
X125500Y253800D01*
X126300Y253000D01*
X125500Y252200D01*
X124700Y253000D01*
X88700Y248500D02*
X89500Y249300D01*
X90300Y248500D01*
X89500Y247700D01*
X88700Y248500D01*
X105200Y269500D02*
X106000Y270300D01*
X106800Y269500D01*
X106000Y268700D01*
X105200Y269500D01*
X112700Y257000D02*
X113500Y257800D01*
X114300Y257000D01*
X113500Y256200D01*
X112700Y257000D01*
X100200Y313000D02*
X101000Y313800D01*
X101800Y313000D01*
X101000Y312200D01*
X100200Y313000D01*
X84844Y307405D02*
X85644Y308205D01*
X86444Y307405D01*
X85644Y306605D01*
X84844Y307405D01*
X85200Y314000D02*
X86000Y314800D01*
X86800Y314000D01*
X86000Y313200D01*
X85200Y314000D01*
X92700Y215929D02*
X93500Y216729D01*
X94300Y215929D01*
X93500Y215129D01*
X92700Y215929D01*
X73200Y267500D02*
X74000Y268300D01*
X74800Y267500D01*
X74000Y266700D01*
X73200Y267500D01*
X100200Y284500D02*
X101000Y285300D01*
X101800Y284500D01*
X101000Y283700D01*
X100200Y284500D01*
X123700Y272500D02*
X124500Y273300D01*
X125300Y272500D01*
X124500Y271700D01*
X123700Y272500D01*
X116200Y252500D02*
X117000Y253300D01*
X117800Y252500D01*
X117000Y251700D01*
X116200Y252500D01*
X68700Y231500D02*
X69500Y232300D01*
X70300Y231500D01*
X69500Y230700D01*
X68700Y231500D01*
X100200Y307000D02*
X101000Y307800D01*
X101800Y307000D01*
X101000Y306200D01*
X100200Y307000D01*
X105700Y308000D02*
X106500Y308800D01*
X107300Y308000D01*
X106500Y307200D01*
X105700Y308000D01*
X109700Y304000D02*
X110500Y304800D01*
X111300Y304000D01*
X110500Y303200D01*
X109700Y304000D01*
X108700Y299000D02*
X109500Y299800D01*
X110300Y299000D01*
X109500Y298200D01*
X108700Y299000D01*
X111200Y309500D02*
X112000Y310300D01*
X112800Y309500D01*
X112000Y308700D01*
X111200Y309500D01*
X111700Y286322D02*
X112500Y287122D01*
X113300Y286322D01*
X112500Y285522D01*
X111700Y286322D01*
X86200Y289000D02*
X87000Y289800D01*
X87800Y289000D01*
X87000Y288200D01*
X86200Y289000D01*
X63700Y253500D02*
X64500Y254300D01*
X65300Y253500D01*
X64500Y252700D01*
X63700Y253500D01*
X59200Y249500D02*
X60000Y250300D01*
X60800Y249500D01*
X60000Y248700D01*
X59200Y249500D01*
X62200Y276000D02*
X63000Y276800D01*
X63800Y276000D01*
X63000Y275200D01*
X62200Y276000D01*
X94200Y330500D02*
X95000Y331300D01*
X95800Y330500D01*
X95000Y329700D01*
X94200Y330500D01*
X74700Y340500D02*
X75500Y341300D01*
X76300Y340500D01*
X75500Y339700D01*
X74700Y340500D01*
X109200Y335500D02*
X110000Y336300D01*
X110800Y335500D01*
X110000Y334700D01*
X109200Y335500D01*
X78700Y242500D02*
X79500Y243300D01*
X80300Y242500D01*
X79500Y241700D01*
X78700Y242500D01*
X82700Y270000D02*
X83500Y270800D01*
X84300Y270000D01*
X83500Y269200D01*
X82700Y270000D01*
X104200Y319000D02*
X105000Y319800D01*
X105800Y319000D01*
X105000Y318200D01*
X104200Y319000D01*
X138200Y305750D02*
X139000Y306550D01*
X139800Y305750D01*
X139000Y304950D01*
X138200Y305750D01*
X137700Y283500D02*
X138500Y284300D01*
X139300Y283500D01*
X138500Y282700D01*
X137700Y283500D01*
X133200Y310500D02*
X134000Y311300D01*
X134800Y310500D01*
X134000Y309700D01*
X133200Y310500D01*
X130200Y299000D02*
X131000Y299800D01*
X131800Y299000D01*
X131000Y298200D01*
X130200Y299000D01*
X133200Y280500D02*
X134000Y281300D01*
X134800Y280500D01*
X134000Y279700D01*
X133200Y280500D01*
X12700Y277000D02*
X13500Y277800D01*
X14300Y277000D01*
X13500Y276200D01*
X12700Y277000D01*
X128200Y279000D02*
X129000Y279800D01*
X129800Y279000D01*
X129000Y278200D01*
X128200Y279000D01*
X18938Y297268D02*
X19738Y298068D01*
X20538Y297268D01*
X19738Y296468D01*
X18938Y297268D01*
X25450Y299250D02*
X26250Y300050D01*
X27050Y299250D01*
X26250Y298450D01*
X25450Y299250D01*
X43200Y259000D02*
X44000Y259800D01*
X44800Y259000D01*
X44000Y258200D01*
X43200Y259000D01*
X82200Y138000D02*
X83000Y138800D01*
X83800Y138000D01*
X83000Y137200D01*
X82200Y138000D01*
X84200Y156500D02*
X85000Y157300D01*
X85800Y156500D01*
X85000Y155700D01*
X84200Y156500D01*
X101678Y153522D02*
X102478Y154322D01*
X103278Y153522D01*
X102478Y152722D01*
X101678Y153522D01*
X88200Y97500D02*
X89000Y98300D01*
X89800Y97500D01*
X89000Y96700D01*
X88200Y97500D01*
X113200Y111500D02*
X114000Y112300D01*
X114800Y111500D01*
X114000Y110700D01*
X113200Y111500D01*
X96200Y95500D02*
X97000Y96300D01*
X97800Y95500D01*
X97000Y94700D01*
X96200Y95500D01*
X73700Y237000D02*
X74500Y237800D01*
X75300Y237000D01*
X74500Y236200D01*
X73700Y237000D01*
X65700Y71500D02*
X66500Y72300D01*
X67300Y71500D01*
X66500Y70700D01*
X65700Y71500D01*
X105200Y50500D02*
X106000Y51300D01*
X106800Y50500D01*
X106000Y49700D01*
X105200Y50500D01*
X113200Y62104D02*
X114000Y62904D01*
X114800Y62104D01*
X114000Y61304D01*
X113200Y62104D01*
X79200Y25000D02*
X80000Y25800D01*
X80800Y25000D01*
X80000Y24200D01*
X79200Y25000D01*
X87700Y32500D02*
X88500Y33300D01*
X89300Y32500D01*
X88500Y31700D01*
X87700Y32500D01*
X90700Y38500D02*
X91500Y39300D01*
X92300Y38500D01*
X91500Y37700D01*
X90700Y38500D01*
X63767Y19933D02*
X64567Y20733D01*
X65367Y19933D01*
X64567Y19133D01*
X63767Y19933D01*
X65200Y60500D02*
X66000Y61300D01*
X66800Y60500D01*
X66000Y59700D01*
X65200Y60500D01*
X65700Y66000D02*
X66500Y66800D01*
X67300Y66000D01*
X66500Y65200D01*
X65700Y66000D01*
D104*
X162217Y342520D02*
G03*
X162217Y342520I-800J0D01*
G01*
X20485D02*
G03*
X20485Y342520I-800J0D01*
G01*
X162217Y19685D02*
G03*
X162217Y19685I-800J0D01*
G01*
X20485D02*
G03*
X20485Y19685I-800J0D01*
G01*
M02*
